<svg xmlns="http://www.w3.org/2000/svg" width="29.062" height="29.062" viewBox="0 0 29.062 29.062">
  <path id="Caminho_137" data-name="Caminho 137" d="M380.087,231.927a29.756,29.756,0,0,1,3.333-.456v5.164a29.743,29.743,0,0,1-3.333-.453l-1.629,3.932a29.046,29.046,0,0,1,2.678,2.036l-3.65,3.65a29.233,29.233,0,0,1-2.039-2.678l-3.929,1.629a29.761,29.761,0,0,1,.453,3.333h-5.164a29.747,29.747,0,0,1,.453-3.333l-3.929-1.629a29.2,29.2,0,0,1-2.039,2.678l-3.65-3.65a29.056,29.056,0,0,1,2.678-2.036l-1.629-3.932a29.747,29.747,0,0,1-3.333.453v-5.164a29.76,29.76,0,0,1,3.333.456l1.629-3.932a30.209,30.209,0,0,1-2.678-2.036l3.65-3.653a29.636,29.636,0,0,1,2.039,2.678l3.929-1.626a29.9,29.9,0,0,1-.453-3.336h5.164a29.917,29.917,0,0,1-.453,3.336l3.929,1.626a29.671,29.671,0,0,1,2.039-2.678l3.65,3.653a30.2,30.2,0,0,1-2.678,2.036Zm-10.7-4.109a6.236,6.236,0,1,0,6.238,6.235A6.236,6.236,0,0,0,369.389,227.818Z" transform="translate(-354.858 -219.522)" stroke="rgba(0,0,0,0)" stroke-miterlimit="10" stroke-width="1"/>
</svg>
