<svg xmlns="http://www.w3.org/2000/svg" width="192.974" height="192.854" viewBox="0 0 192.974 192.854">
  <g id="Grupo_1197" data-name="Grupo 1197" transform="translate(-134.589 -379.146)">
    <g id="Grupo_1187" data-name="Grupo 1187" transform="translate(134.589 379.145)">
      <g id="Grupo_36" data-name="Grupo 36" transform="translate(0 0)">
        <g id="Grupo_35" data-name="Grupo 35" transform="translate(0 0)">
          <path id="Caminho_91" data-name="Caminho 91" d="M115.808,355.644H51.524V297.023a5.664,5.664,0,0,1,5.664-5.664h58.62Z" transform="translate(-51.524 -291.359)" fill="#ffe8d2"/>
          <path id="Caminho_92" data-name="Caminho 92" d="M220.617,355.644H156.333V291.359h58.62a5.664,5.664,0,0,1,5.664,5.664Z" transform="translate(-27.644 -291.359)" fill="#ffe8d2"/>
          <rect id="Retângulo_88" data-name="Retângulo 88" width="64.282" height="64.286" transform="translate(64.284)" fill="#e35136"/>
          <rect id="Retângulo_89" data-name="Retângulo 89" width="64.284" height="64.286" transform="translate(0 64.286)" fill="#e35136"/>
          <rect id="Retângulo_90" data-name="Retângulo 90" width="64.284" height="64.286" transform="translate(128.689 64.286)" fill="#e35136"/>
          <rect id="Retângulo_91" data-name="Retângulo 91" width="64.282" height="64.286" transform="translate(64.284 64.286)" fill="#ffe8d2"/>
          <path id="Caminho_93" data-name="Caminho 93" d="M115.808,460.355H57.188a5.663,5.663,0,0,1-5.664-5.663v-58.62h64.284Z" transform="translate(-51.524 -267.5)" fill="#ffe8d2"/>
          <path id="Caminho_94" data-name="Caminho 94" d="M214.953,460.355h-58.62V396.072h64.284v58.62A5.663,5.663,0,0,1,214.953,460.355Z" transform="translate(-27.644 -267.5)" fill="#ffe8d2"/>
          <rect id="Retângulo_92" data-name="Retângulo 92" width="64.282" height="64.283" transform="translate(64.284 128.571)" fill="#e35136"/>
        </g>
        <path id="Caminho_98" data-name="Caminho 98" d="M100.338,334.348,86.22,320.232l14.115-14.117a4.158,4.158,0,1,0-5.88-5.88L80.34,314.349,66.222,300.235a4.158,4.158,0,1,0-5.88,5.88L74.46,320.232,60.342,334.348a4.158,4.158,0,0,0,5.88,5.881L80.34,326.111,94.455,340.23a4.159,4.159,0,1,0,5.883-5.881Z" transform="translate(16.149 -223.806)" fill="#333"/>
      </g>
    </g>
  </g>
</svg>
