<svg id="Grupo_1198" data-name="Grupo 1198" xmlns="http://www.w3.org/2000/svg" width="192.974" height="192.854" viewBox="0 0 192.974 192.854">
  <g id="Grupo_36" data-name="Grupo 36" transform="translate(0 0)">
    <g id="Grupo_35" data-name="Grupo 35" transform="translate(0 0)">
      <path id="Caminho_91" data-name="Caminho 91" d="M115.808,355.644H51.524V297.023a5.664,5.664,0,0,1,5.664-5.664h58.62Z" transform="translate(-51.524 -291.359)" fill="#ffe8d2"/>
      <path id="Caminho_92" data-name="Caminho 92" d="M220.617,355.644H156.333V291.359h58.62a5.664,5.664,0,0,1,5.664,5.664Z" transform="translate(-27.644 -291.359)" fill="#ffe8d2"/>
      <rect id="Retângulo_88" data-name="Retângulo 88" width="64.282" height="64.286" transform="translate(64.284)" fill="#e35136"/>
      <rect id="Retângulo_89" data-name="Retângulo 89" width="64.284" height="64.286" transform="translate(0 64.286)" fill="#e35136"/>
      <rect id="Retângulo_90" data-name="Retângulo 90" width="64.284" height="64.286" transform="translate(128.689 64.286)" fill="#e35136"/>
      <rect id="Retângulo_91" data-name="Retângulo 91" width="64.282" height="64.286" transform="translate(64.284 64.286)" fill="#ffe8d2"/>
      <path id="Caminho_93" data-name="Caminho 93" d="M115.808,460.355H57.188a5.663,5.663,0,0,1-5.664-5.663v-58.62h64.284Z" transform="translate(-51.524 -267.5)" fill="#ff8400"/>
      <path id="Caminho_94" data-name="Caminho 94" d="M214.953,460.355h-58.62V396.072h64.284v58.62A5.663,5.663,0,0,1,214.953,460.355Z" transform="translate(-27.644 -267.5)" fill="#ff8400"/>
      <rect id="Retângulo_92" data-name="Retângulo 92" width="64.282" height="64.283" transform="translate(64.284 128.571)" fill="#ff8400"/>
    </g>
    <path id="Caminho_95" data-name="Caminho 95" d="M101.637,440.3,87.519,426.184l14.115-14.115a4.158,4.158,0,1,0-5.88-5.881L81.639,420.3,67.524,406.188a4.159,4.159,0,1,0-5.881,5.881l14.117,14.115L61.641,440.3a4.158,4.158,0,0,0,5.88,5.88l14.118-14.117,14.118,14.117a4.158,4.158,0,1,0,5.88-5.88Z" transform="translate(-49.496 -265.473)" fill="#fff"/>
    <path id="Caminho_96" data-name="Caminho 96" d="M153.989,440.3l-14.118-14.119,14.118-14.115a4.158,4.158,0,0,0-5.88-5.88L133.991,420.3l-14.115-14.115a4.158,4.158,0,0,0-5.88,5.88l14.115,14.115L114,440.3a4.158,4.158,0,0,0,5.88,5.88l14.115-14.117,14.118,14.117a4.158,4.158,0,1,0,5.88-5.88Z" transform="translate(-37.567 -265.473)" fill="#fff"/>
    <path id="Caminho_2361" data-name="Caminho 2361" d="M153.989,440.3l-14.118-14.119,14.118-14.115a4.158,4.158,0,0,0-5.88-5.88L133.991,420.3l-14.115-14.115a4.158,4.158,0,0,0-5.88,5.88l14.115,14.115L114,440.3a4.158,4.158,0,0,0,5.88,5.88l14.115-14.117,14.118,14.117a4.158,4.158,0,1,0,5.88-5.88Z" transform="translate(26.716 -265.473)" fill="#fff"/>
    <path id="Caminho_97" data-name="Caminho 97" d="M100.338,387.946,86.22,373.829l14.115-14.117a4.157,4.157,0,0,0-5.88-5.879L80.34,367.948,66.222,353.834a4.157,4.157,0,0,0-5.88,5.879L74.46,373.829,60.342,387.946a4.159,4.159,0,0,0,5.88,5.883L80.34,379.71l14.115,14.119a4.16,4.16,0,1,0,5.883-5.883Z" transform="translate(16.084 -277.402)" fill="#333"/>
    <path id="Caminho_99" data-name="Caminho 99" d="M133.994,359.269a14.561,14.561,0,1,1-14.561,14.561,14.577,14.577,0,0,1,14.561-14.561m0-6.654a21.215,21.215,0,1,0,21.213,21.215,21.215,21.215,0,0,0-21.213-21.215Z" transform="translate(-101.849 -277.402)" fill="#333"/>
    <path id="Caminho_101" data-name="Caminho 101" d="M133.994,303.527a14.561,14.561,0,1,1-14.561,14.561,14.579,14.579,0,0,1,14.561-14.561m0-6.654a21.216,21.216,0,1,0,21.213,21.215,21.216,21.216,0,0,0-21.213-21.215Z" transform="translate(-37.568 -290.103)" fill="#333"/>
    <path id="Caminho_2362" data-name="Caminho 2362" d="M133.994,303.527a14.561,14.561,0,1,1-14.561,14.561,14.579,14.579,0,0,1,14.561-14.561m0-6.654a21.216,21.216,0,1,0,21.213,21.215,21.216,21.216,0,0,0-21.213-21.215Z" transform="translate(28.308 -290.103)" fill="#333"/>
    <path id="Caminho_2363" data-name="Caminho 2363" d="M133.994,303.527a14.561,14.561,0,1,1-14.561,14.561,14.579,14.579,0,0,1,14.561-14.561m0-6.654a21.216,21.216,0,1,0,21.213,21.215,21.216,21.216,0,0,0-21.213-21.215Z" transform="translate(28.308 -221.663)" fill="#333"/>
  </g>
</svg>
