<svg xmlns="http://www.w3.org/2000/svg" width="820.216" height="819.711" viewBox="0 0 820.216 819.711">
  <g id="Grupo_1195" data-name="Grupo 1195" transform="translate(-549.893 -204.164)">
    <path id="Caminho_91" data-name="Caminho 91" d="M324.757,564.6H51.524V315.433A24.072,24.072,0,0,1,75.6,291.359H324.757Z" transform="translate(498.368 -87.195)" fill="#ffe8d2"/>
    <path id="Caminho_92" data-name="Caminho 92" d="M429.566,564.6H156.333V291.359H405.491a24.072,24.072,0,0,1,24.075,24.074Z" transform="translate(940.542 -87.195)" fill="#ffe8d2"/>
    <rect id="Retângulo_88" data-name="Retângulo 88" width="273.225" height="273.241" transform="translate(823.128 204.164)" fill="#e35136"/>
    <rect id="Retângulo_89" data-name="Retângulo 89" width="273.235" height="273.24" transform="translate(549.893 477.404)" fill="#e35136"/>
    <rect id="Retângulo_90" data-name="Retângulo 90" width="273.235" height="273.24" transform="translate(1096.873 477.404)" fill="#e35136"/>
    <rect id="Retângulo_91" data-name="Retângulo 91" width="273.225" height="273.24" transform="translate(823.128 477.404)" fill="#ffe8d2"/>
    <path id="Caminho_93" data-name="Caminho 93" d="M324.757,669.3H75.6A24.071,24.071,0,0,1,51.524,645.23V396.072H324.757Z" transform="translate(498.368 354.574)" fill="#ffe8d2"/>
    <path id="Caminho_94" data-name="Caminho 94" d="M405.491,669.3H156.333V396.072H429.566V645.23A24.071,24.071,0,0,1,405.491,669.3Z" transform="translate(940.542 354.574)" fill="#ffe8d2"/>
    <rect id="Retângulo_92" data-name="Retângulo 92" width="273.225" height="273.23" transform="translate(823.128 750.645)" fill="#e35136"/>
  </g>
</svg>
