<svg id="Grupo_1187" data-name="Grupo 1187" xmlns="http://www.w3.org/2000/svg" width="35.616" height="35.622" viewBox="0 0 35.616 35.622">
  <g id="Grupo_1186" data-name="Grupo 1186">
    <path id="Caminho_2400" data-name="Caminho 2400" d="M219.361,200.272a9.462,9.462,0,1,1,9.49-9.449A9.485,9.485,0,0,1,219.361,200.272Zm.023-16.483a7.023,7.023,0,1,0,7.027,7.032A7.027,7.027,0,0,0,219.384,183.789Z" transform="translate(-201.584 -172.999)" fill="#fbe287"/>
    <path id="Caminho_2401" data-name="Caminho 2401" d="M271.492,124.34c0,.532.019,1.066,0,1.6a1.22,1.22,0,1,1-2.436-.014c-.024-1.087-.022-2.176,0-3.264a1.223,1.223,0,1,1,2.438.014C271.508,123.228,271.492,123.784,271.492,124.34Z" transform="translate(-252.463 -121.342)" fill="#fbe287"/>
    <path id="Caminho_2402" data-name="Caminho 2402" d="M152.909,240.522c.555,0,1.112-.025,1.666.006a1.2,1.2,0,0,1,1.223,1.239,1.168,1.168,0,0,1-1.2,1.187q-1.734.051-3.471,0a1.191,1.191,0,0,1-1.2-1.2,1.217,1.217,0,0,1,1.243-1.227C151.75,240.5,152.33,240.522,152.909,240.522Z" transform="translate(-149.931 -223.933)" fill="#fbe287"/>
    <path id="Caminho_2403" data-name="Caminho 2403" d="M366.658,242.928c-.555,0-1.112.021-1.667-.005a1.2,1.2,0,0,1-1.257-1.207,1.183,1.183,0,0,1,1.236-1.224q1.7-.046,3.4,0a1.212,1.212,0,1,1,.02,2.425c-.577.034-1.157.007-1.736.007Z" transform="translate(-333.988 -223.895)" fill="#fbe287"/>
    <path id="Caminho_2404" data-name="Caminho 2404" d="M271.5,338.087c0,.532.012,1.065,0,1.6a1.249,1.249,0,0,1-1.24,1.375,1.236,1.236,0,0,1-1.2-1.343q-.029-1.6,0-3.194a1.209,1.209,0,0,1,1.2-1.332c.737-.009,1.214.51,1.238,1.369C271.514,337.068,271.5,337.578,271.5,338.087Z" transform="translate(-252.472 -305.438)" fill="#fbe287"/>
    <path id="Caminho_2405" data-name="Caminho 2405" d="M185.828,155.041a6.263,6.263,0,0,1,1.054.629c.776.728,1.524,1.487,2.264,2.252a1.215,1.215,0,1,1-1.691,1.734c-.8-.771-1.581-1.562-2.357-2.356a1.047,1.047,0,0,1-.254-1.329A5.423,5.423,0,0,1,185.828,155.041Z" transform="translate(-179.863 -150.352)" fill="#fbe287"/>
    <path id="Caminho_2406" data-name="Caminho 2406" d="M339.637,155.537c.3.24.782.437.913.77a1.479,1.479,0,0,1-.105,1.263,32.117,32.117,0,0,1-2.63,2.665,1.19,1.19,0,0,1-1.7-1.643c.861-.935,1.778-1.82,2.7-2.7A3.041,3.041,0,0,1,339.637,155.537Z" transform="translate(-309.982 -150.779)" fill="#fbe287"/>
    <path id="Caminho_2407" data-name="Caminho 2407" d="M189.911,308.4a6.87,6.87,0,0,1-.653,1.045c-.713.759-1.457,1.489-2.2,2.215a1.221,1.221,0,1,1-1.739-1.692q1.161-1.2,2.362-2.352a1.027,1.027,0,0,1,1.333-.219A5.562,5.562,0,0,1,189.911,308.4Z" transform="translate(-180.006 -281.375)" fill="#fbe287"/>
    <path id="Caminho_2408" data-name="Caminho 2408" d="M340.6,310.729c-.011,1.029-1.085,1.711-1.775,1.139a27.864,27.864,0,0,1-2.9-2.877,1.181,1.181,0,0,1,1.622-1.622c1.012.91,1.947,1.907,2.891,2.889A1.04,1.04,0,0,1,340.6,310.729Z" transform="translate(-309.848 -281.288)" fill="#fbe287"/>
  </g>
</svg>
