<svg xmlns="http://www.w3.org/2000/svg" width="76.883" height="60.571" viewBox="0 0 76.883 60.571">
  <g id="Grupo_1208" data-name="Grupo 1208" transform="translate(14.761 -71.185)">
    <g id="Grupo_1179" data-name="Grupo 1179" transform="matrix(0.966, -0.259, 0.259, 0.966, -14.699, 88.73)">
      <path id="Caminho_2383" data-name="Caminho 2383" d="M33.71,31.99c-2.166.34-4.348.6-6.493,1.04a14.555,14.555,0,0,0-6.253,3.244q-4.131,3.368-8.527,6.405a11.261,11.261,0,0,1-3.766,1.511c-3.577.85-6.578-.619-7.588-4.143A28.187,28.187,0,0,1,.007,31.741a53.715,53.715,0,0,1,5.268-22.7A25.4,25.4,0,0,1,7.891,4.936C11.138.664,15.482-.7,20.649.4c3.011.639,6.018,1.305,9,2.051a18.459,18.459,0,0,0,9.007-.176c2.99-.728,5.985-1.453,9.008-2.023,5.1-.963,9.127.871,12.231,4.961a34.472,34.472,0,0,1,5.5,12.329c1.631,6.155,2.649,12.4,1.937,18.8a15.522,15.522,0,0,1-.742,3.336c-1.4,4.044-4.439,5.58-8.538,4.319a25.073,25.073,0,0,1-10.027-6.429C43.993,33.622,39.189,32.163,33.71,31.99ZM3,32.916c.115,1.16.156,2.844.471,4.476.7,3.613,2.617,4.614,6.026,3.237a11.984,11.984,0,0,0,2.457-1.268A43.319,43.319,0,0,0,17.3,35.289a21.148,21.148,0,0,1,13.561-6.073c7.006-.554,13.48.593,18.766,5.815A34.622,34.622,0,0,0,55.487,39.5a14.743,14.743,0,0,0,4.488,1.774A2.606,2.606,0,0,0,63.318,39.4a16.669,16.669,0,0,0,1.017-4.469A51.4,51.4,0,0,0,62.38,18.353,31.674,31.674,0,0,0,57.665,7.531c-2.449-3.388-5.729-4.878-9.871-4.124-2.767.5-5.517,1.126-8.243,1.82a23.043,23.043,0,0,1-11.61,0c-2.725-.7-5.467-1.362-8.234-1.863A9.174,9.174,0,0,0,10.257,7a20.172,20.172,0,0,0-2.126,3.328C4.684,17.275,3.35,24.721,3,32.916Z" transform="translate(0 0)" fill="#fff" stroke="#b970bb" stroke-width="0.1"/>
      <path id="Caminho_2384" data-name="Caminho 2384" d="M9.418,18.652A5.013,5.013,0,0,1,4.68,15.116a1.9,1.9,0,0,0-1.065-1.033A5.069,5.069,0,0,1,0,9.387a4.785,4.785,0,0,1,3.512-4.72,1.568,1.568,0,0,0,1.266-1.24A4.791,4.791,0,0,1,9.432,0,4.752,4.752,0,0,1,14.07,3.432a1.6,1.6,0,0,0,1.252,1.251A4.815,4.815,0,0,1,18.76,9.465a5.063,5.063,0,0,1-3.539,4.611,1.938,1.938,0,0,0-1.055,1.031A5.034,5.034,0,0,1,9.418,18.652ZM15.729,9.4c.01-1.168-.735-1.792-2.14-1.857-2.04-.094-2.3-.359-2.415-2.415a4.139,4.139,0,0,0-.081-.784c-.223-.885-.877-1.492-1.7-1.276A3.663,3.663,0,0,0,7.734,4.459c-.218.28-.067.849-.076,1.288A1.63,1.63,0,0,1,5.967,7.529c-.35.026-.7,0-1.052.042-1.025.124-1.789.58-1.763,1.732.025,1.122.736,1.6,1.8,1.695,2.492.212,2.5.218,2.712,2.777a1.678,1.678,0,0,0,1.75,1.755A1.653,1.653,0,0,0,11.172,13.8c.218-2.442.229-2.446,2.79-2.7A1.742,1.742,0,0,0,15.729,9.4Z" transform="translate(8.651 8.442)" fill="#fff" stroke="#b970bb" stroke-width="0.1"/>
      <path id="Caminho_2385" data-name="Caminho 2385" d="M5.892,2.854A2.984,2.984,0,0,1,3.009,5.859,2.98,2.98,0,0,1,0,2.982,2.929,2.929,0,0,1,2.881,0,2.932,2.932,0,0,1,5.892,2.854Z" transform="translate(45.465 20.832)" fill="#fff" stroke="#b970bb" stroke-width="0.1"/>
      <path id="Caminho_2386" data-name="Caminho 2386" d="M5.891,3.01A2.982,2.982,0,0,1,2.885,5.891,2.986,2.986,0,0,1,0,2.887,3,3,0,0,1,3.008,0,2.993,2.993,0,0,1,5.891,3.01Z" transform="translate(45.463 8.835)" fill="#fff" stroke="#b970bb" stroke-width="0.1"/>
      <path id="Caminho_2387" data-name="Caminho 2387" d="M2.932,5.854A2.885,2.885,0,0,1,0,2.944,2.909,2.909,0,0,1,2.907,0,2.949,2.949,0,0,1,5.855,2.921,2.919,2.919,0,0,1,2.932,5.854Z" transform="translate(39.51 14.832)" fill="#fff" stroke="#b970bb" stroke-width="0.1"/>
      <path id="Caminho_2388" data-name="Caminho 2388" d="M5.856,2.987A2.887,2.887,0,0,1,2.881,5.854,2.915,2.915,0,0,1,0,2.879,2.945,2.945,0,0,1,2.99,0,2.913,2.913,0,0,1,5.856,2.987Z" transform="translate(51.455 14.832)" fill="#fff" stroke="#b970bb" stroke-width="0.1"/>
    </g>
  </g>
</svg>
