<svg xmlns="http://www.w3.org/2000/svg" width="92.259" height="92.26" viewBox="0 0 92.259 92.26">
  <g id="Grupo_1222" data-name="Grupo 1222" transform="matrix(0.819, -0.574, 0.574, 0.819, -307.426, -115.295)">
    <path id="Caminho_2457" data-name="Caminho 2457" d="M197.027,368.145q-15.336,0-30.673,0c-2.058,0-2.447-.384-2.447-2.416q0-30.74,0-61.479c0-1.938.415-2.347,2.379-2.347q30.74,0,61.479,0c1.964,0,2.38.41,2.38,2.347q0,30.74,0,61.479c0,2.032-.389,2.415-2.447,2.416Q212.363,368.148,197.027,368.145Zm.565-59.247q-11.967,0-23.935,0c-2.063,0-2.752.682-2.753,2.719q0,23.4,0,46.794c0,2.023.707,2.715,2.763,2.716q23.33,0,46.659,0c2.139,0,2.82-.674,2.82-2.8q0-23.868,0-47.735c0-1.684-.017-1.7-1.756-1.7Q209.493,308.9,197.592,308.9Z" transform="translate(0)" fill="#fff"/>
    <path id="Caminho_2458" data-name="Caminho 2458" d="M234.28,363.954h8.09l-.034-.035q.022,4.2.044,8.4h-8.058v8.059l-8.4-.045.035.034q0-4.045,0-8.09l-.038.028h8.39v-8.391Z" transform="translate(-45.327 -45.328)" fill="#fff"/>
    <path id="Caminho_2459" data-name="Caminho 2459" d="M295,441.325h-8.09l.034.035q-.022-4.2-.044-8.4h8.059V424.9l8.4.044-.035-.034V433l.038-.029h-8.39v8.391Z" transform="translate(-89.902 -89.905)" fill="#fff"/>
    <path id="Caminho_2460" data-name="Caminho 2460" d="M316.878,363.954h8.389l-.035-.035v8.391l.03-.04-8.394.051q.023-4.2.047-8.4Z" transform="translate(-111.805 -45.331)" fill="#fff"/>
    <path id="Caminho_2461" data-name="Caminho 2461" d="M225.961,463.267q0-4.2,0-8.392l-.031.04,8.4-.048q-.025,4.2-.05,8.394l.038-.029h-8.387Z" transform="translate(-45.332 -111.808)" fill="#fff"/>
    <path id="Caminho_2462" data-name="Caminho 2462" d="M225.956,342.268v-8.013h8.325v8.02l.029-.039h-8.39Z" transform="translate(-45.327 -23.649)" fill="#fff"/>
    <path id="Caminho_2463" data-name="Caminho 2463" d="M204.291,372.28h-8.014v-8.33h8.013l-.037-.032q0,4.2,0,8.39Z" transform="translate(-23.661 -45.331)" fill="#fff"/>
    <path id="Caminho_2464" data-name="Caminho 2464" d="M347.94,454.93h8.013v8.325h-8.007l.032.037V454.9Z" transform="translate(-134.516 -111.833)" fill="#fff"/>
    <path id="Caminho_2465" data-name="Caminho 2465" d="M325.258,485.941v8.016h-8.329V485.94l-.029.039h8.39Z" transform="translate(-111.828 -134.52)" fill="#fff"/>
    <path id="Caminho_2466" data-name="Caminho 2466" d="M286.968,342.282v-8.016H295v8.013l.038-.03-8.1,0Z" transform="translate(-89.925 -23.657)" fill="#fff"/>
    <path id="Caminho_2467" data-name="Caminho 2467" d="M347.984,342.279v-8.014H356v7.979h-8.051Z" transform="translate(-134.523 -23.656)" fill="#fff"/>
    <path id="Caminho_2468" data-name="Caminho 2468" d="M347.946,395h8.008v8.029h-8.009l.035.034,0-8.1Z" transform="translate(-134.519 -68.017)" fill="#fff"/>
    <path id="Caminho_2469" data-name="Caminho 2469" d="M204.295,433h-8.009v-8.028h8.01l-.035-.034q0,4.051,0,8.1Z" transform="translate(-23.668 -89.929)" fill="#fff"/>
    <path id="Caminho_2470" data-name="Caminho 2470" d="M204.141,485.957v8.012h-8.02v-7.978h8.055Z" transform="translate(-23.547 -134.532)" fill="#fff"/>
    <path id="Caminho_2471" data-name="Caminho 2471" d="M265.025,485.944v8.015h-8.03v-8.012l-.038.029,8.1,0Z" transform="translate(-68.014 -134.523)" fill="#fff"/>
    <path id="Caminho_2472" data-name="Caminho 2472" d="M295.033,403.046h-8.106q0-4.053,0-8.106l8.108,0Q295.034,398.992,295.033,403.046Z" transform="translate(-89.92 -68.004)" fill="#fff"/>
    <path id="Caminho_2473" data-name="Caminho 2473" d="M265.046,424.927q0,4.053,0,8.106l-8.108,0q0-4.054,0-8.108Z" transform="translate(-67.999 -89.924)" fill="#fff"/>
  </g>
</svg>
