<svg xmlns="http://www.w3.org/2000/svg" width="86.391" height="86.391" viewBox="0 0 86.391 86.391">
  <g id="Grupo_1219" data-name="Grupo 1219" transform="translate(-29.805 -209.609)">
    <g id="Grupo_1217" data-name="Grupo 1217" transform="matrix(0.819, 0.574, -0.574, 0.819, 287.723, -68.685)">
      <path id="Caminho_2443" data-name="Caminho 2443" d="M8.508,417.522q-12.054,0-24.107,0c-4.185,0-6.9-2.708-6.905-6.875q0-24.168,0-48.336a6.452,6.452,0,0,1,6.843-6.814q24.168,0,48.336,0a6.455,6.455,0,0,1,6.845,6.813q.006,24.228,0,48.457a6.447,6.447,0,0,1-6.783,6.754Q20.623,417.529,8.508,417.522Zm1.374-59.411v27.035H36.905v-1.273q0-10.658,0-21.315c0-3.019-1.423-4.443-4.439-4.445q-10.658-.008-21.315,0Zm-29.771,27.022H7.148V358.111H5.877q-10.657,0-21.315,0c-3.024,0-4.447,1.42-4.449,4.434q-.008,10.657,0,21.315Zm29.761,2.714v27.059h1.281q10.657,0,21.315,0c3.012,0,4.434-1.429,4.436-4.449q.007-10.658,0-21.315c0-.423-.044-.847-.069-1.293Zm-29.761.016c0,.467,0,.861,0,1.255q0,10.718,0,21.436c0,2.922,1.452,4.348,4.412,4.351q10.718.009,21.436,0c.388,0,.776-.043,1.181-.066V387.862Z" transform="translate(0 0)" fill="#fff"/>
      <path id="Caminho_2444" data-name="Caminho 2444" d="M149.37,419.456c1.571,0,3.143.021,4.714-.008.924-.017,1.675.253,1.707,1.262s-.7,1.364-1.621,1.364H144.5c-.878,0-1.572-.356-1.589-1.28-.018-1,.675-1.357,1.625-1.344C146.147,419.473,147.759,419.457,149.37,419.456Z" transform="translate(-125.338 -48.459)" fill="#fff"/>
      <path id="Caminho_2445" data-name="Caminho 2445" d="M20.079,403.45c0-1.148,0-2.11,0-3.071,0-.935-.108-1.967,1.251-2.051.934-.058,1.3.528,1.308,2q.012,1.39.034,2.78c0,.071.062.142.158.348,1.093,0,2.25.014,3.407,0,.9-.015,1.549.363,1.561,1.287s-.652,1.323-1.535,1.331c-1.161.01-2.322,0-3.627,0,0,1.16-.013,2.2,0,3.233.015.959-.094,1.893-1.317,1.876-1.137-.016-1.267-.9-1.251-1.821.018-1.04,0-2.081,0-3.286-1.225,0-2.338-.009-3.451,0-.913.01-1.689-.285-1.709-1.285-.021-1.081.77-1.372,1.745-1.344C17.747,403.474,18.831,403.45,20.079,403.45Z" transform="translate(-28.358 -32.453)" fill="#fff"/>
      <path id="Caminho_2446" data-name="Caminho 2446" d="M149.447,526.208c1.609,0,3.218.007,4.827,0,.9,0,1.537.376,1.523,1.311-.013.861-.614,1.248-1.466,1.247q-4.947,0-9.895,0c-.9,0-1.542-.38-1.522-1.312s.7-1.259,1.586-1.251C146.149,526.219,147.8,526.208,149.447,526.208Z" transform="translate(-125.341 -129.348)" fill="#fff"/>
      <path id="Caminho_2447" data-name="Caminho 2447" d="M149.251,560.776c-1.609,0-3.218,0-4.827,0-.9,0-1.532-.389-1.513-1.321.017-.863.626-1.238,1.476-1.237q4.947.007,9.895,0c.9,0,1.533.386,1.513,1.32-.018.861-.626,1.241-1.476,1.238C152.63,560.771,150.94,560.775,149.251,560.776Z" transform="translate(-125.339 -153.607)" fill="#fff"/>
      <path id="Caminho_2448" data-name="Caminho 2448" d="M23.523,531.324c-.963-.958-1.837-1.84-2.725-2.708-.666-.651-.945-1.381-.2-2.091.694-.658,1.4-.382,2.006.25.862.9,1.734,1.783,2.724,2.8.955-.985,1.821-1.871,2.678-2.766.638-.667,1.371-.977,2.09-.233s.366,1.468-.3,2.092c-.879.826-1.75,1.659-2.76,2.619,1,.972,1.88,1.839,2.774,2.695.662.633,1,1.357.272,2.093s-1.452.406-2.09-.256c-.839-.87-1.7-1.721-2.81-2.847-.889.995-1.734,1.951-2.592,2.9-.592.651-1.312.9-2,.24-.744-.716-.458-1.444.209-2.092C21.694,533.15,22.569,532.27,23.523,531.324Z" transform="translate(-32.325 -129.304)" fill="#fff"/>
    </g>
  </g>
</svg>
