<svg xmlns="http://www.w3.org/2000/svg" width="83.798" height="95.447" viewBox="0 0 83.798 95.447">
  <g id="Grupo_1220" data-name="Grupo 1220" transform="translate(-94.125 -337.093) rotate(17)">
    <path id="Caminho_2449" data-name="Caminho 2449" d="M262.658,355.3c1.306,0,2.5-.014,3.7,0a1.813,1.813,0,0,1,2.016,2.058c-.008,2.884.005,5.768,0,8.653-.006,2.024-.472,2.489-2.5,2.489q-20.615,0-41.229,0c-2.832,0-5.665.013-8.5-.005-1.581-.01-2.189-.6-2.2-2.178q-.042-4.4,0-8.81c.015-1.577.624-2.169,2.2-2.208,1.151-.029,2.3-.006,3.587-.006a19.615,19.615,0,0,0,1.253-8.758c-.4-4.9-1.116-9.78-1.755-14.661-.042-.32-.511-.72-.864-.844-5.481-1.919-8.165-6.161-6.991-11.854a75.575,75.575,0,0,1,3.568-12.975c5.064-12.57,15.257-18.713,28.782-17.813a33.936,33.936,0,0,0,9.354-.268,17.148,17.148,0,0,1,6.061.35c1.865.306,2.28,1.462,1.322,3.116-1.284,2.215-2.625,4.4-4.01,6.708,1.917,2.1,3.876,4.139,5.716,6.281,3.379,3.935,6.828,7.821,9.984,11.931,3.065,3.99,2.468,7.587-1.421,10.848a19.587,19.587,0,0,1-2.7,1.891,6.2,6.2,0,0,1-6.707-.056c-1.259-.753-2.483-1.564-3.723-2.349-4.338-2.746-4.338-2.746-9.835-3.43a10.854,10.854,0,0,0,.852,2.825c1.242,1.919,2.362,4.1,4.088,5.491C260.625,338.1,262.892,345.843,262.658,355.3Zm-3.648-.084a12.737,12.737,0,0,0,.183-1.44c.077-6.57-1.619-12.532-6.115-17.5-1.407-1.554-2.907-3.023-4.346-4.548a16.658,16.658,0,0,1-4.6-9.443,2.632,2.632,0,0,0-.728-1.444,12.538,12.538,0,0,1-3.694-9.992c.039-1.165.6-1.931,1.838-1.865,1.146.06,1.6.826,1.616,1.923a15.215,15.215,0,0,0,.13,2.661,7.79,7.79,0,0,0,7.729,6.752,10.894,10.894,0,0,1,6.085,2.093,51.054,51.054,0,0,0,5.859,3.659,3.992,3.992,0,0,0,3.057.219,12.611,12.611,0,0,0,3.588-2.725,2.987,2.987,0,0,0,.337-4.154,31.091,31.091,0,0,0-2.758-3.817q-6.732-7.69-13.581-15.277a2.535,2.535,0,0,1-.286-3.615c1.1-1.623,2.043-3.357,3.094-5.112a12.414,12.414,0,0,0-10.046,3.084,7.11,7.11,0,0,1-4.031,1.789c-8.77,1.413-14.861,6.141-17.776,14.655-2.651,7.743-2.356,15.677-1.374,23.634.391,3.169,1.187,6.315,1.281,9.487.109,3.633-.357,7.284-.577,10.974Zm5.85,3.686H217.492v6.014H264.86ZM218.907,327.38c0-2.129-.094-4.121.026-6.1a42.9,42.9,0,0,1,.718-5.913c2.649-13.06,10.895-20.818,22.792-22.446a5.954,5.954,0,0,0,1.51-.706c-.257-.214-.33-.327-.409-.332-8.511-.465-16.033,1.585-21.419,8.713-4.615,6.109-6.471,13.3-7.59,20.689C214.11,324.1,215.945,326.461,218.907,327.38Z" transform="translate(0)" fill="#fff"/>
    <path id="Caminho_2450" data-name="Caminho 2450" d="M340.288,342.79c1.337.051,3.251,1.99,2.985,2.79a3.324,3.324,0,0,1-1.249,1.246,18.783,18.783,0,0,1-2.672-2.745C339.246,343.94,340.051,343.107,340.288,342.79Z" transform="translate(-87.908 -37.583)" fill="#fff"/>
  </g>
</svg>
