<svg xmlns="http://www.w3.org/2000/svg" width="83.771" height="90.425" viewBox="0 0 83.771 90.425">
  <g id="Grupo_1205" data-name="Grupo 1205" transform="translate(16.93 -68.308)">
    <g id="Grupo_1178" data-name="Grupo 1178" transform="translate(19.495 68.307) rotate(30)">
      <path id="Caminho_2371" data-name="Caminho 2371" d="M14.577,6.012H16.3q18,0,36,0c2.157,0,2.365.208,2.366,2.348q0,28.666,0,57.332c0,2.081-.211,2.292-2.267,2.294-3.222,0-6.445,0-9.893,0,0,1.012.009,1.939,0,2.867-.019,1.729-.263,1.982-1.99,1.983q-14.728.008-29.456,0c-1.281,0-2.562.028-3.842-.012A7.318,7.318,0,0,1,0,65.392q0-28.737,0-57.475C.009,3.232,3.144-.072,7.46,0a7.389,7.389,0,0,1,6.6,4.623C14.234,5.06,14.388,5.5,14.577,6.012Zm.067,59.4h37.5V8.573h-37.5Zm-2.48-5.382c0-.575,0-.857,0-1.138q0-25.462-.005-50.924a9.1,9.1,0,0,0-.122-1.556A4.82,4.82,0,0,0,5.818,2.631c-2.184.684-3.38,2.528-3.381,5.335q-.013,25.391,0,50.782c0,.381.068.763.113,1.24C5.8,57.683,8.878,57.786,12.163,60.031Zm27.866,7.958H15.383c-2.907,0-2.906,0-3.287-2.9-.025-.188-.049-.377-.088-.562a4.818,4.818,0,0,0-9.508.513c-.3,3.1,1.895,5.341,5.362,5.349q15.438.034,30.877,0c.412,0,.824-.059,1.291-.1Z" transform="translate(0)" fill="#fff"/>
      <path id="Caminho_2372" data-name="Caminho 2372" d="M16.579,0Q23.62,0,30.661,0c1.843,0,2.133.3,2.136,2.156q.009,5.262,0,10.523c-.006,1.578-.33,1.912-1.934,1.913q-14.438.016-28.875,0c-1.7,0-1.973-.291-1.978-2q-.015-5.333,0-10.665C.014.343.336.012,1.928.008,6.812-.006,11.7,0,16.579,0Zm-14.1,12.09H30.247V2.575H2.478Z" transform="translate(17.02 10.866)" fill="#fff"/>
      <path id="Caminho_2373" data-name="Caminho 2373" d="M.008,8.349c0-2.177.02-4.354-.008-6.53C-.016.578.512-.006,1.782,0Q8.527.033,15.272,0c1.264-.006,1.788.553,1.78,1.809q-.041,6.743,0,13.487c.005,1.185-.5,1.747-1.7,1.744q-6.816-.016-13.633,0c-1.192,0-1.725-.557-1.716-1.736C.021,12.986.008,10.668.008,8.349ZM14.493,14.5V2.592H2.569V14.5Z" transform="translate(32.777 46.097)" fill="#fff"/>
      <path id="Caminho_2374" data-name="Caminho 2374" d="M8.434,15.822c-2.181,0-4.362-.025-6.542.009C.6,15.852-.015,15.363,0,13.99.046,9.915.038,5.838.006,1.762,0,.47.575-.007,1.82,0Q8.5.043,15.19,0c1.252-.009,1.835.489,1.828,1.762-.02,4.076-.028,8.152.006,12.229.012,1.355-.606,1.864-1.905,1.842C12.892,15.8,10.663,15.823,8.434,15.822Zm6.071-2.528V2.552H2.5V13.295Z" transform="translate(17.009 27.876)" fill="#fff"/>
      <path id="Caminho_2375" data-name="Caminho 2375" d="M13.243,0V2.275H0V0Z" transform="translate(36.509 29.195)" fill="#fff"/>
      <path id="Caminho_2376" data-name="Caminho 2376" d="M0,2.267V0H13.247V2.267Z" transform="translate(36.506 34.034)" fill="#fff"/>
      <path id="Caminho_2377" data-name="Caminho 2377" d="M13.24,0V2.258H0V0Z" transform="translate(36.509 38.92)" fill="#fff"/>
      <path id="Caminho_2378" data-name="Caminho 2378" d="M13.183,0V2.271H0V0Z" transform="translate(17.143 46.193)" fill="#fff"/>
      <path id="Caminho_2379" data-name="Caminho 2379" d="M13.18,0V2.271H0V0Z" transform="translate(17.145 51.05)" fill="#fff"/>
      <path id="Caminho_2380" data-name="Caminho 2380" d="M13.181,0V2.273H0V0Z" transform="translate(17.144 60.766)" fill="#fff"/>
      <path id="Caminho_2381" data-name="Caminho 2381" d="M0,2.273V0H13.188V2.273Z" transform="translate(17.086 55.907)" fill="#fff"/>
    </g>
  </g>
</svg>
