<svg xmlns="http://www.w3.org/2000/svg" width="65.263" height="79.839" viewBox="0 0 65.263 79.839">
  <g id="Grupo_1226" data-name="Grupo 1226" transform="matrix(0.914, 0.407, -0.407, 0.914, 28.2, 0)">
    <path id="Caminho_2482" data-name="Caminho 2482" d="M-245.016,509.743c-.061-.77-.144-1.624-.193-2.479a15.162,15.162,0,0,1,3.171-10.447,16.019,16.019,0,0,1,4.42-3.9,2.723,2.723,0,0,1,3.109.023,15.5,15.5,0,0,1,7.428,15.758c-.054.386-.095.774-.158,1.3.543-.081.932-.11,1.306-.2a15.829,15.829,0,0,1,7.428.059,2.61,2.61,0,0,1,2.2,2.143,15.325,15.325,0,0,1-2.292,12.8c-.331.476-.681.937-1.016,1.41-.022.031.013.1.041.28.327.083.7.19,1.076.271a2.6,2.6,0,0,1,2.2,2.159c1.286,5.647.073,10.611-3.993,14.787a14.628,14.628,0,0,1-8.127,4.457,33.278,33.278,0,0,1-4.171.216c-.459.019-.919,0-1.5,0-.048.468-.131.911-.133,1.355-.012,3.024,0,6.048-.01,9.072a8.818,8.818,0,0,1-.082,1.563,1.729,1.729,0,0,1-1.757,1.4,1.7,1.7,0,0,1-1.8-1.341,7.405,7.405,0,0,1-.118-1.557c-.01-2.85-.006-5.7-.006-8.549,0-.577,0-1.154,0-1.82a8.151,8.151,0,0,0-1.062-.148c-.7,0-1.4.055-2.093.058a13.7,13.7,0,0,1-7.606-2.2,15.624,15.624,0,0,1-7.25-9.849,17.231,17.231,0,0,1,.081-7.438A2.56,2.56,0,0,1-253.9,526.8c.433-.114.869-.216,1.476-.366-.343-.494-.579-.868-.848-1.216-3.068-3.969-3.661-8.426-2.651-13.216a2.506,2.506,0,0,1,2.036-2.1,15.787,15.787,0,0,1,7.6-.119,8.767,8.767,0,0,0,1.025.141C-245.222,509.929-245.175,509.865-245.016,509.743Zm8.956,6.53c7.745-4.93,6.534-16.375-.078-19.742C-242.765,500.241-243.862,511.379-236.06,516.273Zm16.092-2.826a4.888,4.888,0,0,0-.588-.19,11.933,11.933,0,0,0-13.586,13.218c.109.932.347,1.137,1.355,1.242a11.943,11.943,0,0,0,13.252-11.977A4.966,4.966,0,0,0-219.967,513.448Zm-13.853,31a12.475,12.475,0,0,0,3.364.238,11.777,11.777,0,0,0,8.834-5.224,11.208,11.208,0,0,0,2.061-7.4,2.255,2.255,0,0,0-.554-1.75C-228.6,528.449-235.942,536.808-233.821,544.444Zm-18.567-30.928a11.05,11.05,0,0,0,1.734,8.9,11.582,11.582,0,0,0,11.188,5.3c1.064-.086,1.275-.32,1.4-1.388.014-.115.021-.231.03-.346a11.9,11.9,0,0,0-10.99-12.833A7.116,7.116,0,0,0-252.388,513.516Zm13.969,30.948c1.089-3.216-.091-8.042-3.116-11.014-3.009-2.955-8-4.081-10.7-3.032-1.129,3.238-.107,7.254,2.763,10.388A11.374,11.374,0,0,0-238.419,544.464Z" transform="translate(256.38 -492.436)" fill="#fff"/>
  </g>
</svg>
