<svg xmlns="http://www.w3.org/2000/svg" width="20.401" height="17.34" viewBox="0 0 20.401 17.34">
  <g id="Grupo_1201" data-name="Grupo 1201" transform="translate(0.5 0.984)">
    <path id="Caminho_134" data-name="Caminho 134" d="M340.82,225.7l0,1.732c0,1.054,0,1.778,0,4.619l-1.792-1.306-2.573-1.863L339.026,227l1.794-1.306m2.294-4.509-5.437,3.964v-.021h-3.914v7.483h3.914V232.6l5.437,3.966c-.014-11.587,0-5.9,0-15.372Z" transform="translate(-333.763 -221.189)" fill="#404040" stroke="rgba(0,0,0,0)" stroke-miterlimit="10" stroke-width="1"/>
    <g id="Grupo_88" data-name="Grupo 88" transform="translate(11.543 0.184)">
      <g id="Grupo_86" data-name="Grupo 86" transform="translate(1.66)">
        <path id="Caminho_135" data-name="Caminho 135" d="M340.443,236.272a.917.917,0,0,1-.357-1.762,6.183,6.183,0,0,0,1.98-1.334,6.286,6.286,0,0,0,1.336-1.982,6.265,6.265,0,0,0,0-4.848,6.258,6.258,0,0,0-3.318-3.316.917.917,0,1,1,.717-1.689,8.068,8.068,0,0,1,0,14.857A.88.88,0,0,1,340.443,236.272Z" transform="translate(-339.525 -221.269)" fill="#404040" stroke="rgba(0,0,0,0)" stroke-miterlimit="10" stroke-width="1"/>
      </g>
      <g id="Grupo_87" data-name="Grupo 87" transform="translate(0 3.679)">
        <path id="Caminho_136" data-name="Caminho 136" d="M339.661,230.517a.859.859,0,0,1-.335-1.65,2.36,2.36,0,0,0,.747-.5,2.444,2.444,0,0,0,.506-.749,2.365,2.365,0,0,0-1.253-3.086.858.858,0,1,1,.669-1.581,4.073,4.073,0,0,1,0,7.5A.826.826,0,0,1,339.661,230.517Z" transform="translate(-338.801 -222.875)" fill="#404040" stroke="rgba(0,0,0,0)" stroke-miterlimit="10" stroke-width="1"/>
      </g>
    </g>
  </g>
</svg>
