<svg xmlns="http://www.w3.org/2000/svg" width="81.794" height="66.392" viewBox="0 0 81.794 66.392">
  <g id="Grupo_1209" data-name="Grupo 1209" transform="translate(10.355 -70.122)">
    <g id="Grupo_1180" data-name="Grupo 1180" transform="matrix(0.985, -0.174, 0.174, 0.985, -10.355, 82.877)">
      <path id="Caminho_2389" data-name="Caminho 2389" d="M33.527,29.826l-1.468-5.119a23.237,23.237,0,0,1-2.97.262,5.065,5.065,0,0,1-4.071-2.343c-.442-.63-.753-1.427.1-1.824a1.891,1.891,0,0,1,1.6.574c1.246,1.352,2.676,1.905,4.046,1.222a1.48,1.48,0,0,0,.737-1.127,44.436,44.436,0,0,1,.6-14.823c-2.005.421-3.842.683-5.6,1.206-2.422.72-4.792,1.622-7.172,2.479-.746.269-1.543.663-1.995-.277s.31-1.359,1.055-1.675a45.676,45.676,0,0,1,14.048-3.8,1.292,1.292,0,0,0,.675-.151C36.465,1.65,40.652,1.3,44.658.631A50.491,50.491,0,0,1,68.035,2.468a6.088,6.088,0,0,1,4.691,5.287Q76.317,28.6,62.091,44.182a13.249,13.249,0,0,1-6.4,3.9c-.782.214-1.626.329-1.882-.678-.237-.934.526-1.213,1.259-1.4a11.386,11.386,0,0,0,5.741-3.6c8.922-9.916,12.079-21.447,9.75-34.544a3.721,3.721,0,0,0-2.809-3.214,49.555,49.555,0,0,0-31.018.063,3.433,3.433,0,0,0-2.6,2.882Q30.4,27.4,43.818,42.41a11.352,11.352,0,0,0,5.744,3.6c.745.188,1.475.481,1.232,1.415-.268,1.028-1.149.931-1.879.638-1.669-.669-3.3-1.435-5.009-2.189-.106.215-.3.6-.48.979a12.966,12.966,0,0,1-15.733,6.971C13.532,49.125,4.42,39.47.213,25.172a4.614,4.614,0,0,1,1.139-4.65,50.484,50.484,0,0,1,11.44-9.266c.66-.394,1.354-.718,1.87.109.582.933-.155,1.385-.832,1.789A50.9,50.9,0,0,0,3.322,21.538a3.357,3.357,0,0,0-.88,3.656C6.545,38.34,15.023,47.278,28.1,51.687a10.882,10.882,0,0,0,13.7-6.546,1.863,1.863,0,0,0-.328-2.165c-1.619-2-3.112-4.11-4.568-6.236a1.293,1.293,0,0,0-1.6-.7A21.293,21.293,0,0,0,23.12,43.6a3.621,3.621,0,0,1-2.208,1.254c-1.208.108-1.871-1.047-1.766-2.579a13.546,13.546,0,0,1,12.8-12.445C32.42,29.809,32.9,29.826,33.527,29.826ZM21.432,42.279a24.032,24.032,0,0,1,14.19-8.557c-.766-.742-1.174-1.489-1.722-1.613C28.261,30.836,21.666,36.135,21.432,42.279Z" transform="translate(0 0)" fill="#fff"/>
      <path id="Caminho_2390" data-name="Caminho 2390" d="M11.98,9.795A13.542,13.542,0,0,1,.585,3.56,2.164,2.164,0,0,1,.447.785,2.135,2.135,0,0,1,3.292.337,20.5,20.5,0,0,0,20.775.294a2.066,2.066,0,0,1,2.715.48,2.054,2.054,0,0,1-.043,2.644A13.457,13.457,0,0,1,11.98,9.795Zm9.4-7.357A23.8,23.8,0,0,1,2.6,2.483C6.717,9.244,17.3,9.185,21.383,2.438Z" transform="translate(40.335 26.929)" fill="#fff"/>
      <path id="Caminho_2391" data-name="Caminho 2391" d="M10.446,2.784A5.6,5.6,0,0,1,6.631,8.342,5.508,5.508,0,0,1,.518,6.319C.061,5.665-.368,4.933.507,4.326c.82-.569,1.266.08,1.735.677a3.325,3.325,0,0,0,4.331,1.02,3.278,3.278,0,0,0,1.5-4.066c-.264-.8-.505-1.572.5-1.889s1.331.514,1.56,1.265A12.633,12.633,0,0,1,10.446,2.784Z" transform="translate(9.685 24.331)" fill="#fff"/>
      <path id="Caminho_2392" data-name="Caminho 2392" d="M5.536,0a5.478,5.478,0,0,1,5.371,4.653c.114.778.185,1.638-.858,1.813-.96.161-1.147-.569-1.29-1.337A3.312,3.312,0,0,0,2.168,5.1c-.135.779-.281,1.5-1.246,1.366C-.16,6.32-.032,5.438.056,4.673A5.436,5.436,0,0,1,5.536,0Z" transform="translate(38.405 14.212)" fill="#fff"/>
      <path id="Caminho_2393" data-name="Caminho 2393" d="M10.936,5.541c-.187.185-.579.877-.965.874A1.678,1.678,0,0,1,8.8,5.355C8.231,3.214,7.154,2.114,5.4,2.134S2.673,3.206,2.056,5.422c-.12.433-.8.711-1.218,1.06C.547,6.055.02,5.636,0,5.2-.1,2.463,2.495.017,5.406,0A5.582,5.582,0,0,1,10.936,5.541Z" transform="translate(55.3 14.212)" fill="#fff"/>
    </g>
  </g>
</svg>
