<svg id="Grupo_1185" data-name="Grupo 1185" xmlns="http://www.w3.org/2000/svg" width="82.652" height="70.19" viewBox="0 0 82.652 70.19">
  <path id="Caminho_65" data-name="Caminho 65" d="M192.862,268.053c4.743,1.684,7.73,4.723,8.473,9.5,1.044,6.713-4.305,12.889-11.558,12.969-13.079.143-26.164.165-39.242-.01a13.472,13.472,0,0,1-13.573-14.132c.382-7.261,6.968-12.867,14.785-12.505a1.978,1.978,0,0,0,2.14-1.07c2.49-4.046,7.325-5.856,12.255-4.817a2.141,2.141,0,0,0,1.713-.427c4.458-5.036,10.67-6.676,16.64-4.307,5.794,2.3,8.99,7.642,8.4,14.049C192.881,267.507,192.878,267.711,192.862,268.053Zm-22.849,19.431c6.409,0,12.818.039,19.227-.013,4.87-.04,8.46-3.158,8.97-7.647.472-4.165-2.545-7.934-7.147-8.926-1.788-.385-2.1-.917-1.626-2.783A10.089,10.089,0,0,0,183.2,256.1a10.953,10.953,0,0,0-13.423,4.368c-1.042,1.665-1.321,1.749-3.224.975a7.848,7.848,0,0,0-10.5,4.147c-.617,1.558-1.513,1.853-3.087,1.557a10.753,10.753,0,0,0-11.04,4.473,9.419,9.419,0,0,0-.45,10.393,10.467,10.467,0,0,0,9.628,5.457C157.41,287.53,163.712,287.484,170.013,287.484Z" transform="translate(-131.25 -220.449)" fill="#fbfefe"/>
  <path id="Caminho_66" data-name="Caminho 66" d="M292.8,207.028c.483.2.92.371,1.356.55,5.006,2.055,8.068,7.3,7.16,12.257a11.9,11.9,0,0,1-11.152,9.709c-1.121.068-2.152-.12-2.283-1.38s.8-1.588,1.958-1.715c4.81-.526,8.065-3.583,8.347-7.763.291-4.3-2.54-7.717-7.3-8.8-1.565-.357-1.943-.942-1.575-2.435,1.35-5.481-1.151-10.44-6.247-12.39a10.923,10.923,0,0,0-13.441,4.636c-.577.928-1.24,1.679-2.432,1.041-1.27-.68-.9-1.672-.345-2.656a14.278,14.278,0,0,1,16.327-6.277,13.384,13.384,0,0,1,9.782,13.968C292.913,206.173,292.857,206.573,292.8,207.028Z" transform="translate(-218.825 -178.27)" fill="#fbfefe"/>
  <path id="Caminho_67" data-name="Caminho 67" d="M174.809,187.472c9.258.118,16.921,7.12,17.25,15.752.044,1.146.028,2.325-1.545,2.372-1.434.043-1.628-1.03-1.7-2.146a13.7,13.7,0,0,0-11.284-12.618A14.477,14.477,0,0,0,162.1,197.7a13.071,13.071,0,0,0,2.758,16.262c.193.179.4.346.591.526a1.411,1.411,0,0,1,.229,2.184,1.606,1.606,0,0,1-2.424.063,16.233,16.233,0,0,1-5.756-9.4C155.337,197.01,163.787,187.331,174.809,187.472Z" transform="translate(-144.935 -175.677)" fill="#fbe287"/>
  <path id="Caminho_68" data-name="Caminho 68" d="M209.261,153.327a7.755,7.755,0,0,1-.059,2.429c-.221.642-.948,1.127-1.451,1.681-.567-.5-1.551-.951-1.621-1.508a20.91,20.91,0,0,1-.005-5.182c.071-.566,1.052-1.027,1.617-1.537.506.556,1.236,1.042,1.46,1.688A7.7,7.7,0,0,1,209.261,153.327Z" transform="translate(-177.968 -149.21)" fill="#fbe287"/>
  <path id="Caminho_69" data-name="Caminho 69" d="M166.634,168.422a4.373,4.373,0,0,1-1.156-.937c-.9-1.327-1.691-2.719-2.5-4.1a1.456,1.456,0,0,1,.482-2.256,1.565,1.565,0,0,1,2.286.7c.872,1.4,1.763,2.8,2.551,4.248C168.924,167.229,168.24,168.376,166.634,168.422Z" transform="translate(-148.649 -157.279)" fill="#fbe287"/>
  <path id="Caminho_70" data-name="Caminho 70" d="M123.484,239.445a9.743,9.743,0,0,1-2.7-.062c-.616-.186-1.522-1.023-1.444-1.416a2.271,2.271,0,0,1,1.537-1.488,26,26,0,0,1,5.437,0,2.056,2.056,0,0,1,1.442,1.414c0,.513-.8,1.3-1.4,1.478a10.742,10.742,0,0,1-2.864.065Z" transform="translate(-119.33 -209.482)" fill="#fbe287"/>
  <path id="Caminho_71" data-name="Caminho 71" d="M138.915,196.879a1.561,1.561,0,0,1-2.189,1.682,37.466,37.466,0,0,1-4.968-2.778,1.852,1.852,0,0,1-.441-1.823,2.026,2.026,0,0,1,1.784-.747,53.99,53.99,0,0,1,5.282,2.862C138.695,196.259,138.821,196.729,138.915,196.879Z" transform="translate(-127.382 -179.622)" fill="#fbe287"/>
  <path id="Caminho_72" data-name="Caminho 72" d="M132.543,277.982c-.641-.6-1.3-.939-1.426-1.408a1.77,1.77,0,0,1,.442-1.609,43.991,43.991,0,0,1,5.122-2.834,1.909,1.909,0,0,1,1.685.389c.335.348.492,1.444.261,1.6C136.714,275.457,134.691,276.649,132.543,277.982Z" transform="translate(-127.28 -234.194)" fill="#fbe287"/>
  <path id="Caminho_73" data-name="Caminho 73" d="M245.832,160.988c1.431-.034,2.28,1.1,1.732,2.138a33.379,33.379,0,0,1-2.846,4.638,2.293,2.293,0,0,1-2.054.426,1.833,1.833,0,0,1-.631-1.762,43.774,43.774,0,0,1,2.855-4.808C245.111,161.277,245.637,161.112,245.832,160.988Z" transform="translate(-202.34 -157.357)" fill="#fbe287"/>
</svg>
