<svg xmlns="http://www.w3.org/2000/svg" width="75.902" height="66.723" viewBox="0 0 75.902 66.723">
  <g id="Grupo_1227" data-name="Grupo 1227" transform="translate(-4.085 19.391) rotate(-21)">
    <path id="Caminho_2483" data-name="Caminho 2483" d="M-449.881,745.68a20.03,20.03,0,0,1,1.762,2.023,20.791,20.791,0,0,1,1.214,2.451,9.134,9.134,0,0,0,2.1.075,4.427,4.427,0,0,1,2.806,1,4.2,4.2,0,0,1,1.538,4.358,4.236,4.236,0,0,1-3.321,3.375,8.291,8.291,0,0,1-1.308.149c-.345.03-.692.042-1.144.068.091.4.159.725.24,1.046a4.392,4.392,0,0,1-3.152,5.313c-.463.118-.939.183-1.426.275a2,2,0,0,0,.171,1.045,4.383,4.383,0,0,1-3.589,5.372,8,8,0,0,1-1.316.088q-19.625.007-39.249.012a5.465,5.465,0,0,1-2.181-.43c-1.054-.447-2.12-.864-3.174-1.311a5.721,5.721,0,0,0-2.56-.508c-1.054.051-2.114.017-3.171.006a7.415,7.415,0,0,1-.792-.1,5.44,5.44,0,0,1-.057-1.937,3.058,3.058,0,0,1,.722-.187c1.5-.018,3-.036,4.493,0a4.389,4.389,0,0,1,1.4.326c1.316.5,2.62,1.03,3.92,1.57a3.917,3.917,0,0,0,1.542.285q13.546-.01,27.092-.006a5.326,5.326,0,0,0,.791-.028,2.207,2.207,0,0,0,1.881-2.074,2.177,2.177,0,0,0-1.774-2.163,6.455,6.455,0,0,0-1.185-.059q-4.56-.007-9.119,0a8.251,8.251,0,0,1-1.186-.045,1.085,1.085,0,0,1-1-1.185,1.071,1.071,0,0,1,1.026-1.017,9.252,9.252,0,0,1,1.056-.026q6.74,0,13.479,0c.352,0,.707.017,1.057-.015a2.1,2.1,0,0,0,1.994-2.073,2.1,2.1,0,0,0-1.986-2.215,11.593,11.593,0,0,0-1.188-.023q-6.608,0-13.216,0a8.053,8.053,0,0,1-1.316-.065,1.056,1.056,0,0,1-.909-1.123,1.062,1.062,0,0,1,.989-1.052,9.711,9.711,0,0,1,1.188-.032q9.383,0,18.766,0c.4,0,.795.02,1.189-.015a2.127,2.127,0,0,0,2.007-2.2,2.108,2.108,0,0,0-1.982-2.087,11.351,11.351,0,0,0-1.188-.024q-9.317,0-18.634,0a9.908,9.908,0,0,1-1.319-.044,1.082,1.082,0,0,1-1.014-1.169,1.07,1.07,0,0,1,1.01-1.033,8.782,8.782,0,0,1,1.055-.028l13.48,0c.352,0,.706.017,1.057-.014a2.1,2.1,0,0,0,2.012-2.056,2.091,2.091,0,0,0-1.968-2.229,12.3,12.3,0,0,0-1.32-.027q-9.845,0-19.691,0a9.145,9.145,0,0,1-1.317-.058,1.018,1.018,0,0,1-.9-.843,1.06,1.06,0,0,1,.441-1.159c.288-.2.6-.373.9-.549q3.14-1.824,6.281-3.646a5.637,5.637,0,0,0,.663-.432,2.1,2.1,0,0,0,.614-2.811,2.2,2.2,0,0,0-2.783-.837c-.8.362-1.555.823-2.317,1.263q-6.975,4.031-13.942,8.072c-1.523.883-3.051,1.759-4.561,2.664a3.576,3.576,0,0,1-2,.548c-1.362-.035-2.726-.01-4.093-.01a3.337,3.337,0,0,1-.171-2.156,3.983,3.983,0,0,1,.748-.16c1.013-.019,2.027-.029,3.039,0a3.2,3.2,0,0,0,1.754-.453q9.652-5.6,19.321-11.165c.343-.2.685-.4,1.037-.582a4.412,4.412,0,0,1,6.182,2.2c.121.278.215.568.338.9a4.008,4.008,0,0,0,1.333-.617c1.408-.819,2.795-1.677,4.229-2.447a4.244,4.244,0,0,1,4.736.295,4.156,4.156,0,0,1,1.669,2.462c.095.382.149.774.235,1.233l1.016.545a7.137,7.137,0,0,1,4.854-2.205,6.558,6.558,0,0,1,3.871,1.114,6.157,6.157,0,0,1,2.178,2.43,7.128,7.128,0,0,1,.762,3.049A10.137,10.137,0,0,1-449.881,745.68Zm-8.553,4.554c.563,0,1.043-.013,1.522,0a4.442,4.442,0,0,1,4.467,4.307c.019.291.048.582.075.895a1.825,1.825,0,0,0,.457-.058,4.237,4.237,0,0,0,2.647-3.657,4.116,4.116,0,0,0-2.023-4.023c-.331-.214-.713-.352-1.035-.576a1.068,1.068,0,0,1-.332-1.506c.2-.341.457-.648.657-.989a3.918,3.918,0,0,0,.478-2.926,4.242,4.242,0,0,0-3.05-3.334A4.08,4.08,0,0,0-459,739.646c-.266.29-.467.639-.726.936a1.134,1.134,0,0,1-1.545.2c-.22-.143-.407-.335-.617-.5a4.221,4.221,0,0,0-4.708-.489,3.913,3.913,0,0,0-2.242,3.741,3.121,3.121,0,0,0,.5.082c.88.01,1.761.006,2.642.007,1.145,0,2.292-.04,3.434.014a4.366,4.366,0,0,1,4.113,5.62C-458.257,749.541-458.322,749.834-458.434,750.234Zm-12.9-6.753c.528-4.023,2.843-6.232,6.908-6.53a1.031,1.031,0,0,0-.51-1.055,3.024,3.024,0,0,0-1.065-.469,2.543,2.543,0,0,0-1.876.435c-2.008,1.179-4.026,2.342-6.042,3.508a5.384,5.384,0,0,0-1.217.991,7.39,7.39,0,0,1-1.423,1.15c-.892.56-1.828,1.051-2.742,1.577-.173.1-.424.157-.348.455A68.935,68.935,0,0,0-471.33,743.48Zm8.573,26.5a5.467,5.467,0,0,0,.547.057q3.619.006,7.238,0a3.642,3.642,0,0,0,.525-.024,2.219,2.219,0,0,0,1.9-2.043,2.22,2.22,0,0,0-1.858-2.215,4.861,4.861,0,0,0-.787-.041q-3.224-.005-6.448,0c-.341,0-.682.058-1.09.1a11.579,11.579,0,0,1,.315,1.977A14.985,14.985,0,0,1-462.758,769.982Zm4.283-6.657a3.059,3.059,0,0,0,.441.1q3.754.011,7.508.013a3.343,3.343,0,0,0,.525-.028,2.158,2.158,0,0,0,1.82-1.824,2.083,2.083,0,0,0-1.367-2.3,3.521,3.521,0,0,0-1.159-.17c-2.283-.015-4.566-.011-6.85,0a6.5,6.5,0,0,0-.872.136A4.64,4.64,0,0,1-458.475,763.325Zm8.719-6.549a50.943,50.943,0,0,0,5.145.027,2.094,2.094,0,0,0,1.97-2.088,2.126,2.126,0,0,0-1.895-2.163,6.6,6.6,0,0,0-2.5.091A7.524,7.524,0,0,1-449.756,756.776Z" transform="translate(506.56 -721.628)" fill="#fff"/>
    <path id="Caminho_2484" data-name="Caminho 2484" d="M-373.188,722.028a4.431,4.431,0,0,1,4.467,4.42,4.385,4.385,0,0,1-4.348,4.4,4.342,4.342,0,0,1-4.521-4.345A4.4,4.4,0,0,1-373.188,722.028Zm2.176,4.461a2.178,2.178,0,0,0-2.13-2.215,2.146,2.146,0,0,0-2.145,2.05,2.155,2.155,0,0,0,2.049,2.28A2.184,2.184,0,0,0-371.012,726.489Z" transform="translate(433.829 -715.425)" fill="#fff"/>
    <path id="Caminho_2485" data-name="Caminho 2485" d="M-426.53,710.125a3.367,3.367,0,0,1-3.282,3.419,3.391,3.391,0,0,1-3.406-3.3,3.371,3.371,0,0,1,3.226-3.341A3.344,3.344,0,0,1-426.53,710.125Zm-2.3.137a1.094,1.094,0,0,0-.929-1.105,1.046,1.046,0,0,0-1.123,1.03.99.99,0,0,0,.982,1.02A1.03,1.03,0,0,0-428.826,710.263Z" transform="translate(465.2 -706.894)" fill="#fff"/>
    <path id="Caminho_2486" data-name="Caminho 2486" d="M-394.425,713.536a3.324,3.324,0,0,1-3.324-3.355,3.316,3.316,0,0,1,3.246-3.294,3.376,3.376,0,0,1,3.415,3.281A3.382,3.382,0,0,1-394.425,713.536Zm1-3.37a1.041,1.041,0,0,0-1-1.021,1.117,1.117,0,0,0-1.065,1.12,1.075,1.075,0,0,0,1.095.934A1,1,0,0,0-393.426,710.167Z" transform="translate(445.197 -706.886)" fill="#fff"/>
  </g>
</svg>
