<svg xmlns="http://www.w3.org/2000/svg" width="91.498" height="86.067" viewBox="0 0 91.498 86.067">
  <g id="Grupo_1214" data-name="Grupo 1214" transform="translate(21.225 -53.312)">
    <g id="Grupo_1195" data-name="Grupo 1195" transform="translate(-22.342 89.749) rotate(-30)">
      <path id="Caminho_2421" data-name="Caminho 2421" d="M10.791,14.972c.349-3.146.693-6.057.992-8.973.4-3.9,2.65-5.91,6.519-5.612q23.37,1.8,46.734,3.657c1.169.092,2.343.151,3.507.287a5.288,5.288,0,0,1,4.929,6.041c-.372,4.905-.856,9.8-1.293,14.7-.457,5.136-.953,10.27-1.362,15.41-.4,5.014-2.151,6.654-7.179,6.555a6.231,6.231,0,0,0-.685.076c-.009,1.577,0,3.129-.029,4.68-.062,3.64-2.218,5.832-5.849,5.855q-25.085.163-50.17.281c-3.679.018-5.84-2.2-5.822-5.907q.076-15.531.174-31.063c.024-3.666,2.268-5.916,5.918-5.969C8.339,14.977,9.5,14.979,10.791,14.972ZM60.2,34.759,4,35.074c-.032,5.7-.068,11.278-.091,16.857-.009,2.264.886,3.17,3.155,3.158q24.886-.129,49.772-.278c2.375-.014,3.247-.887,3.264-3.252q.057-7.734.089-15.468Zm2.777,9.2c3.573.833,4.715-.043,5.015-3.523q1.262-14.633,2.6-29.261c.276-3.036-.407-3.9-3.46-4.148-.28-.023-.562-.031-.843-.053Q48.394,5.573,30.5,4.169c-4.21-.329-8.42-.659-12.632-.958-1.735-.123-2.877.534-3.093,2.011-.464,3.171-.762,6.364-1.149,9.733l1.8-.01,41.146-.23c4.617-.026,6.551,1.938,6.527,6.626q-.055,10.565-.117,21.131C62.979,42.981,62.976,43.49,62.973,43.96ZM60.181,26.044l-56.025.314-.031,5.649,56.089-.314c.008-1.457.021-2.818.02-4.178C60.235,27.053,60.2,26.591,60.181,26.044Zm-.065-3c.516-4.226.064-5.585-4.465-5.527-15.822.2-31.644.221-47.465.31a14.189,14.189,0,0,0-1.689.039,2.453,2.453,0,0,0-2.333,2.125,24.7,24.7,0,0,0-.051,3.366Z" transform="translate(0 0)" fill="#fff"/>
      <path id="Caminho_2422" data-name="Caminho 2422" d="M8.318,12.127c-2.068.012-4.135.014-6.2.038C.84,12.181.2,11.6.215,10.289.244,7.593.252,4.9.264,2.2A1.624,1.624,0,0,1,2.1.373Q8.516.344,14.931.3A1.516,1.516,0,0,1,16.663,2.03c-.019,2.743-.041,5.487-.041,8.23A1.606,1.606,0,0,1,14.8,12.092Q11.56,12.1,8.318,12.127ZM3.13,9.225l10.54-.059L13.7,3.241,3.163,3.3Z" transform="translate(39.02 38.584)" fill="#fff"/>
    </g>
  </g>
</svg>
