<svg xmlns="http://www.w3.org/2000/svg" width="84.727" height="76.529" viewBox="0 0 84.727 76.529">
  <g id="Grupo_1225" data-name="Grupo 1225" transform="matrix(0.985, 0.174, -0.174, 0.985, 11.208, 0)">
    <path id="Caminho_2480" data-name="Caminho 2480" d="M-268.8,176.284c0-.762,0-1.458,0-2.153,0-1.071-.006-2.142.012-3.213a4.506,4.506,0,0,1,4.134-4.347,10.5,10.5,0,0,1,1.117-.033q8.876,0,17.753,0c.28,0,.56,0,.839.014a4.463,4.463,0,0,1,4.31,4.315c.056,1.3.023,2.607.034,3.911,0,.507.02,1.014.03,1.453a2,2,0,0,0,1.558.306c3.448.014,6.9,0,10.345.01a15.646,15.646,0,0,1,3.609.323,9.443,9.443,0,0,1,7.453,7.773,14.768,14.768,0,0,1,.24,2.5q.023,16.695.012,33.39a12.442,12.442,0,0,1-.6,3.847,8.959,8.959,0,0,1-5.574,5.854,11.422,11.422,0,0,1-3.53.79c-.558.029-1.117.061-1.675.061q-25.932.005-51.863,0a14.718,14.718,0,0,1-4.552-.6,9.113,9.113,0,0,1-6.607-7.4,12.658,12.658,0,0,1-.244-2.355q-.023-16.974-.01-33.949a11.25,11.25,0,0,1,.655-3.837,9.341,9.341,0,0,1,6.8-6.052,15.453,15.453,0,0,1,4.023-.387c3.355-.01,6.71,0,10.065-.007A3.522,3.522,0,0,0-268.8,176.284Zm14.187,3.381h-13.417c-4.332,0-8.665.009-13,0a10.784,10.784,0,0,0-3.569.563,5.783,5.783,0,0,0-3.778,3.822,11.118,11.118,0,0,0-.513,3.576q0,16.2.01,32.4a15.127,15.127,0,0,0,.2,2.36,6.573,6.573,0,0,0,.972,2.594,6.2,6.2,0,0,0,4.5,2.762,20.966,20.966,0,0,0,3.063.187q25.436.017,50.871.008a11.122,11.122,0,0,0,1.4-.017,17.613,17.613,0,0,0,2.882-.477,5.8,5.8,0,0,0,4.048-4.079,12.232,12.232,0,0,0,.426-3.59q.01-15.992,0-31.984a15.382,15.382,0,0,0-.189-2.5,6.006,6.006,0,0,0-4.46-5.178,12.371,12.371,0,0,0-3.586-.446Q-241.681,179.671-254.608,179.665Zm10.889-3.375c0-1.769,0-3.486,0-5.2a1.767,1.767,0,0,0-.033-.277,1.293,1.293,0,0,0-1.07-1.144,7.309,7.309,0,0,0-1.388-.1q-8.451-.009-16.9,0a8.493,8.493,0,0,0-1.115.04,1.405,1.405,0,0,0-1.4,1.451,6.019,6.019,0,0,0-.019.7c0,1.257-.005,2.513,0,3.77,0,.266.057.532.1.879.469.038.875.1,1.282.1C-254.138,176.641-245.006,176.563-243.72,176.29Z" transform="translate(292 -166.536)" fill="#fff"/>
    <path id="Caminho_2481" data-name="Caminho 2481" d="M-226.578,217.3c.617.016,1.077.038,1.537.04,1.258.005,2.515-.005,3.773.006a7.033,7.033,0,0,1,1.251.09,2.187,2.187,0,0,1,1.877,1.971,5.817,5.817,0,0,1,.053.835q.005,3.98,0,7.961a5.219,5.219,0,0,1-.025.557,2.265,2.265,0,0,1-2.276,2.192c-1.256.051-2.515.017-3.773.021-.606,0-1.211,0-1.817.014a2.4,2.4,0,0,0-.486.107,2.469,2.469,0,0,0-.191,1.416c-.015,1.536.025,3.074-.021,4.609a2.346,2.346,0,0,1-2.5,2.432c-.279.013-.559.005-.839.005h-5.451c-.745,0-1.491.015-2.236-.006a2.374,2.374,0,0,1-2.606-2.6c-.029-1.443-.008-2.887-.009-4.33,0-.462,0-.924,0-1.464a6.612,6.612,0,0,0-.992-.171c-1.49-.017-2.981-.007-4.472-.011a8.246,8.246,0,0,1-1.116-.043,2.219,2.219,0,0,1-1.886-1.8,6.925,6.925,0,0,1-.091-1.249q-.012-3.7,0-7.4a7.49,7.49,0,0,1,.094-1.249,2.075,2.075,0,0,1,1.729-1.783,6.2,6.2,0,0,1,1.246-.123c1.351-.016,2.7,0,4.053-.01.412,0,.824-.039,1.3-.063a8.461,8.461,0,0,0,.131-.995c.014-1.4.008-2.793.009-4.19,0-.233,0-.466.005-.7a2.291,2.291,0,0,1,2.519-2.519c2.329-.033,4.658-.01,6.988-.01.559,0,1.119-.016,1.677.006a2.28,2.28,0,0,1,2.462,2.436c.043,1.489.01,2.979.019,4.469C-226.64,216.2-226.606,216.659-226.578,217.3Zm-18.948,10.517c.531.019.989.049,1.448.051,1.443.007,2.886,0,4.329,0a8.006,8.006,0,0,1,.976.031,1.557,1.557,0,0,1,1.568,1.624c.025.324.014.651.015.976,0,1.629-.006,3.257.007,4.885a8.676,8.676,0,0,0,.134,1.011c.855.013,1.638.029,2.421.035s1.583.02,2.374,0a8.36,8.36,0,0,0,2.4-.143c.03-.452.078-.859.08-1.267.01-1.581,0-3.163.008-4.745a7.73,7.73,0,0,1,.065-1.112A1.317,1.317,0,0,1-228.635,228a5.838,5.838,0,0,1,1.242-.128c1.629-.014,3.258,0,4.888-.012.359,0,.717-.065,1.118-.1a10.93,10.93,0,0,0,.11-2.414c.019-.791.021-1.582,0-2.373a9.356,9.356,0,0,0-.125-2.4c-.507-.02-.964-.052-1.421-.054-1.536-.007-3.073-.037-4.608,0-2.031.054-2.39-.915-2.353-2.31.043-1.627.015-3.256,0-4.884,0-.406-.054-.812-.082-1.2a1.823,1.823,0,0,0-.471-.165q-3.141-.015-6.282,0a2.014,2.014,0,0,0-.571.216v1.4q0,2.233,0,4.466a8.669,8.669,0,0,1-.03.976,1.526,1.526,0,0,1-1.3,1.437,5.817,5.817,0,0,1-1.111.069c-1.675.007-3.351,0-5.027.01a7.635,7.635,0,0,0-.907.108A43.315,43.315,0,0,0-245.525,227.815Z" transform="translate(270.791 -187.336)" fill="#fff"/>
  </g>
</svg>
