<svg xmlns="http://www.w3.org/2000/svg" width="16.807" height="19.539" viewBox="0 0 16.807 19.539">
  <g id="Grupo_1200" data-name="Grupo 1200" transform="translate(-668.337 -108.96)">
    <path id="Caminho_2293" data-name="Caminho 2293" d="M690.169,191.781c.561-.573,1.09-1.138,1.646-1.676a3.77,3.77,0,0,1,5.19-.113,6.508,6.508,0,0,1,2.139,5.675,6.8,6.8,0,0,1-7.117,6.193,6.6,6.6,0,0,1-4.406-1.845c-.363-.338-.707-.7-1.058-1.047a2.322,2.322,0,0,1,.407-3.883c-.073-.084-.139-.168-.214-.243-.818-.82-1.638-1.636-2.454-2.457a2.293,2.293,0,1,1,3.236-3.241C688.4,190,689.262,190.871,690.169,191.781Zm7.5,3.413a5.471,5.471,0,0,0-1.427-3.817,2.289,2.289,0,0,0-3.471-.073c-.651.644-1.3,1.3-1.945,1.94a.8.8,0,0,1-1.339.007q-1.082-1.077-2.16-2.158c-.324-.324-.639-.657-.976-.966a.758.758,0,0,0-1.08,1.063c.073.088.159.165.24.246q2.55,2.55,5.1,5.1a.764.764,0,0,1,.093,1.147.784.784,0,0,1-1.176-.076c-.318-.312-.626-.634-.947-.942a.763.763,0,1,0-1.078,1.074c.381.392.756.794,1.165,1.155a5.363,5.363,0,0,0,9-3.7Z" transform="translate(-14.043 -73.365)" fill="#878787"/>
    <path id="Caminho_2294" data-name="Caminho 2294" d="M670.917,112.015c.244,0,.382-.009.518,0a.757.757,0,0,1,.722.747.734.734,0,0,1-.7.764c-.8.021-1.6.02-2.4,0a.713.713,0,0,1-.7-.718q-.024-1.183,0-2.366a.738.738,0,0,1,.744-.721.76.76,0,0,1,.772.737c.008.11,0,.221,0,.4.181-.129.313-.222.443-.315a8.39,8.39,0,0,1,11.493,1.617,1.29,1.29,0,0,1,.269.646.661.661,0,0,1-.5.687.8.8,0,0,1-.882-.279,13.1,13.1,0,0,0-1.667-1.551,6.8,6.8,0,0,0-7.838.137C671.123,111.843,671.067,111.893,670.917,112.015Z" transform="translate(0 0)" fill="#878787"/>
  </g>
</svg>
