<svg xmlns="http://www.w3.org/2000/svg" width="49.299" height="30.802" viewBox="0 0 49.299 30.802">
  <path id="Caminho_2418" data-name="Caminho 2418" d="M179.667,264.9c3.624,1.349,5.906,3.784,6.474,7.612A9.043,9.043,0,0,1,177.31,282.9c-9.993.115-19.99.132-29.983-.008a10.681,10.681,0,1,1,.926-21.339,1.493,1.493,0,0,0,1.635-.857,8.476,8.476,0,0,1,9.364-3.859,1.581,1.581,0,0,0,1.309-.342c3.406-4.035,8.153-5.348,12.714-3.45,4.427,1.842,6.869,6.122,6.422,11.255C179.682,264.461,179.68,264.624,179.667,264.9ZM162.21,280.465c4.9,0,9.794.032,14.69-.01a6.695,6.695,0,0,0,1.393-13.277c-1.366-.309-1.6-.735-1.242-2.229a8.179,8.179,0,0,0-15.018-6.128c-.8,1.334-1.009,1.4-2.464.781a5.9,5.9,0,0,0-8.021,3.322,1.744,1.744,0,0,1-2.359,1.248,8.049,8.049,0,0,0-8.435,3.583,7.85,7.85,0,0,0-.344,8.326,7.935,7.935,0,0,0,7.356,4.371C152.581,280.5,157.4,280.465,162.21,280.465Z" transform="translate(-136.942 -252.19)" fill="#fbfefe"/>
</svg>
