<svg xmlns="http://www.w3.org/2000/svg" width="80.891" height="70.345" viewBox="0 0 80.891 70.345">
  <g id="Grupo_1221" data-name="Grupo 1221" transform="translate(-710.444 -334.51)">
    <path id="Caminho_2451" data-name="Caminho 2451" d="M787.644,370.309l-11.065,7.837c-.453.321-.912.631-1.358.963-.886.659-1.941,1.008-2.438-.208-.229-.561.335-1.723.826-2.351a11.494,11.494,0,0,1,2.335-1.771c-3.632-2.583-7.077-5.05-10.553-7.465a1.167,1.167,0,0,0-1.1.061c-3.534,2.458-7.04,4.962-10.723,7.574,3.6,2.567,6.992,5.028,10.444,7.39.355.242,1.126.04,1.582-.214a30.964,30.964,0,0,1,2.767-1.806,1.845,1.845,0,0,1,1.819.46c.264.446-.069,1.384-.29,2.048-.1.3-.558.46-.859.674-5.081,3.6-10.186,7.168-15.235,10.823a4.842,4.842,0,0,1-6.338-.041q-15.745-11.407-31.554-22.71c-.535-.385-1.092-.735-1.819-1.221.09,3.322-.011,6.417,3.3,7.858.38.165.884.44.995.789a3.321,3.321,0,0,1,.154,2.069,1.64,1.64,0,0,1-1.655.4c-2.77-1.626-5.478-3.257-5.48-7.451a58.855,58.855,0,0,0-.874-7.746,5.371,5.371,0,0,1,2.237-5.533q17.524-12.567,35.026-25.169a4.454,4.454,0,0,1,5.71-.045q17.727,12.589,35.467,25.155a5.357,5.357,0,0,1,2.308,5.5c-.383,2.965-.713,5.94-1.014,8.916a5.878,5.878,0,0,1-2.518,4.492q-17.07,12.069-34.107,24.193a4.647,4.647,0,0,1-6.022-.061q-12.675-9.174-25.4-18.266c-.9-.644-1.839-1.34-1.039-2.629s1.774-.629,2.664.011c8.219,5.9,16.466,11.763,24.631,17.752,1.585,1.162,2.719,1.224,4.337.059,10.316-7.426,20.617-14.887,31.121-21.993C786.964,376.592,787.8,374.063,787.644,370.309Zm-39.423,4.637L736.9,366.912l-11.179,7.94,11.25,8.082Zm-22.469-19.753c3.645,2.594,7.041,5.031,10.47,7.413a1.33,1.33,0,0,0,1.252.078c3.54-2.443,7.042-4.949,10.756-7.583-3.7-2.636-7.186-5.151-10.721-7.581-.3-.209-1.029,0-1.408.263C732.723,350.156,729.379,352.585,725.752,355.193Zm27.827-.089c3.707,2.633,7.207,5.135,10.736,7.591a1.165,1.165,0,0,0,1.106.03c3.471-2.407,6.912-4.866,10.568-7.458-3.709-2.635-7.2-5.133-10.725-7.584a1.188,1.188,0,0,0-1.125-.033C760.666,350.057,757.224,352.517,753.579,355.1Zm-19.333,9.919c-3.692-2.622-7.13-5.087-10.606-7.487a1.336,1.336,0,0,0-1.25.1c-2.678,1.862-5.338,3.756-7.963,5.705-1.5,1.112-1.495,2.247.006,3.366q3.857,2.877,7.807,5.606a1.522,1.522,0,0,0,1.407.159C727.129,370.094,730.563,367.631,734.246,365.022Zm33.308.01c3.653,2.6,7.037,5.032,10.467,7.39a1.5,1.5,0,0,0,1.4-.1q3.958-2.7,7.832-5.534c1.609-1.18,1.627-2.325.053-3.482q-3.869-2.843-7.831-5.535a1.647,1.647,0,0,0-1.547-.065C774.543,360.029,771.2,362.438,767.555,365.032Zm-5.338-.005c-3.682-2.618-7.081-5.064-10.521-7.441a1.515,1.515,0,0,0-1.421-.1c-3.532,2.423-7.018,4.924-10.7,7.531,3.671,2.611,7.11,5.087,10.593,7.489a1.511,1.511,0,0,0,1.431.011C755.089,370.12,758.532,367.644,762.217,365.027Zm-.222-19.694c-3.58-2.537-6.915-4.955-10.32-7.251a2.087,2.087,0,0,0-1.963-.033c-3.347,2.276-6.619,4.681-10.066,7.154,3.627,2.582,7.071,5.053,10.547,7.472a1.352,1.352,0,0,0,1.26.124C754.927,350.393,758.362,347.921,761.994,345.333Zm-22.377,39.5c3.464,2.484,6.787,4.907,10.165,7.237a1.765,1.765,0,0,0,1.665.037c3.476-2.358,6.9-4.813,10.527-7.375-3.609-2.57-6.946-4.984-10.335-7.308a1.664,1.664,0,0,0-1.569.047C746.624,379.829,743.227,382.272,739.618,384.831Z" fill="#fff"/>
    <path id="Caminho_2452" data-name="Caminho 2452" d="M742.57,406.76c.3,1.31,1.23,3.052.747,3.643-1.719,2.106-2.872-.492-4.441-.976-1.526.122-2.654,3.383-4.558.969-.447-.566.491-2.224,1.047-3.354-.553-1.024-2.655-1.93-1-3.564,1.741-1.722,2.858.628,4.369,1.175,1.517-.2,2.666-3.358,4.563-.982C743.745,404.232,742.8,405.908,742.57,406.76Z" transform="translate(-13.189 -41.94)" fill="#fff"/>
    <path id="Caminho_2453" data-name="Caminho 2453" d="M889.555,407.149c-.838-1.179-2.978-1.931-1.474-3.573,1.831-2,2.943.635,4.636,1.031,1.357-.232,2.42-3.189,4.366-1.12,1.372,1.459-.3,2.383-.814,2.89.361,1.606,1.321,3.438.811,4.054-1.712,2.069-2.854-.654-4.441-1.023-1.476.272-2.555,3.219-4.472,1.127C886.846,409.093,888.391,408.12,889.555,407.149Z" transform="translate(-116.553 -41.921)" fill="#fff"/>
    <path id="Caminho_2454" data-name="Caminho 2454" d="M814.572,410.942c-3.391.025-6.006-2.227-6.018-5.181s2.611-5.242,5.987-5.23c3.294.012,5.805,2.186,5.879,5.093C820.5,408.637,817.99,410.917,814.572,410.942Zm-.043-7.605-2.46,2.348c.841.588,1.661,1.59,2.532,1.636.73.039,1.52-1.037,2.283-1.619Z" transform="translate(-63.668 -40.643)" fill="#fff"/>
    <path id="Caminho_2455" data-name="Caminho 2455" d="M813.572,350.319c3.458.026,5.9,2.255,5.818,5.3-.082,2.9-2.609,5.088-5.881,5.1-3.308.013-5.99-2.353-5.971-5.267C807.557,352.492,810.141,350.293,813.572,350.319Zm-.155,7.547,2.441-2.275c-.741-.589-1.5-1.665-2.219-1.643-.879.027-1.728.98-2.591,1.532Z" transform="translate(-63.007 -8.948)" fill="#fff"/>
    <path id="Caminho_2456" data-name="Caminho 2456" d="M814.433,461.233c-3.4-.03-5.968-2.345-5.879-5.3.085-2.852,2.657-5.071,5.912-5.1,3.352-.031,5.967,2.27,5.959,5.243C820.417,459.086,817.886,461.263,814.433,461.233Zm.15-2.716,2.312-2.479c-.789-.555-1.578-1.545-2.368-1.546-.818,0-1.638.958-2.457,1.5Z" transform="translate(-63.667 -71.61)" fill="#fff"/>
  </g>
</svg>
