<svg xmlns="http://www.w3.org/2000/svg" width="97.22" height="97.194" viewBox="0 0 97.22 97.194">
  <g id="Grupo_1223" data-name="Grupo 1223" transform="translate(4.903 -295.775) rotate(25)">
    <path id="Caminho_2474" data-name="Caminho 2474" d="M163.129,272.647c0-3.8-.007-7.425,0-11.048.008-2.917,1.59-4.516,4.506-4.518q17.454-.013,34.908,0a4.584,4.584,0,0,1,4.594,6.22c-.111.36-.683.858-.972.816a1.572,1.572,0,0,1-1.052-.9,7.049,7.049,0,0,1-.1-1.842c-.074-1.481-.641-2.055-2.131-2.065-3.052-.021-6.1-.007-9.156-.007q-12.876,0-25.752,0c-2.247,0-2.672.419-2.672,2.677q-.007,15.38,0,30.759c0,.382,0,.763,0,1.145,0,.821-.123,1.639-1.173,1.585-.948-.049-1.006-.828-1.005-1.594q.012-8.584,0-17.167c0-.52,0-1.041,0-1.758-1.4.363-2.676.678-3.941,1.023q-3.376.919-6.744,1.87c-1.694.479-1.977.983-1.5,2.714q2.817,10.331,5.653,20.658,3.417,12.462,6.841,24.922c.525,1.912.958,2.169,2.855,1.652,9.179-2.5,18.357-5.013,27.528-7.794h-1.392q-12.161,0-24.321,0c-3.533,0-4.972-1.421-4.974-4.9,0-5.055,0-10.11-.005-15.165,0-.8.187-1.585,1.1-1.436.422.069.779.852,1.053,1.37.138.262.028.655.028.989q0,6.8,0,13.591c0,.334-.006.668,0,1,.041,1.78.557,2.309,2.3,2.348.572.013,1.144,0,1.717,0q16.381,0,32.762,0c2.614,0,2.942-.335,2.942-3,0-14.592-.033-29.185.057-43.777.008-1.3-1.079-3.755,1.071-3.764,1.992-.008.688,2.4,1.028,3.687a7.3,7.3,0,0,1,.021,1.693c3.273.906,6.512,1.812,9.756,2.7,4.943,1.349,5.493,2.3,4.145,7.181q-2.792,10.116-5.568,20.237c-.025.092-.034.188-.058.28-.2.793-.516,1.549-1.529,1.236-.921-.284-.783-1.025-.574-1.773.754-2.7,1.477-5.419,2.218-8.127q1.865-6.818,3.736-13.633c.539-1.971.281-2.441-1.671-2.977q-4.543-1.248-9.095-2.47c-.4-.109-.816-.191-1.361-.317V276.8q0,19.171,0,38.341c0,3.4-1.459,4.844-4.886,4.847a6.922,6.922,0,0,0-4.481,1.149c-1.423,1.023-3.47,1.182-5.247,1.709a12.274,12.274,0,0,0-2.744,1.034c1.779.5,3.555,1.009,5.336,1.5q4.337,1.192,8.681,2.363c2.116.572,2.494.355,3.058-1.7q2.337-8.539,4.677-17.076c.088-.321.076-.752.284-.941a8.606,8.606,0,0,1,1.4-.882c.217.507.712,1.081.608,1.509-.756,3.1-1.63,6.165-2.474,9.24-.819,2.983-1.65,5.963-2.472,8.945-.8,2.9-2.473,3.888-5.329,3.1-5.692-1.562-11.373-3.165-17.08-4.67a5.633,5.633,0,0,0-2.753.014c-5.706,1.5-11.388,3.1-17.08,4.662-2.782.762-4.524-.225-5.282-2.992q-6.321-23.065-12.635-46.133c-.695-2.539.28-4.283,2.837-5C155.414,274.751,159.22,273.722,163.129,272.647Z" fill="#fff"/>
    <path id="Caminho_2475" data-name="Caminho 2475" d="M250.44,343.942v3.1a10.007,10.007,0,0,1,2.311.043c.53.132.96.662,1.434,1.015-.445.383-.876,1.076-1.338,1.1-2.376.112-4.762.112-7.138,0-.476-.022-.922-.687-1.382-1.055.46-.367.87-.921,1.39-1.056a9.839,9.839,0,0,1,2.339-.045v-2.753a22.04,22.04,0,0,1-4.241.467,6.07,6.07,0,0,1-5.391-5.114,6.163,6.163,0,0,1,3.412-6.624,1.725,1.725,0,0,0,1.177-1.773,6.264,6.264,0,0,1,12.51.106c.04.69.066,1.163.862,1.53a6.159,6.159,0,0,1,3.241,8.22,6.274,6.274,0,0,1-8.373,3.208C251.039,344.217,250.829,344.116,250.44,343.942Zm2.9-12.152a4.1,4.1,0,0,0-4.3-4.233,4.03,4.03,0,0,0-3.785,4.845c.213,1.266.087,1.93-1.362,2.185a3.966,3.966,0,0,0-3.377,3.863,4.118,4.118,0,0,0,7.563,2.388c.96-1.261,1.409-1.273,2.342,0a4.188,4.188,0,0,0,3.214,1.866,4.072,4.072,0,0,0,4.3-3.54,3.94,3.94,0,0,0-3.18-4.538c-1.38-.281-1.95-.822-1.479-2.216A2.447,2.447,0,0,0,253.343,331.79Z" transform="translate(-64.092 -48.757)" fill="#fff"/>
    <path id="Caminho_2476" data-name="Caminho 2476" d="M314.709,423.739c-.09.27-.17.543-.27.809-.96,2.53-1.876,5.078-2.921,7.573-.235.562-.925,1.3-1.4,1.293s-1.132-.759-1.367-1.326c-1.035-2.5-1.937-5.052-2.907-7.578-.278-.724-.462-1.438.435-1.8s1.379.227,1.555.986c.227.981.845,1.087,1.684,1.038,1.3-.076,2.817.422,3.226-1.571.049-.236.768-.47,1.171-.462a4.612,4.612,0,0,1,1.353.459Zm-4.728,5.6.32.018.813-2.359h-1.979Z" transform="translate(-112.121 -118.167)" fill="#fff"/>
    <path id="Caminho_2477" data-name="Caminho 2477" d="M225.321,283.561c-.233.246-.512.791-.839.822a1.867,1.867,0,0,1-1.259-.576c-.406-.4-.589-1.291-.987-1.37a9.8,9.8,0,0,0-3.123-.007c-.285.038-.418.786-.743,1.067a10.067,10.067,0,0,1-1.5.916c-.169-.554-.615-1.2-.463-1.646.942-2.74,1.986-5.448,3.083-8.131a1.736,1.736,0,0,1,1.2-.973,1.675,1.675,0,0,1,1.249.9c1.127,2.773,2.152,5.588,3.207,8.391C225.2,283.084,225.227,283.225,225.321,283.561Zm-3.564-3.46-1.036-2.734-1.014,2.734Z" transform="translate(-48.415 -11.842)" fill="#fff"/>
  </g>
</svg>
