<svg xmlns="http://www.w3.org/2000/svg" width="73.751" height="71.326" viewBox="0 0 73.751 71.326">
  <g id="Grupo_1203" data-name="Grupo 1203" transform="translate(13.971 -68.242)">
    <g id="Grupo_1176" data-name="Grupo 1176" transform="translate(10.924 68.242) rotate(30)">
      <path id="Caminho_2359" data-name="Caminho 2359" d="M50.027,6.386c1.289,0,2.422-.015,3.554,0a2.573,2.573,0,0,1,2.824,2.8q.013,17.121-.007,34.243a6.274,6.274,0,0,1-6.29,6.335q-21.91.052-43.821,0A6.289,6.289,0,0,1,.011,43.3q-.026-20.2,0-40.408C.008.952,1.024.006,3.077,0Q20.144,0,37.21,0c3.266,0,6.533-.007,9.8,0,2.061.007,3,.97,3.017,3.05C50.033,4.114,50.027,5.173,50.027,6.386Zm.092,2.626a2.322,2.322,0,0,0-.079.348q-.008,15.86-.018,31.719a.928.928,0,0,0,.821,1.081A1.168,1.168,0,0,1,51.859,43.7a1.286,1.286,0,0,1-1.629.939,3.122,3.122,0,0,1-2.667-2.569,10.22,10.22,0,0,1-.095-1.645q-.007-18.172,0-36.345V2.655H2.628c-.022.362-.055.649-.055.937q0,19.659,0,39.319c0,2.85,1.489,4.293,4.39,4.294q21.256.009,42.513,0c2.928,0,4.362-1.462,4.363-4.433q.01-16.3,0-32.6c0-.385-.036-.771-.056-1.159Z" transform="translate(0)" fill="#fff"/>
      <path id="Caminho_2360" data-name="Caminho 2360" d="M7.729,0c2.017,0,4.034-.013,6.051,0C15,.02,15.434.448,15.439,1.678q.022,6.051,0,12.1c-.005,1.21-.46,1.654-1.685,1.658q-6.051.022-12.1,0C.435,15.433.013,14.991.01,13.754Q-.009,7.7.01,1.651C.015.417.427.02,1.678.009,3.695-.008,5.712,0,7.729,0ZM2.586,12.793H12.8V2.638H2.586Z" transform="translate(7.668 14.051)" fill="#fff"/>
      <path id="Caminho_2361" data-name="Caminho 2361" d="M17.2,2.565q-7.491,0-14.982,0a8.2,8.2,0,0,1-1.1-.037A1.156,1.156,0,0,1,0,1.265,1.178,1.178,0,0,1,1.18.054,8.079,8.079,0,0,1,2.06.032q15.257,0,30.514,0c.33,0,.751-.1.97.058.424.313,1.006.774,1.015,1.184s-.551.905-.972,1.211c-.247.18-.711.076-1.077.077Q24.854,2.567,17.2,2.565Z" transform="translate(7.703 7.642)" fill="#fff"/>
      <path id="Caminho_2362" data-name="Caminho 2362" d="M7.737,2.539c-2.015,0-4.029.01-6.043,0C.593,2.527-.067,2.04.005,1.254.1.226.821,0,1.731,0,5.724.015,9.716,0,13.708.01c1.114,0,1.727.467,1.674,1.28-.069,1.067-.824,1.255-1.713,1.252C11.692,2.534,9.714,2.539,7.737,2.539Z" transform="translate(26.947 14.049)" fill="#fff"/>
      <path id="Caminho_2363" data-name="Caminho 2363" d="M7.625,2.531c-2.014,0-4.029-.008-6.043,0C.691,2.54,0,2.216,0,1.265S.7,0,1.586,0q6.1.014,12.2,0c.875,0,1.574.281,1.574,1.266s-.706,1.265-1.578,1.263Q10.7,2.527,7.625,2.531Z" transform="translate(26.966 20.435)" fill="#fff"/>
      <path id="Caminho_2364" data-name="Caminho 2364" d="M7.623,2.531c-2.014,0-4.029-.009-6.043,0C.688,2.54,0,2.215,0,1.264S.7,0,1.587,0q6.1.014,12.2,0c.873,0,1.576.282,1.572,1.268s-.705,1.264-1.579,1.261C11.725,2.527,9.674,2.531,7.623,2.531Z" transform="translate(26.966 26.815)" fill="#fff"/>
      <path id="Caminho_2365" data-name="Caminho 2365" d="M7.741,2.534c-2.051,0-4.1-.009-6.153,0C.7,2.545.006,2.222,0,1.273S.692,0,1.578,0q6.1.01,12.2,0c.869,0,1.579.274,1.579,1.263s-.693,1.273-1.57,1.271C11.77,2.53,9.755,2.534,7.741,2.534Z" transform="translate(26.967 33.195)" fill="#fff"/>
      <path id="Caminho_2366" data-name="Caminho 2366" d="M7.72,2.535c-2.015,0-4.029.009-6.044,0C.587,2.524-.068,2.026.006,1.235.1.267.765,0,1.636,0,5.665.007,9.695,0,13.723.008c1.116,0,1.722.48,1.657,1.3-.084,1.063-.839,1.24-1.728,1.235C11.675,2.527,9.7,2.535,7.72,2.535Z" transform="translate(26.948 39.576)" fill="#fff"/>
      <path id="Caminho_2367" data-name="Caminho 2367" d="M7.607,2.535c-1.978,0-3.956-.008-5.934,0C.771,2.543,0,2.32,0,1.262S.8,0,1.691,0C5.684,0,9.676,0,13.669.006c1.106,0,1.765.486,1.7,1.271-.088,1.027-.8,1.273-1.716,1.264C11.637,2.521,9.622,2.535,7.607,2.535Z" transform="translate(7.713 33.195)" fill="#fff"/>
      <path id="Caminho_2368" data-name="Caminho 2368" d="M7.616,2.533c-2.015,0-4.029,0-6.044,0C.7,2.537,0,2.25,0,1.266S.71,0,1.577,0q6.1,0,12.2,0c.881,0,1.585.307,1.58,1.27S14.66,2.542,13.77,2.537C11.718,2.524,9.667,2.533,7.616,2.533Z" transform="translate(7.711 39.577)" fill="#fff"/>
    </g>
  </g>
</svg>
