<svg xmlns="http://www.w3.org/2000/svg" width="91.562" height="81.53" viewBox="0 0 91.562 81.53">
  <g id="Grupo_1204" data-name="Grupo 1204" transform="translate(22.316 -66.361)">
    <g id="Grupo_1177" data-name="Grupo 1177" transform="matrix(0.966, -0.259, 0.259, 0.966, -22.316, 86.487)">
      <path id="Caminho_2369" data-name="Caminho 2369" d="M68.733,26.011c0,5.55.017,10.81-.035,16.069,0,.379-.446.839-.8,1.117a3.68,3.68,0,0,0-1.221,4.714,2.628,2.628,0,0,1-.039,1.433,21.074,21.074,0,0,0-.619,2.165c-.315,3.021-.57,6.049-.806,9.078-.147,1.88.734,2.874,2.613,2.944,1.416.053,2.837.056,4.252,0a2.453,2.453,0,0,0,2.583-2.993c-.259-3.078-.515-6.157-.875-9.224a16.269,16.269,0,0,0-.9-2.862c1.207-2.5,1-3.358-1.371-5.524a1.549,1.549,0,0,1-.4-1.036c-.025-5.318-.039-10.636.022-15.953a1.993,1.993,0,0,1,.885-1.3,10.166,10.166,0,0,1,2.073-.922c2.229-.864,3.685-2.346,3.667-4.855-.017-2.434-1.455-3.837-3.6-4.748-7.545-3.2-15.068-6.45-22.6-9.68-2.65-1.136-5.3-2.262-7.952-3.406a11.427,11.427,0,0,0-9.425-.011Q18.841,7.6,3.488,14.157C1.394,15.051.026,16.467,0,18.828c-.026,2.428,1.334,3.907,3.5,4.813,3.453,1.444,6.863,3,10.333,4.4a2.04,2.04,0,0,1,1.573,2.312c-.123,2.069.052,4.155-.051,6.227-.2,3.916,1.55,6.822,4.546,9.1,4.03,3.059,8.707,4.451,13.638,5.08A37.058,37.058,0,0,0,53.054,48.4a24.435,24.435,0,0,0,4.962-2.892A9.977,9.977,0,0,0,62.4,36.653c-.1-2.224.015-4.457-.034-6.684a1.5,1.5,0,0,1,1.068-1.719C65.129,27.611,66.777,26.846,68.733,26.011ZM65.8,24.343l.055.3c-.451.214-.9.445-1.355.642-7.064,3.03-14.152,6.007-21.187,9.105a10.443,10.443,0,0,1-8.925-.022c-7.033-3.1-14.121-6.078-21.186-9.107-2.975-1.275-5.945-2.56-8.923-3.829a2.63,2.63,0,0,1,.012-5.07q.489-.207.977-.417C15.032,11.76,24.809,7.613,34.544,3.37a10.165,10.165,0,0,1,8.635-.012c6.944,3.052,13.938,5.991,20.911,8.978,3.161,1.354,6.332,2.685,9.475,4.082,1.849.822,2.571,2.87,1.269,4.017-1.539,1.357-3.411,2.477-5.612,2.116q-9.734-1.6-19.438-3.381c-2.238-.41-4.37-.616-6.317-2.519-2.214-2.164-5.461-1.764-8.338-.641A3.1,3.1,0,0,0,32.8,18.893a3.093,3.093,0,0,0,2.323,2.887,9.224,9.224,0,0,0,8.713-.664,2.411,2.411,0,0,1,1.514-.306c2.451.365,4.891.809,7.332,1.235Q59.241,23.189,65.8,24.343ZM17.962,39.329c1.794,1.17,3.531,2.383,5.365,3.427.36.205,1.093-.246,1.655-.394-.179-.516-.222-1.167-.569-1.516a9.3,9.3,0,0,0-1.8-1.1c-3.642-2.235-5.6-5.3-4.771-9.88.49.179.955.325,1.4.516,4.791,2.05,9.6,4.052,14.358,6.18a12.293,12.293,0,0,0,10.56,0c4.711-2.1,9.476-4.086,14.22-6.116.492-.211,1-.395,1.575-.623.428,3.124.048,5.863-2.3,7.932A19.858,19.858,0,0,1,53.7,40.547c-5.465,2.818-11.35,3.514-17.409,3.16a11.221,11.221,0,0,0-2.416-.088,1.579,1.579,0,0,0-1.02,1.028c-.066.3.432.813.788,1.089a2.03,2.03,0,0,0,1.029.192c9.115.641,17.776-.421,25.167-6.629a9.55,9.55,0,0,1-1.823,3.008,20.22,20.22,0,0,1-4.5,3.293c-6.58,3.269-13.584,3.753-20.745,2.688a24.915,24.915,0,0,1-11.112-4.2A8.884,8.884,0,0,1,17.962,39.329Zm49.524,21.8c.3-3.348.532-6.52.938-9.669a2.166,2.166,0,0,1,1.386-1.434,1.84,1.84,0,0,1,1.511,1.02c.448,3.325.724,6.673,1.068,10.164-1.351,0-2.453.006-3.555,0C68.44,61.206,68.045,61.166,67.486,61.133ZM35.141,18.892c2.033-1.8,5.935-1.722,7.386.077A5.876,5.876,0,0,1,35.141,18.892Zm34.77,29.139c-.584-.822-1.262-1.375-1.177-1.758.115-.515.819-.9,1.27-1.339.392.445,1.061.87,1.1,1.341C71.132,46.721,70.5,47.216,69.911,48.031Z" transform="translate(0 0)" fill="#fff"/>
      <path id="Caminho_2370" data-name="Caminho 2370" d="M3.617,3.035c.313-.33.849-.65.939-1.065a1.371,1.371,0,0,0-.6-1.184A10.792,10.792,0,0,0,1.064,0,1.364,1.364,0,0,0,.018.817a1.363,1.363,0,0,0,.51,1.221A24.485,24.485,0,0,0,3.617,3.035Z" transform="translate(26.67 42.257)" fill="#fff"/>
    </g>
  </g>
</svg>
