<svg xmlns="http://www.w3.org/2000/svg" width="93.555" height="94.063" viewBox="0 0 93.555 94.063">
  <g id="Grupo_1216" data-name="Grupo 1216" transform="translate(18.174 -49.917)">
    <path id="Caminho_2442" data-name="Caminho 2442" d="M36.853,10.563a14.178,14.178,0,0,1,3.506-8.012C42.456.3,44.9-.9,48.045.292A1.708,1.708,0,0,0,49.233.23C56.172-2.9,66.908,2.058,67.4,12.681a5.293,5.293,0,0,1-2.486,4.875,2.324,2.324,0,0,0-.853,1.621c-.149,5.561-.263,6-3.473,10.639,2.039.93,4.049,1.852,6.063,2.764,5.024,2.275,7.613,6.159,7.636,11.733q.052,12.369.087,24.738c.008,3.786-1.926,5.773-5.632,5.762q-31.626-.1-63.252-.229C1.771,74.568-.188,72.578-.2,68.8-.264,55.041-.291,41.28-.369,27.518a8.365,8.365,0,0,1,2.713-6.571,2.613,2.613,0,0,0,.741-1.482C4.13,11.214,8.642,5.792,16.45,3.547s14.528-.078,19.8,6.356C36.383,10.063,36.531,10.21,36.853,10.563Zm7.408,22.844-.716.311c1.72,2.657,3.7,5.177,3.655,8.521-.049,3.319.077,6.627-1.976,9.565.5.236.873.426,1.257.589,4.027,1.71,5.811,4.4,5.841,8.837.015,2.194.018,4.388.026,6.582l.013,3.544c5.755.021,11.254.058,16.752.049,1.4,0,1.916-.9,1.91-2.222-.037-8.455-.032-16.909-.114-25.364a8.065,8.065,0,0,0-4.03-7.241c-2.091-1.228-4.379-2.111-6.658-3.184-.35.569-.637,1-.892,1.452-1.749,3.1-3.482,6.215-5.241,9.312-1.122,1.975-2.512,1.977-3.644,0-1.811-3.154-3.592-6.326-5.391-9.487C44.8,34.242,44.525,33.829,44.261,33.407ZM26.492,45.758c-.871,1.538-1.711,3.193-2.721,4.734-.483.737-1.334,1.794-1.938,1.738-.758-.07-1.638-1.007-2.108-1.788-2.034-3.381-3.938-6.841-5.936-10.356-1.94.869-3.772,1.666-5.584,2.506a8.211,8.211,0,0,0-5.091,7.82c-.07,6.153,0,12.309.046,18.465.012,1.729.59,2.294,2.332,2.308,4.607.038,9.214.041,13.821.058l2.514.009c0-.69,0-1.21-.006-1.73-.009-3-.059-6-.019-8.992a8.335,8.335,0,0,1,5.278-8.017c.563-.255,1.136-.487,1.5-.645ZM40.241,31.936a40.256,40.256,0,0,0-.1-5.6,4.647,4.647,0,0,0-1.7-2.744,3.851,3.851,0,0,1-1.625-3.064c-.52-5.4-2.863-9.742-7.709-12.411C19,2.551,7.331,9.037,6.385,20.66a3.639,3.639,0,0,1-1.142,2.39A5.213,5.213,0,0,0,3,27.557c.031,4.339.034,8.678.056,13.017a7.925,7.925,0,0,0,.072.836l9.96-4.921c-.919-1.735-2.268-3.38-2.652-5.223a41.016,41.016,0,0,1-.516-8.285c0-.5.943-1.332,1.544-1.425a3.871,3.871,0,0,0,3.331-2.776,33.5,33.5,0,0,1,1.675-4.145c.345-.667,1.079-1.515,1.68-1.547a2.6,2.6,0,0,1,1.813,1.381,11.958,11.958,0,0,0,11.078,7.1c2.008.064,2.51.467,2.459,2.449-.075,2.886-.268,5.769-.391,8.247ZM30.228,55.042c-4.136,1.347-5.029,2.578-5.015,6.839q.006,1.845.013,3.689l.02,5.606,23.694.086c-.011-3.168-.022-6.252-.034-9.335-.016-4.217-1-5.549-5.028-6.81-1.607,4.236-3.55,5.867-6.92,5.809C33.625,60.868,31.575,59.1,30.228,55.042Zm29.278-40.22c.859,0,1.388.01,1.918.006,2.215-.016,2.709-.572,2.513-2.823a10.294,10.294,0,0,0-8.294-9.019c-2.069-.357-4.074-.484-5.885,1.028a2.437,2.437,0,0,1-2.134-.009c-2.117-1.044-3.369-.911-4.865.932a10.627,10.627,0,0,0-2.47,7.253c.073,2.262,1.243,3.13,3.3,2.213a7.351,7.351,0,0,0,2.2-1.738,21.827,21.827,0,0,0,1.436-2.1c.867-1.172,2.074-1.3,2.906-.151A10.213,10.213,0,0,0,59.506,14.822Zm-40.7,4.347c-1.274,1.613-2.206,3.726-3.8,4.575-1.957,1.041-1.894,2.349-1.822,3.98.187,4.194,2.472,7.262,6.135,8.258,6.664,1.811,11.921-3.529,10.67-10.84C22.474,22.936,22.474,22.936,18.81,19.169ZM43.8,44.02l-.081,0c0-.8.045-1.606-.017-2.4a6.581,6.581,0,0,0-6.807-6.238,6.428,6.428,0,0,0-6.607,6.177A35.49,35.49,0,0,0,30.3,46.2a6.786,6.786,0,0,0,6.4,6.22A6.716,6.716,0,0,0,43.643,46.9,25.845,25.845,0,0,0,43.8,44.02Zm5.51-29.378c-1.823,1.155-3.449,2.155-5.034,3.218a1.366,1.366,0,0,0-.567.966,20.834,20.834,0,0,0,.3,4.3,7.762,7.762,0,0,0,6.342,6.221c6.558,1.361,11.6-4.134,10.053-11.152C56.123,18.533,52.178,17.513,49.306,14.642ZM26.2,39.281a14.31,14.31,0,0,1-9.151-.352l4.694,8.259Zm30.731-7.158a12.455,12.455,0,0,1-9.4.026l4.721,8.3ZM34.024,55.7a3.364,3.364,0,0,0,3.348,1.835A2.711,2.711,0,0,0,39.9,55.718Z" transform="translate(4.052 50.691) rotate(17)" fill="#fcfcfc"/>
  </g>
</svg>
