<svg xmlns="http://www.w3.org/2000/svg" width="73.266" height="76.518" viewBox="0 0 73.266 76.518">
  <g id="Grupo_1210" data-name="Grupo 1210" transform="translate(12.434 -64.164)">
    <g id="Grupo_1184" data-name="Grupo 1184" transform="translate(-12.434 89.355) rotate(-30)">
      <g id="Grupo_1183" data-name="Grupo 1183" transform="translate(0 0)">
        <path id="Caminho_2396" data-name="Caminho 2396" d="M0,29.6Q0,16.811,0,4.024C0,1.107,1.125,0,4.075,0H46.431c2.782,0,3.949,1.153,3.949,3.917q0,25.749,0,51.5c0,2.68-1.192,3.85-3.9,3.851q-21.293,0-42.587,0c-2.7,0-3.89-1.172-3.891-3.86Q0,42.5,0,29.6Zm48.613.157q0-12.958,0-25.915c0-1.678-.386-2.093-2.01-2.094q-21.4-.009-42.806,0c-1.638,0-2.025.41-2.025,2.078q0,25.8,0,51.6c0,1.711.384,2.1,2.125,2.1q21.287.006,42.575,0c1.787,0,2.142-.372,2.142-2.2Q48.615,42.541,48.613,29.757Z" fill="#fff"/>
        <path id="Caminho_2397" data-name="Caminho 2397" d="M18.473,25.561c1.032-.8,2.088-1.563,3.078-2.407a1.5,1.5,0,0,0,.366-1.005c.042-1.31.022-2.622.016-3.934,0-.636.16-1.305.878-1.189a1.546,1.546,0,0,1,.851,1.2c.063,4.281.03,8.563.045,12.844,0,.919-.373,1.334-1.311,1.333-7.059-.013-14.118,0-21.177-.014-1.124,0-1.426-.443-1.091-1.554Q4.619,15.947,9.115,1.064A1.263,1.263,0,0,1,10.508,0q5.959.038,11.919,0C23.3,0,23.706.362,23.7,1.239q-.012,6.48,0,12.961c0,.643-.187,1.3-.9,1.164-.353-.067-.788-.774-.828-1.223-.113-1.263.018-2.546-.071-3.813a2.152,2.152,0,0,0-.657-1.319,12.418,12.418,0,0,0-2.9-1.941l1.313,3.773c.518,1.488.23,1.853-1.373,1.824-1.334-.024-2.67-.005-4.242-.005,1.264.869,2.387,1.635,3.505,2.41,1.312.909,1.305,1.352-.036,2.28-1.1.762-2.207,1.516-3.465,2.378,1.6,0,3,0,4.393,0,1.434-.006,1.72.385,1.245,1.756-.453,1.306-.919,2.608-1.379,3.911ZM21.85,7.235V1.754c-3.355,0-6.629.04-9.9-.025a1.372,1.372,0,0,0-1.6,1.184C7.711,11.776,5.026,20.625,2.358,29.478c-.1.343-.167.7-.254,1.067H21.855V25.2c-.422.305-.73.517-1.027.744-1.256.96-2.485,1.959-3.78,2.863a1.4,1.4,0,0,1-1.213.1c-.211-.107-.235-.717-.219-1.1a3.622,3.622,0,0,1,.313-.987q.922-2.59,1.842-5.165c-1.987,0-3.835.045-5.68-.024-.666-.025-1.695-.131-1.905-.538-.488-.943.618-1.228,1.2-1.643,1.518-1.091,3.076-2.128,4.693-3.238-.37-.274-.58-.438-.8-.589-1.526-1.047-3.073-2.065-4.565-3.159-.312-.228-.68-.88-.568-1.076a1.774,1.774,0,0,1,1.15-.663,9.817,9.817,0,0,1,1.73.021c1.551.007,3.1,0,4.755,0-.709-1.988-1.427-3.894-2.052-5.831a4.311,4.311,0,0,1,.07-1.48,4.222,4.222,0,0,1,1.519.343C18.819,4.845,20.251,6,21.85,7.235Z" transform="translate(22.05 4.62)" fill="#fff"/>
        <path id="Caminho_2398" data-name="Caminho 2398" d="M11.919.012c3.471,0,6.941-.006,10.412,0,1.315,0,1.607.379,1.233,1.617q-4.475,14.825-8.953,29.649a1.335,1.335,0,0,1-1.474,1.126q-5.9-.039-11.8,0C.415,32.407,0,32.03,0,31.094Q.018,16.228,0,1.362C0,.372.4-.009,1.391,0,4.9.031,8.41.012,11.919.012ZM1.794,30.63c3.468,0,6.779-.028,10.089.019a1.238,1.238,0,0,0,1.441-1.062c2.664-8.93,5.373-17.847,8.065-26.768.093-.308.127-.634.21-1.063-2.47,0-4.824.122-7.159-.04-1.737-.12-2.876.732-4.159,1.78C12.1,4.746,13.867,5.906,15.562,7.16a4.814,4.814,0,0,1,.9,1.4,5.356,5.356,0,0,1-1.5.513C12.847,9.13,10.734,9.1,8.5,9.1c.649,1.85,1.318,3.683,1.93,5.535.223.675.933,1.457.041,2.082-.829.58-1.327-.3-1.871-.7-1.6-1.178-3.163-2.41-4.848-3.7-.691,2.41-1.7,4.6-1.879,6.853C1.571,22.907,1.794,26.7,1.794,30.63ZM7.909,13.3l.162-.155c-.5-1.409-1-2.815-1.493-4.227C6.1,7.538,6.368,7.17,7.816,7.176c1.511.006,3.023,0,4.611,0a2.065,2.065,0,0,0-.22-.235Q10.685,5.894,9.16,4.849C7.3,3.574,7.3,3.381,9.164,2.055c.04-.029.032-.126.053-.221H1.877V12.014a1.77,1.77,0,0,0,.386-.738c.462-1.5.863-1.64,2.08-.717C5.537,11.465,6.721,12.384,7.909,13.3Z" transform="translate(4.623 4.619)" fill="#fff"/>
        <path id="Caminho_2399" data-name="Caminho 2399" d="M1.832,1.794V12.951H39.259V1.8H9.922c-.309,0-.675.1-.913-.026A7.184,7.184,0,0,1,7.9.867,10.05,10.05,0,0,1,8.988.051c.175-.1.453-.021.684-.021q14.807,0,29.614,0c1.713,0,1.835.125,1.836,1.841q0,5.668,0,11.337c0,1.414-.173,1.578-1.616,1.578q-18.972,0-37.943,0C.2,14.785.008,14.6.005,13.266Q-.005,7.424,0,1.582C.007.252.221.042,1.549.032c1.2-.009,2.391,0,3.586,0,.636,0,1.3.18,1.177.894-.062.35-.767.778-1.221.83A28.686,28.686,0,0,1,1.832,1.794Z" transform="translate(4.628 39.849)" fill="#fff"/>
      </g>
    </g>
  </g>
</svg>
