<svg xmlns="http://www.w3.org/2000/svg" width="98.503" height="99.008" viewBox="0 0 98.503 99.008">
  <g id="Grupo_1213" data-name="Grupo 1213" transform="translate(22.804 -57.442)">
    <path id="Caminho_2420" data-name="Caminho 2420" d="M44.055,36.364A40.444,40.444,0,0,0,38.92,48.323a61.829,61.829,0,0,0-1.932,15.39,3.343,3.343,0,0,1-.164,1.67,2.428,2.428,0,0,1-1.57,1.1,2.068,2.068,0,0,1-1.438-1.088,4.675,4.675,0,0,1-.21-1.96c-.153-9.288-1.144-18.458-4.243-27.323-.488-1.4-1.1-2.753-1.656-4.124a7.351,7.351,0,0,0-.4-.71,20.052,20.052,0,0,1-8.517,2.057C11.2,33.457,6.178,30.2,3.243,23.146.77,17.2.27,10.934-.01,4.632c-.044-1-.058-2-.027-3A1.52,1.52,0,0,1,1.541-.036c7.664.025,15.272.448,22.482,3.591,9.782,4.264,10.483,13.5,8.589,20.385a34.761,34.761,0,0,1-2.073,4.487A1.92,1.92,0,0,0,30.4,29.8,63.988,63.988,0,0,1,35.28,45.645c.073.407.181.809.367,1.626a24,24,0,0,1,.791-2.465c1.613-3.522,3.221-7.048,4.937-10.519A2.171,2.171,0,0,0,41.5,32.22a19.655,19.655,0,0,1-.986-11.927c1.146-5.281,4.718-8.367,9.494-10.32C55.371,7.78,61.053,7.234,66.79,7.005c1.524-.061,3.053-.045,4.58-.048,1.124,0,1.9.531,1.91,1.684.045,7.169-.206,14.317-2.841,21.076-4.169,10.693-16.645,13.971-25.955,6.89A4.156,4.156,0,0,0,44.055,36.364Zm.3-6.328a.814.814,0,0,0,.251-.119c.264-.271.513-.556.772-.832a38.15,38.15,0,0,1,11.672-8.441c1.01-.477,2-.488,2.6.622.628,1.172-.079,1.814-1.064,2.363-1.942,1.082-3.909,2.142-5.742,3.39a28.781,28.781,0,0,0-6.832,6.575,19.827,19.827,0,0,0,2.029,1.469,15.872,15.872,0,0,0,8.317,1.7c5.1-.16,8.731-2.56,10.516-7.284a45.389,45.389,0,0,0,2.354-8.751c.547-3.39.6-6.866.89-10.567-3.154.192-5.954.269-8.731.554-4.375.449-8.672,1.259-12.515,3.534C43.859,17.222,41.725,24.719,44.358,30.036ZM25.577,28.217a.768.768,0,0,0-.03-.274c-.158-.295-.326-.585-.505-.867A31.09,31.09,0,0,0,17.056,18.5c-1.009-.731-2.043-1.433-3-2.224a1.552,1.552,0,0,1-.332-2.286,1.516,1.516,0,0,1,2.269-.319c4.373,2.93,8.37,6.257,11.277,10.727.287.442.6.863.968,1.38,4.42-8.071,1.258-16.68-7.115-19.86A43.98,43.98,0,0,0,8.073,3.476c-1.547-.1-3.1-.034-4.827-.045.179,2.625.271,5.192.548,7.742C4.268,15.547,5.05,19.864,7.232,23.8,10.62,29.9,19.758,32.095,25.577,28.217Z" transform="translate(26.636 57.507) rotate(48)" fill="#fff"/>
  </g>
</svg>
