<svg xmlns="http://www.w3.org/2000/svg" width="80.402" height="80.332" viewBox="0 0 80.402 80.332">
  <g id="Grupo_1224" data-name="Grupo 1224" transform="matrix(0.985, 0.174, -0.174, 0.985, 12.039, 0)">
    <path id="Caminho_2478" data-name="Caminho 2478" d="M-541.071,314.545a14.418,14.418,0,0,1,4.413,1.139c1.3.667,2.567,1.384,3.954,2.137a9.812,9.812,0,0,0-.009-1.3,19.308,19.308,0,0,0-.91-3.777,29.717,29.717,0,0,1-1.615-5.393,11.933,11.933,0,0,1,1.36-7.4,7.887,7.887,0,0,1,2.146.974c-.143.4-.231.69-.351.969a9.3,9.3,0,0,0-.234,7.07c.351.968.7,1.936,1,2.92.339,1.11.622,2.238.927,3.359.08.295.152.592.248.973l1.659-.7a11.226,11.226,0,0,1,4.046-.872,9.208,9.208,0,0,1,6.621,2.478,14.3,14.3,0,0,1,3.765,5.648,21.64,21.64,0,0,1,1.019,13.444,18.619,18.619,0,0,1-7.277,10.953,4.992,4.992,0,0,0-.424.329,1.644,1.644,0,0,0-.19.276,2.434,2.434,0,0,0,.852.75,23.769,23.769,0,0,1,3.379,2.861,7.345,7.345,0,0,1,1.542,2.182,2.8,2.8,0,0,1-1.03,3.655,8.3,8.3,0,0,1-3.647,1.263,47.418,47.418,0,0,1-9.785.412c-2.237-.117-4.479-.2-6.705-.433-3.161-.327-6.316-.738-9.463-1.184-1.772-.252-3.531-.608-5.28-.987a32.539,32.539,0,0,1-7.625-2.554,17.27,17.27,0,0,1-2.515-1.535,6.5,6.5,0,0,1-2.451-3.442c-.085-.284-.215-.554-.368-.944l-.858.773c-1.2,1.08-2.355,2.2-3.6,3.226a12.535,12.535,0,0,1-4.2,2.335,6.094,6.094,0,0,1-6.705-2.727,4.345,4.345,0,0,1,.517-5.02,12.664,12.664,0,0,1,1.633-1.583c.285-.26.61-.477,1.01-.784l-1.146-.609a10.637,10.637,0,0,1-2.926-2.111,5.045,5.045,0,0,1,.234-7.42c.194-.182.4-.354.642-.572V309.571c0-.448.022-.9,0-1.343a2.642,2.642,0,0,1,.607-1.853c1.908-2.486,3.77-5.008,5.649-7.516.134-.179.261-.365.407-.534a2.28,2.28,0,0,0,.525-1.614c-.021-1.612-.008-3.224,0-4.836a7.954,7.954,0,0,1,.039-1.073,1.186,1.186,0,0,1,1.137-1.124,7.815,7.815,0,0,1,.94-.029q9.881,0,19.762,0a7.622,7.622,0,0,1,.94.03,1.2,1.2,0,0,1,1.134,1.13,7.184,7.184,0,0,1,.029.939c0,1.568.029,3.136-.011,4.7a3.078,3.078,0,0,0,.678,2.1c1.918,2.478,3.754,5.02,5.671,7.5a3.646,3.646,0,0,1,.827,2.469c-.046,1.521-.014,3.045-.01,4.568C-541.1,313.526-541.084,313.969-541.071,314.545Zm-8.862,33.336a15.947,15.947,0,0,1,.846-3.407c.28-1.128.631-2.239.95-3.357s.635-2.222.949-3.324a2.148,2.148,0,0,0-.413-.258c-.815-.242-1.627-.5-2.453-.7a17.3,17.3,0,0,0-5.178-.662,4.766,4.766,0,0,0-4.007,2.331,8.038,8.038,0,0,0-.8,1.547c-.463,1.354-.9,2.719-1.265,4.1a8.15,8.15,0,0,0-.225,2.8,4.271,4.271,0,0,0,1.435,2.944,11.21,11.21,0,0,0,1.848,1.324,25.92,25.92,0,0,0,6.669,2.416A97.249,97.249,0,0,0-541,355.492a8.064,8.064,0,0,0,1.044.006c.594-1.364.775-2.8,1.368-4.142a5,5,0,0,1,2.2.647c-.078,1.33-.836,2.479-.844,3.866.5.07.937.161,1.375.185,2.639.146,5.277.323,7.918.4a41.5,41.5,0,0,0,7.376-.341,8.645,8.645,0,0,0,2.821-.825.562.562,0,0,0,.266-.89,9.612,9.612,0,0,0-1.069-1.369,24.951,24.951,0,0,0-4.089-3.261,1.611,1.611,0,0,0-.429-.118c-.507,1.007-.591,2.148-1.085,3.2a4.2,4.2,0,0,1-2.261-.7c.248-1.4.868-2.668,1.036-4.058a6.687,6.687,0,0,0-1.575-1.066c-2.445-1.313-4.878-2.652-7.356-3.9a96.767,96.767,0,0,0-9.681-4.332,6.756,6.756,0,0,0-.767-.187c-.12.332-.224.575-.3.827-.8,2.705-1.584,5.412-2.385,8.117-.1.33-.25.644-.376.961A4.942,4.942,0,0,1-549.934,347.881ZM-575.617,335c-.2.012-.6.012-1,.069a4.544,4.544,0,0,0-1.037.257,2.577,2.577,0,0,0-1.228,3.8,5.294,5.294,0,0,0,2.365,1.921c1.178.534,2.4.973,3.6,1.448.291.114.6.182.881.32a1.167,1.167,0,0,1,.676,1.077,1.131,1.131,0,0,1-.647,1.09,10.264,10.264,0,0,1-1,.376,10.162,10.162,0,0,0-3.156,1.736,4.121,4.121,0,0,0-1.125,1.482,1.882,1.882,0,0,0,.092,1.678c.514.984,2.468,2.184,3.8,1.573a17.026,17.026,0,0,0,2.265-1.142,33.123,33.123,0,0,0,5.885-5.263,7.088,7.088,0,0,0,2.014-3.7c.088-.525.326-1.023.439-1.546a3.7,3.7,0,0,0,.1-1.183,35.3,35.3,0,0,0-1.735-7.7,12.532,12.532,0,0,0-1.664-3.353,3.435,3.435,0,0,0-3.932-1.232,1.861,1.861,0,0,0-1.374,1.788,5.606,5.606,0,0,0,.2,1.58,9.146,9.146,0,0,0,1.7,3.168,6.714,6.714,0,0,1,.69.984,1.164,1.164,0,0,1-1.064,1.7,5.682,5.682,0,0,1-1.307-.258A17.268,17.268,0,0,0-575.617,335Zm22.53-1.337c0-.376.007-.679,0-.981a25.569,25.569,0,0,1,.3-5.211,20.676,20.676,0,0,1,2.8-7.626,11.087,11.087,0,0,1,5.766-4.789c.205-.071.4-.175.632-.279.022-.378.057-.73.059-1.082.006-1.386.011-2.773,0-4.159-.013-1.723.181-1.241-.882-2.692-1.374-1.875-2.786-3.722-4.186-5.577-.265-.352-.553-.687-.871-1.08-.2.213-.362.361-.493.534-1.643,2.176-3.268,4.366-4.932,6.526a2.838,2.838,0,0,0-.574,1.861c.017,4.963.009,9.927.009,14.891,0,2.817,0,5.634.006,8.451,0,.387-.118.809.248,1.213Zm-4.945-15.214c-.462-.024-.857-.061-1.252-.063-1.344-.008-2.688,0-4.031,0q-6.048,0-12.094,0a2.822,2.822,0,0,0-1.48.183c-.022.233-.058.45-.058.667q-.005,6.311,0,12.624a3.254,3.254,0,0,0,.122.622l3.877.175c-.15-.419-.257-.753-.387-1.078a8,8,0,0,1-.573-2.475,4.46,4.46,0,0,1,2.529-4.5,6.156,6.156,0,0,1,6.517,1.013,11.769,11.769,0,0,1,2.379,3.855,33.391,33.391,0,0,1,1.592,5.4c.076.339.184.67.288,1.046l2.6-1.773C-557.844,332.986-557.852,319.726-558.032,318.451Zm-17.554-12.186a4.9,4.9,0,0,0,.58.092c5.644,0,11.289-.005,16.933.018a1.515,1.515,0,0,0,1.34-.707c1.407-1.91,2.831-3.807,4.244-5.712.126-.169.293-.347.087-.673a5.032,5.032,0,0,0-.583-.06c-5.51,0-11.02.005-16.53-.015a1.626,1.626,0,0,0-1.435.787c-1.324,1.8-2.684,3.582-4.027,5.373C-575.157,305.612-575.318,305.871-575.585,306.265Zm17.647,9.42c.088-1.178.062-2.294.039-3.405a14.47,14.47,0,0,0-.126-3.3,3.592,3.592,0,0,0-1.52-.155q-4.768-.01-9.535,0c-2.193,0-4.387-.006-6.58.006-.388,0-.813-.107-1.146.2a35.338,35.338,0,0,0,.021,6.725,7.972,7.972,0,0,0,.874.119C-570.084,316.05-559.2,315.95-557.938,315.685Zm20.107,6.874a5.7,5.7,0,0,0,5.045,2.889,5.633,5.633,0,0,0,5.027-2.787,3.989,3.989,0,0,0-1.849-1.156c-.193.182-.364.323-.512.485a3.594,3.594,0,0,1-5.258.023c-.177-.19-.39-.345-.632-.556Z" transform="translate(581.806 -289.649)" fill="#fff"/>
    <path id="Caminho_2479" data-name="Caminho 2479" d="M-467.038,328.077a5.937,5.937,0,0,1-4.93-2.53,1.549,1.549,0,0,1,.016-2.2,6.023,6.023,0,0,1,9.618-.18c.056.069.1.146.157.218a1.622,1.622,0,0,1,.042,2.095,5.851,5.851,0,0,1-2.554,2.1A5.777,5.777,0,0,1-467.038,328.077Zm-2.556-3.633a3.052,3.052,0,0,0,2.7,1.135,2.557,2.557,0,0,0,2.29-1.167,2.944,2.944,0,0,0-2.378-1.1A3.147,3.147,0,0,0-469.594,324.444Z" transform="translate(522.647 -306.53)" fill="#fff"/>
  </g>
</svg>
