<svg xmlns="http://www.w3.org/2000/svg" width="91.685" height="92.882" viewBox="0 0 91.685 92.882">
  <g id="Grupo_1212" data-name="Grupo 1212" transform="translate(11.241 -59.424)">
    <g id="Grupo_1196" data-name="Grupo 1196" transform="translate(-11.241 59.424)">
      <path id="Caminho_2423" data-name="Caminho 2423" d="M177.928,248.888c-7.763,0-15.528-.034-23.291.031a2.922,2.922,0,0,1-2.959-1.782q-14.758-27.771-29.559-55.519a5.968,5.968,0,0,1-.644-2.562c-.077-3.021.012-6.047-.047-9.07-.031-1.588.546-2.339,2.182-2.336q20.783.034,41.566-.012c1.411,0,1.968.8,2.539,1.858q13.779,25.628,27.591,51.239,3.9,7.239,7.808,14.475c1.542,2.862,1.084,3.676-2.074,3.677Q189.484,248.891,177.928,248.888Zm-43.19-51.12c1.476,2.753,2.735,5.138,4.03,7.5,1.151,2.1,1.871,5.011,3.645,6.048,1.847,1.08,4.728.358,7.158.4,1.381.025,2.764,0,4.472,0-2.534-4.7-4.828-8.989-7.172-13.247a1.522,1.522,0,0,0-1.1-.681C142.215,197.747,138.657,197.768,134.738,197.768Zm28.318,30.976a6.687,6.687,0,0,0-.226-.68c-1.48-2.762-3.279-5.4-4.371-8.311-1.549-4.126-4.091-5.714-8.373-5a39.289,39.289,0,0,1-6.178.054c2.474,4.6,4.74,8.851,7.063,13.069a1.738,1.738,0,0,0,1.2.831C155.739,228.772,159.3,228.744,163.056,228.744Zm-37.5-48.018c2.513,4.666,4.832,9,7.193,13.3a1.356,1.356,0,0,0,.962.631c3.608.045,7.217.028,11.154.028-2.509-4.654-4.849-9.029-7.246-13.37a1.546,1.546,0,0,0-1.169-.568C132.943,180.707,129.44,180.726,125.552,180.726ZM153.1,231.847c1.553,2.9,2.9,5.438,4.272,7.959,1.064,1.947,1.735,4.638,3.377,5.593,1.719,1,4.389.335,6.643.371,1.558.025,3.117,0,5,0-2.52-4.67-4.813-8.951-7.155-13.2a1.523,1.523,0,0,0-1.089-.693C160.585,231.826,157.027,231.847,153.1,231.847Zm19.871-17.039c2.5,4.633,4.826,8.969,7.183,13.288a1.192,1.192,0,0,0,.794.6c3.184.042,6.368.027,9.774.027-2.453-4.566-4.712-8.82-7.041-13.034a1.9,1.9,0,0,0-1.365-.843C179.331,214.771,176.347,214.808,172.967,214.808Zm-32.119-34.077c2.524,4.689,4.82,8.976,7.153,13.242a1.372,1.372,0,0,0,.922.683c3.123.051,6.247.031,9.7.031-2.51-4.664-4.828-8.994-7.187-13.3a1.348,1.348,0,0,0-.954-.627C147.406,180.712,144.33,180.732,140.848,180.732Zm31.546,13.96c-2.49-4.625-4.762-8.871-7.076-13.093-.2-.367-.67-.819-1.023-.826-3.126-.064-6.255-.037-9.682-.037,2.5,4.646,4.828,8.986,7.194,13.3a1.359,1.359,0,0,0,.967.627C165.859,194.711,168.944,194.691,172.394,194.691ZM167.8,211.716c-2.522-4.674-4.875-9.055-7.263-13.416a1.163,1.163,0,0,0-.852-.506c-3.125-.036-6.25-.022-9.654-.022,2.48,4.61,4.774,8.9,7.116,13.171a1.552,1.552,0,0,0,1.078.74C161.307,211.742,164.391,211.716,167.8,211.716Zm-3.7-13.95a3.009,3.009,0,0,0,.106.744q3.32,6.2,6.672,12.374c.181.332.565.777.861.783,3.178.057,6.357.035,9.816.035-2.492-4.631-4.778-8.919-7.126-13.172a1.705,1.705,0,0,0-1.244-.73C170.208,197.737,167.232,197.767,164.1,197.767Zm-4.889,17.043c2.487,4.625,4.776,8.9,7.1,13.165a1.406,1.406,0,0,0,.907.724c3.13.054,6.262.033,9.74.033-2.525-4.7-4.864-9.073-7.252-13.422a1.378,1.378,0,0,0-1.044-.478C165.636,214.793,162.612,214.809,159.208,214.809Zm-2.245,30.727-32.309-59.968a9.848,9.848,0,0,0,1.042,6.39q14.009,26.006,27.832,52.114C154.321,245.569,155.193,246.153,156.963,245.537Zm11.412-13.692c2.506,4.645,4.806,8.931,7.144,13.2a1.374,1.374,0,0,0,.927.681c3.129.051,6.258.03,9.687.03-2.494-4.629-4.812-8.964-7.184-13.269a1.52,1.52,0,0,0-1.13-.612C174.791,231.823,171.763,231.845,168.375,231.845Zm13.781,0c2.48,4.619,4.795,8.953,7.151,13.264a1.366,1.366,0,0,0,.977.623c3.077.048,6.155.028,9.615.028-2.547-4.726-4.9-9.109-7.288-13.469a1.181,1.181,0,0,0-.894-.427C188.641,231.836,185.565,231.848,182.156,231.848Z" transform="translate(-121.427 -156.037)" fill="#fff"/>
      <path id="Caminho_2424" data-name="Caminho 2424" d="M300.2,164.01A12.4,12.4,0,1,1,312.4,151.622,12.374,12.374,0,0,1,300.2,164.01Zm9.111-12.431a9.155,9.155,0,1,0-9.2,9.31A9.239,9.239,0,0,0,309.307,151.579Z" transform="translate(-228.258 -131.559)" fill="#fff"/>
      <path id="Caminho_2425" data-name="Caminho 2425" d="M318.1,118.128h2.872v4.461H318.1Z" transform="translate(-247.629 -118.128)" fill="#fff"/>
      <path id="Caminho_2426" data-name="Caminho 2426" d="M266.782,172.293v-2.91h4.4v2.91Z" transform="translate(-214.697 -150.778)" fill="#fff"/>
      <path id="Caminho_2427" data-name="Caminho 2427" d="M365.014,169.327h4.4v2.954h-4.4Z" transform="translate(-277.73 -150.743)" fill="#fff"/>
      <path id="Caminho_2428" data-name="Caminho 2428" d="M318.1,216.246h2.848v4.438H318.1Z" transform="translate(-247.626 -180.631)" fill="#fff"/>
      <path id="Caminho_2429" data-name="Caminho 2429" d="M353.477,131.926l1.667,1.84-3.174,2.954-1.717-2.024Z" transform="translate(-268.259 -126.918)" fill="#fff"/>
      <path id="Caminho_2430" data-name="Caminho 2430" d="M284.12,201.345l1.924,1.853-3.416,3.063-1.53-2.087Z" transform="translate(-223.884 -171.139)" fill="#fff"/>
      <path id="Caminho_2431" data-name="Caminho 2431" d="M282.243,131.862l3.228,3.2-2.008,1.927-3.045-3.482Z" transform="translate(-223.447 -126.877)" fill="#fff"/>
      <path id="Caminho_2432" data-name="Caminho 2432" d="M354.791,204.375l-2.008,2.168-3.154-3.3,2.24-1.922Z" transform="translate(-267.858 -171.126)" fill="#fff"/>
    </g>
  </g>
</svg>
