<svg xmlns="http://www.w3.org/2000/svg" width="115.265" height="113.733" viewBox="0 0 115.265 113.733">
  <g id="Grupo_1215" data-name="Grupo 1215" transform="translate(17.308 -44.96)">
    <g id="Grupo_1198" data-name="Grupo 1198" transform="matrix(0.891, 0.454, -0.454, 0.891, 20.971, 45.436)">
      <path id="Caminho_2440" data-name="Caminho 2440" d="M-.513,28.917l2.787-.176-.01-1.916c-.027-5.35-.072-10.7-.076-16.052,0-4.2,1.4-6.239,5.2-7.809a2.683,2.683,0,0,0,1.079-.943C9.815.089,11.581-.64,13.546-.007a4.328,4.328,0,0,1,3.076,4.075A4.243,4.243,0,0,1,13.8,8.27c-1.949.7-3.759.06-5.174-1.843-.134-.18-.263-.363-.385-.532A3.892,3.892,0,0,0,5.1,9.8c-.027,6.253.043,12.508.077,18.959l4.375.222c-.319,4.546.557,8.612,4.174,11.632a12.475,12.475,0,0,0,8.506,2.882c7.487-.144,11.117-4.466,11.965-14.359l2.8-.213c0-.577,0-1.126-.009-1.676-.045-5.521-.077-11.043-.141-16.564C36.811,8.188,36.017,7.006,33.752,6c-.323.407-.634.863-1.009,1.259a4.258,4.258,0,0,1-6.2-.043,4.348,4.348,0,0,1,.266-6.25,4.371,4.371,0,0,1,6.211.59,8.365,8.365,0,0,0,2.405,1.907A7.349,7.349,0,0,1,39.7,10.316c.071,5.465.108,10.929.158,16.394.006.677.007,1.354.012,2.214l2.7.22c1.42,7.446-2.587,15.723-9.609,19.9a24.888,24.888,0,0,1-3.166,1.587c-2.764,1.148-2.774,1.122-2.8,4.236-.028,3.877-1,5.357-4.1,6.276-1.214,8.446,4.15,17.286,12.7,18.868C43.648,81.5,51.542,75.424,52.8,66.741a28,28,0,0,0,.267-4.077c-.021-8.937-.117-17.874-.092-26.81a17.018,17.018,0,0,1,.724-5.021,12.078,12.078,0,0,1,12.833-8.6A12.613,12.613,0,0,1,77.306,33.792c.145,2.866.7,4.43,3.636,5.681,4.471,1.9,6.305,7.291,4.859,11.887a10.038,10.038,0,0,1-10.554,7.01,10.356,10.356,0,0,1-9.189-9.322,9.942,9.942,0,0,1,7.033-10.54c1.3-.378,1.755-.918,1.562-2.207a35.4,35.4,0,0,0-.488-3.881c-1.192-4.457-5.174-7.54-9.314-7.349A9.641,9.641,0,0,0,56.03,33.3a18.778,18.778,0,0,0-.206,3.057q.044,13.4.134,26.81c.047,6.192-1.952,11.514-6.579,15.608C40.032,87.048,25.76,83.1,21.3,70.924c-.957-2.613-1.062-5.548-1.446-8.35-.123-.893-.075-1.495-1.232-1.8-2.159-.572-2.882-2.435-3.1-4.463-.172-1.571.329-3.505-.426-4.636-.7-1.055-2.708-1.179-4.071-1.856C3.056,45.864-1.26,38.083-.513,28.917ZM2.44,31.854C2.018,41.445,11.224,49.579,22,49.329c9.914-.23,18.686-8.737,17.687-17.245L37.1,32.07c-.715,9.409-7.349,13.963-14.284,14.343a15.413,15.413,0,0,1-9.957-2.791c-4.035-2.843-5.953-6.9-6.322-11.747Zm73.737,9.1a7.1,7.1,0,0,0-7.229,7.127,7.282,7.282,0,0,0,7.157,7.351,7.1,7.1,0,0,0,7.227-7.131A7.262,7.262,0,0,0,76.177,40.958ZM18.3,52.216c.214,1.948-.729,4.193,1.037,5.554a3.961,3.961,0,0,0,3.783.015c1.735-1.348.79-3.6.972-5.538Zm-6.14-50.1c-.616.984-1.3,1.59-1.212,2.068a1.909,1.909,0,0,0,1.384,1.255A1.858,1.858,0,0,0,13.581,4.07C13.616,3.588,12.878,3.042,12.163,2.112Zm17.369.082c-.618.984-1.3,1.586-1.215,2.065a1.908,1.908,0,0,0,1.37,1.266,1.854,1.854,0,0,0,1.261-1.352C30.984,3.688,30.247,3.137,29.531,2.194Z" transform="translate(0 0)" fill="#fff"/>
      <path id="Caminho_2441" data-name="Caminho 2441" d="M8.588,4.29A4.354,4.354,0,0,1,4.345,8.664,4.474,4.474,0,0,1-.079,4.375,4.356,4.356,0,0,1,4.255-.078,4.45,4.45,0,0,1,8.588,4.29ZM4.254,6.332c.654-.964,1.34-1.529,1.284-2.015C5.48,3.806,4.7,3,4.253,3a1.838,1.838,0,0,0-1.3,1.286C2.894,4.773,3.59,5.354,4.254,6.332Z" transform="translate(71.887 43.904)" fill="#fff"/>
    </g>
  </g>
</svg>
