<svg xmlns="http://www.w3.org/2000/svg" width="70.974" height="70.949" viewBox="0 0 70.974 70.949">
  <g id="Grupo_1211" data-name="Grupo 1211" transform="translate(17.713 -63.669)">
    <g id="Grupo_1182" data-name="Grupo 1182" transform="translate(-17.713 84.098) rotate(-22)">
      <g id="Grupo_1181" data-name="Grupo 1181" transform="translate(0)">
        <path id="Caminho_2394" data-name="Caminho 2394" d="M15.439,16.782h1.254q16.947,0,33.894,0c2.794,0,3.945,1.153,3.945,3.941q0,14.973,0,29.946c0,2.619-1.213,3.819-3.861,3.819q-22.863,0-45.725,0c-2.7,0-3.9-1.2-3.9-3.9,0-10.373.055-20.746-.044-31.118A46.6,46.6,0,0,0,.1,12.519C-.317,9.982.6,8.552,3.122,8.105Q17.229,5.6,31.34,3.131,39.994,1.606,48.648.076a3.208,3.208,0,0,1,4.033,2.747c.233,1.184.429,2.375.628,3.566a3.179,3.179,0,0,1-2.795,4q-9.594,1.714-19.193,3.4L16.008,16.5c-.2.035-.4.082-.594.123ZM52.4,27.332H3.249a5.7,5.7,0,0,0-.061.569q0,11.506,0,23.011c0,1.112.379,1.43,1.62,1.43q22.961,0,45.923,0c1.382,0,1.662-.292,1.663-1.7q0-9,0-18ZM3.005,16.617l11.28-1.994c-.745-1.872-1.434-3.65-2.176-5.406a.836.836,0,0,0-.7-.366C8.644,9.3,5.885,9.8,3.127,10.287a1.117,1.117,0,0,0-1,1.461C2.4,13.316,2.691,14.882,3.005,16.617ZM13.927,19H3.245v6.124c2.713,0,5.367.008,8.021-.016a.737.737,0,0,0,.562-.358C12.54,22.865,13.216,20.967,13.927,19Zm30.195-.083c-2.523,0-4.9-.008-7.275.014a.756.756,0,0,0-.592.309c-.724,1.91-1.408,3.834-2.15,5.885,2.546,0,4.92.008,7.294-.015a.731.731,0,0,0,.567-.327C42.694,22.87,43.385,20.942,44.122,18.917ZM13.989,25.128h5.939c1.829,0,1.829,0,2.47-1.766l1.614-4.446c-2.548,0-4.89-.013-7.231.021a.913.913,0,0,0-.686.458C15.383,21.243,14.722,23.11,13.989,25.128Zm10.058-.006c2.545,0,4.95.009,7.354-.017a.722.722,0,0,0,.536-.376c.713-1.884,1.392-3.782,2.129-5.812-2.541,0-4.944-.008-7.346.016a.723.723,0,0,0-.541.369C25.465,21.189,24.787,23.087,24.047,25.122ZM32.9,5.03l1.582,4c.739,1.871.742,1.883,2.733,1.542,1.793-.306,3.58-.643,5.438-.979-.735-1.857-1.392-3.571-2.106-5.26a.954.954,0,0,0-.724-.511C37.558,4.181,35.3,4.6,32.9,5.03ZM23.5,6.693c.59,1.5,1.116,2.85,1.648,4.194.669,1.69.673,1.7,2.446,1.391,1.8-.312,3.59-.645,5.473-.984-.747-1.882-1.421-3.627-2.146-5.351a.849.849,0,0,0-.678-.425C28.051,5.869,25.862,6.273,23.5,6.693ZM14.11,8.349l2.327,5.9,7.238-1.288c-.741-1.865-1.4-3.615-2.154-5.327a1.141,1.141,0,0,0-.973-.409C18.483,7.544,16.43,7.935,14.11,8.349Zm30.7.888c1.905-.339,3.73-.6,5.515-1.03a1.526,1.526,0,0,0,.892-1.174,21.961,21.961,0,0,0-.7-3.97c-.1-.385-.747-.943-1.071-.9-2.3.312-4.587.76-6.968,1.181Zm7.577,15.833c0-1.748.059-3.442-.048-5.127a1.442,1.442,0,0,0-1-.97c-1.479-.115-2.973-.065-4.46-.04a.744.744,0,0,0-.575.331c-.718,1.9-1.4,3.817-2.114,5.806Z" fill="#fff"/>
        <path id="Caminho_2395" data-name="Caminho 2395" d="M0,7.053c0-1.845-.009-3.69,0-5.534C.016.072.743-.376,1.964.325q4.843,2.78,9.669,5.59c1.309.763,1.3,1.571-.029,2.342Q6.823,11.038,2.025,13.79c-1.281.736-2.011.3-2.02-1.2C0,10.743,0,8.9,0,7.053Zm9.367.02L2.225,2.943v8.265Z" transform="translate(21.5 32.733)" fill="#fff"/>
      </g>
    </g>
  </g>
</svg>
