<svg xmlns="http://www.w3.org/2000/svg" xmlns:xlink="http://www.w3.org/1999/xlink" width="204" height="124" viewBox="0 0 204 124">
  <defs>
    <clipPath id="clip-path">
      <rect id="Ret칙ngulo_442" data-name="Ret칙ngulo 442" width="204" height="124" rx="9" transform="translate(0 -0.014)" fill="#d1beb0"/>
    </clipPath>
  </defs>
  <g id="Grupo_de_m치scara_69" data-name="Grupo de m치scara 69" transform="translate(0 0.014)" clip-path="url(#clip-path)">
    <g id="Grupo_1197" data-name="Grupo 1197" transform="translate(-28.589 79.691) rotate(-17)">
      <path id="Caminho_2433" data-name="Caminho 2433" d="M10.182,14.9c-2.508.009-4.762.032-7.015.021-2.121-.01-3-.927-3.006-3.1,0-1.487-.018-2.974.025-4.46A6.449,6.449,0,0,1,6.492.963Q32.9.817,59.3.771a6.214,6.214,0,0,1,6.177,6.393,3.983,3.983,0,0,0,3.688,4.26,3.737,3.737,0,0,1,3.287,3.761,2.2,2.2,0,0,0,1.143,2.026c1.895,1.2,2.287,3.087,1.423,5.166a3.31,3.31,0,0,0-.028,2.292c.863,2.1.478,3.968-1.41,5.191A2.185,2.185,0,0,0,72.4,31.884,3.464,3.464,0,0,1,70.22,35.3a1.563,1.563,0,0,0-1.088,1.78c.012,5.9-.02,11.8-.049,17.693-.013,2.694-.951,3.544-3.7,3.316l-.017,4.815c2-.007,4.037,0,6.072-.024,4.251-.046,3.889-.191,3.864,3.945-.007,1.239.012,2.479-.022,3.717a6.29,6.29,0,0,1-6.192,6.3q-26.478.146-52.956.192c-3.565.006-6.136-2.8-6.139-6.559-.006-6.2.036-12.39.058-18.585q.063-17.545.126-35.089ZM60.195,52.316c-1.3,1.53-2.581,2.977-3.8,4.473-.882,1.084-1.882,1.822-3.3,1.287s-1.629-1.774-1.617-3.161c.052-5.947.044-11.894.089-17.84.006-.816-.112-1.308-1-1.65a3.335,3.335,0,0,1-2.216-3.352,2.239,2.239,0,0,0-1.229-2.136c-1.845-1.184-2.22-3.126-1.323-5.2a3.034,3.034,0,0,0,.034-2.145,4.125,4.125,0,0,1,1.4-5.364,3.062,3.062,0,0,0,1.108-1.854,3.982,3.982,0,0,1,3.987-3.942,2.368,2.368,0,0,0,1.5-.673C55.987,8.1,56.635,7.9,59.816,9.157a2.449,2.449,0,0,0,3.111-2.152c-.108-2.328-1.641-3.7-4.236-3.692q-23.019.067-46.039.166a3.122,3.122,0,0,0-.606.068,39.8,39.8,0,0,1,.673,4.877c.073,4.706,0,9.415-.018,14.123q-.086,23.862-.167,47.723c-.007,2.565,1.479,4.22,3.709,4.219s3.739-1.673,3.773-4.216c.021-1.586.012-3.172.021-4.758.012-2.227.227-2.443,2.462-2.452q19.2-.072,38.39-.14l1.845-.007a41.96,41.96,0,0,1,.056-5.057C63.1,55.443,62.027,53.817,60.195,52.316ZM21.983,74.484l1.055,0q22.507-.082,45.014-.167a9.079,9.079,0,0,0,1.612-.093,3.259,3.259,0,0,0,2.914-2.772,51.912,51.912,0,0,0,.075-5.92l-49.833.181ZM63.409,36.515A9.4,9.4,0,0,0,64.686,35.2a3.811,3.811,0,0,1,3.391-2.014c1.341.022,1.826-.578,1.823-1.891A3.621,3.621,0,0,1,71.83,28a1.6,1.6,0,0,0,.655-2.57,3.591,3.591,0,0,1,.036-3.815,1.592,1.592,0,0,0-.71-2.545,3.559,3.559,0,0,1-1.861-3.313c.026-1.361-.6-1.857-1.868-1.846a3.493,3.493,0,0,1-3.25-1.916c-.638-1.159-1.4-1.317-2.529-.637a3.524,3.524,0,0,1-3.783-.017,1.5,1.5,0,0,0-2.43.616,3.645,3.645,0,0,1-3.375,2.015c-1.211-.006-1.83.5-1.823,1.767a3.824,3.824,0,0,1-2.055,3.536,1.423,1.423,0,0,0-.666,2.209,3.987,3.987,0,0,1-.039,4.352,1.3,1.3,0,0,0,.477,2.015,4.07,4.07,0,0,1,2.244,3.86,1.342,1.342,0,0,0,1.554,1.52A4.03,4.03,0,0,1,56.139,35.4c.235.391.983.893,1.237.774C59.411,35.224,61.38,34.831,63.409,36.515Zm-9.252.768-.066,18.31c1.311-1.537,2.429-2.843,3.543-4.153,2.016-2.37,3.321-2.365,5.351.026l3.455,4.072.066-18.263c-1.752,1.682-3.5,2-5.472.837a1.76,1.76,0,0,0-1.5.046C57.576,39.289,55.877,38.96,54.157,37.283Zm-43.966-25c.005-1.507.014-2.88.013-4.254A9.783,9.783,0,0,0,10.161,6.7,3.693,3.693,0,0,0,6.794,3.529,3.58,3.58,0,0,0,2.926,6.277a48.661,48.661,0,0,0-.079,6.031Z" transform="translate(0 0)" fill="#fcfcfc"/>
      <path id="Caminho_2434" data-name="Caminho 2434" d="M15.294.374C18.869.36,22.443.335,26.017.338c2.794,0,4.213,1.452,4.234,4.3.011,1.484.023,2.97-.025,4.454-.075,2.327-1.49,3.909-3.753,3.934q-11.31.125-22.621.081A3.672,3.672,0,0,1,.125,9.187C.1,7.6.1,6.019.141,4.436A3.8,3.8,0,0,1,4.13.424C7.851.376,11.573.388,15.294.374Zm-.275,10.144c3.626-.013,7.251-.053,10.876-.025,1.311.01,1.9-.524,1.864-1.856-.037-1.385,0-2.773.005-4.159.007-1.028-.473-1.573-1.507-1.569q-11.023.037-22.046.074A1.365,1.365,0,0,0,2.663,4.526C2.657,5.763,2.647,7,2.646,8.239c0,2.126.182,2.319,2.231,2.314Q9.949,10.542,15.019,10.518Z" transform="translate(18.729 43.613)" fill="#fcfcfc"/>
      <path id="Caminho_2435" data-name="Caminho 2435" d="M11.995,2.889C8.613,2.9,5.231,2.907,1.85,2.93c-.9.006-1.792-.1-1.826-1.213C-.014.5.935.362,1.883.359q10-.034,20-.073c.935,0,1.913.076,1.9,1.3s-1,1.273-1.93,1.274C18.563,2.86,15.279,2.877,11.995,2.889Z" transform="translate(18.946 30.974)" fill="#fcfcfc"/>
      <path id="Caminho_2436" data-name="Caminho 2436" d="M8.117.216c2.1-.008,4.2-.007,6.307-.027.9-.009,1.771.109,1.807,1.225s-.808,1.34-1.721,1.343q-6.38.025-12.761.045c-.9,0-1.756-.165-1.727-1.308S.911.235,1.81.236C3.912.238,6.014.224,8.117.216Z" transform="translate(26.519 24.732)" fill="#fcfcfc"/>
      <path id="Caminho_2437" data-name="Caminho 2437" d="M6.2,2.625a46.36,46.36,0,0,1-4.679-.039A2,2,0,0,1,.041,1.432C-.14.461.678.138,1.568.136,4.691.13,7.817.06,10.936.158a1.949,1.949,0,0,1,1.475,1.154c.171.954-.62,1.306-1.526,1.3C9.324,2.6,7.762,2.62,6.2,2.625Z" transform="translate(18.95 37.578)" fill="#fcfcfc"/>
      <path id="Caminho_2438" data-name="Caminho 2438" d="M2.492.038c1,.069,2.378-.3,2.4,1.223C4.912,2.878,3.5,2.6,2.466,2.6S0,2.912.019,1.311C.042-.312,1.509.142,2.492.038Z" transform="translate(18.998 24.949)" fill="#fcfcfc"/>
      <path id="Caminho_2439" data-name="Caminho 2439" d="M.123,9.082A8.912,8.912,0,0,1,8.879.117,8.782,8.782,0,0,1,17.7,8.9a8.988,8.988,0,0,1-8.777,8.984A8.781,8.781,0,0,1,.123,9.082ZM15.16,8.933A6.231,6.231,0,0,0,8.886,2.664a6.345,6.345,0,0,0-6.25,6.391,6.232,6.232,0,0,0,6.282,6.262A6.328,6.328,0,0,0,15.16,8.933Z" transform="translate(51.483 14.602)" fill="#fcfcfc"/>
    </g>
  </g>
</svg>
