<svg id="Ceu_Nublado" data-name="Ceu Nublado" xmlns="http://www.w3.org/2000/svg" width="56.893" height="36.492" viewBox="0 0 56.893 36.492">
  <path id="Caminho_2489" data-name="Caminho 2489" d="M597.479,75.179c2.284-7.45,7.1-11.906,14.813-12.932a15.859,15.859,0,0,1,10.14,2.117,16.854,16.854,0,0,1,6.964,7.563c.676,0,1.276-.019,1.875,0A13.128,13.128,0,0,1,643.4,81.324a13.275,13.275,0,0,1-10.354,17.031,14.284,14.284,0,0,1-2.643.236q-15.6.023-31.2.013a11.923,11.923,0,0,1-6.571-1.825A11.55,11.55,0,0,1,587.3,88.8a11.718,11.718,0,0,1,6.2-12.353,10.674,10.674,0,0,1,3.105-1.077C596.886,75.32,597.16,75.249,597.479,75.179ZM625.942,72.6a2.726,2.726,0,0,0-.138-.394,13.763,13.763,0,0,0-25.334,3.822c-.072.311-.124.627-.2.936a1.374,1.374,0,0,1-1.374,1.245c-.386.051-.777.071-1.165.119a8.506,8.506,0,0,0-7.374,8.557,8.359,8.359,0,0,0,4.3,7.27,8.707,8.707,0,0,0,4.687,1.174q15.334,0,30.666-.009a12.388,12.388,0,0,0,2.435-.208,10.126,10.126,0,0,0-1.283-20.033A9.943,9.943,0,0,0,623.328,78a7.871,7.871,0,0,1-.7.653,1.618,1.618,0,0,1-2.054-.147,1.506,1.506,0,0,1-.164-1.948,3.567,3.567,0,0,1,.4-.5,12.562,12.562,0,0,1,3.546-2.681C624.86,73.127,625.366,72.884,625.942,72.6Z" transform="translate(-587.124 -62.111)" fill="#fff"/>
</svg>
