<svg id="Chuva_Moderada" data-name="Chuva Moderada" xmlns="http://www.w3.org/2000/svg" width="63.163" height="58.625" viewBox="0 0 63.163 58.625">
  <path id="Caminho_2510" data-name="Caminho 2510" d="M396.139,169.289c-1.9,0-3.7-.044-5.487.032a1.8,1.8,0,0,0-1.243.686c-.544.8-1.052,1.548-2.159,1.358s-1.393-1.043-1.481-2.074c-1.966,0-3.876-.032-5.783.03a1.415,1.415,0,0,0-.912.672c-.505.829-1.038,1.565-2.146,1.37-1.086-.192-1.422-1.016-1.466-2.073-1.98,0-3.889-.032-5.8.03a1.414,1.414,0,0,0-.916.664c-.507.824-1.031,1.574-2.143,1.378a1.715,1.715,0,0,1-1.461-1.837c-1.9-.295-3.7-.589-5.508-.829a.976.976,0,0,0-.691.392,11.007,11.007,0,0,0-.716,1.171c-.7,1.137-1.638,1.5-2.56.98s-1.094-1.544-.442-2.7c.262-.464.531-.923.824-1.431-.5-.392-.991-.753-1.458-1.141a14.331,14.331,0,0,1,4.029-24.439,2.655,2.655,0,0,0,1.59-1.444c2.991-5.98,7.844-9.362,14.54-9.564,7-.212,12.157,3.07,15.429,9.232.46.866.841,1.106,1.806.95,7.333-1.181,14.8,4.33,15.938,11.784.9,5.873-1.191,10.543-5.841,14.186a11.111,11.111,0,0,0-1.839,2.418,10.528,10.528,0,0,0-.644,1.083c-.5.912-1.149,1.576-2.294,1.217A1.722,1.722,0,0,1,396.139,169.289Zm-8.681-27.077a13.118,13.118,0,0,0-24.436.127,3.168,3.168,0,0,1-2.359,2.172,10.862,10.862,0,0,0,2.717,21.289q15.384.128,30.768,0a10.882,10.882,0,0,0,5.626-19.971,10.239,10.239,0,0,0-12.113.419c-1.1.8-2.079.779-2.741-.048-.706-.884-.478-1.857.677-2.724C386.176,143.046,386.793,142.662,387.458,142.212Z" transform="translate(-344.969 -130.515)" fill="#fff"/>
  <path id="Caminho_2511" data-name="Caminho 2511" d="M351.531,170.879c-1.473-.019-2.338-1.24-1.856-2.342a12.414,12.414,0,0,1,1.381-2.36,1.7,1.7,0,0,1,2.891,1.751,13.461,13.461,0,0,1-1.346,2.247A3.381,3.381,0,0,1,351.531,170.879Z" transform="translate(-344.928 -121.077)" fill="#fff"/>
  <path id="Caminho_2512" data-name="Caminho 2512" d="M360.135,170.879c-1.475-.019-2.338-1.24-1.856-2.342a12.414,12.414,0,0,1,1.381-2.36,1.7,1.7,0,0,1,2.891,1.751,13.467,13.467,0,0,1-1.348,2.247A3.377,3.377,0,0,1,360.135,170.879Z" transform="translate(-342.605 -121.077)" fill="#fff"/>
  <path id="Caminho_2513" data-name="Caminho 2513" d="M368.739,170.879c-1.475-.019-2.34-1.24-1.856-2.342a12.414,12.414,0,0,1,1.381-2.36,1.7,1.7,0,0,1,2.889,1.751,13.375,13.375,0,0,1-1.346,2.247A3.391,3.391,0,0,1,368.739,170.879Z" transform="translate(-340.281 -121.077)" fill="#fff"/>
  <path id="Caminho_2514" data-name="Caminho 2514" d="M377.342,170.879c-1.473-.019-2.338-1.24-1.856-2.342a12.479,12.479,0,0,1,1.381-2.36,1.7,1.7,0,0,1,2.891,1.751,13.457,13.457,0,0,1-1.346,2.247A3.38,3.38,0,0,1,377.342,170.879Z" transform="translate(-337.957 -121.077)" fill="#fff"/>
  <path id="Caminho_2515" data-name="Caminho 2515" d="M385.946,170.879c-1.475-.019-2.338-1.24-1.856-2.342a12.414,12.414,0,0,1,1.381-2.36,1.7,1.7,0,0,1,2.891,1.751,13.379,13.379,0,0,1-1.348,2.247A3.377,3.377,0,0,1,385.946,170.879Z" transform="translate(-335.633 -121.077)" fill="#fff"/>
  <path id="Caminho_2516" data-name="Caminho 2516" d="M347.9,177.826c-1.473-.019-2.338-1.24-1.856-2.342a12.413,12.413,0,0,1,1.381-2.36,1.7,1.7,0,0,1,2.891,1.751,13.456,13.456,0,0,1-1.346,2.247A3.38,3.38,0,0,1,347.9,177.826Z" transform="translate(-345.909 -119.2)" fill="#fff"/>
  <path id="Caminho_2517" data-name="Caminho 2517" d="M356.5,177.826c-1.475-.019-2.338-1.24-1.856-2.342a12.416,12.416,0,0,1,1.381-2.36,1.7,1.7,0,0,1,2.891,1.751,13.463,13.463,0,0,1-1.348,2.247A3.376,3.376,0,0,1,356.5,177.826Z" transform="translate(-343.586 -119.2)" fill="#fff"/>
  <path id="Caminho_2518" data-name="Caminho 2518" d="M365.107,177.826c-1.475-.019-2.339-1.24-1.856-2.342a12.415,12.415,0,0,1,1.381-2.36,1.7,1.7,0,0,1,2.889,1.751,13.372,13.372,0,0,1-1.346,2.247A3.39,3.39,0,0,1,365.107,177.826Z" transform="translate(-341.262 -119.2)" fill="#fff"/>
  <path id="Caminho_2519" data-name="Caminho 2519" d="M373.71,177.826c-1.473-.019-2.338-1.24-1.856-2.342a12.485,12.485,0,0,1,1.381-2.36,1.7,1.7,0,0,1,2.891,1.751,13.456,13.456,0,0,1-1.346,2.247A3.379,3.379,0,0,1,373.71,177.826Z" transform="translate(-338.938 -119.2)" fill="#fff"/>
  <path id="Caminho_2520" data-name="Caminho 2520" d="M382.314,177.826c-1.475-.019-2.338-1.24-1.856-2.342a12.413,12.413,0,0,1,1.381-2.36,1.7,1.7,0,0,1,2.891,1.751,13.379,13.379,0,0,1-1.348,2.247A3.376,3.376,0,0,1,382.314,177.826Z" transform="translate(-336.614 -119.2)" fill="#fff"/>
</svg>
