<svg id="Chuviscos" xmlns="http://www.w3.org/2000/svg" width="56.875" height="54.425" viewBox="0 0 56.875 54.425">
  <path id="Caminho_2494" data-name="Caminho 2494" d="M430.463,146.72c2.364-7.452,7.238-11.861,15-12.9,7.666-.417,13.248,2.883,17.009,9.575.227.006.5.02.781.022a13.522,13.522,0,0,1,9.418,3.6,13.344,13.344,0,0,1,3.716,5.873,12.623,12.623,0,0,1,.479,6.1,13.268,13.268,0,0,1-6.108,9.325,12.955,12.955,0,0,1-7.04,2.117c-.425,0-.852.01-1.278.01H433.152c-.569,0-1.137,0-1.7-.025a11.223,11.223,0,0,1-7.241-2.954,11.881,11.881,0,0,1,3.155-19.826,17.521,17.521,0,0,1,2.228-.7C429.86,146.854,430.137,146.8,430.463,146.72Zm28.087-2.272a10.409,10.409,0,0,0-2.456-3.221,13.37,13.37,0,0,0-22.291,7.228c-.328,1.537-1.033,1.929-2.215,1.927a7.228,7.228,0,0,0-3.362.9,8.271,8.271,0,0,0,1.386,15.208,10.61,10.61,0,0,0,3.155.381q11.391,0,22.783,0,3.673,0,7.346,0a10.132,10.132,0,0,0,3.557-.544,9.619,9.619,0,0,0,6.37-6.9,9.233,9.233,0,0,0-1.972-8.682,9.434,9.434,0,0,0-9.946-3.259,9.79,9.79,0,0,0-4.469,2.566,7.426,7.426,0,0,1-.787.713,1.759,1.759,0,0,1-2.794-1.27,1.912,1.912,0,0,1,.591-1.538,14.565,14.565,0,0,1,4.1-2.995C457.86,144.812,458.167,144.646,458.55,144.447Z" transform="translate(-420.168 -133.789)" fill="#fff"/>
  <path id="Caminho_2495" data-name="Caminho 2495" d="M443.426,180.238a6.324,6.324,0,0,1-5.484-8.773,23.014,23.014,0,0,1,2-3.742c.756-1.2,1.577-2.355,2.38-3.522a2.4,2.4,0,0,1,.5-.544,1.73,1.73,0,0,1,2.327.109,2.5,2.5,0,0,1,.41.486c1.068,1.67,2.162,3.326,3.179,5.028a18.4,18.4,0,0,1,1.224,2.588,6.256,6.256,0,0,1-3.334,7.819A6.81,6.81,0,0,1,443.426,180.238Zm.526-11.847a12.992,12.992,0,0,0-1.21,1.75,15.345,15.345,0,0,0-1.478,2.821,2.648,2.648,0,0,0,1.4,3.386,2.813,2.813,0,0,0,3.706-1.08,2.651,2.651,0,0,0,.136-2.544A29.677,29.677,0,0,0,443.951,168.391Z" transform="translate(-415.507 -125.829)" fill="#fff"/>
  <path id="Caminho_2496" data-name="Caminho 2496" d="M455.919,180.255c-4.115-.046-6.256-2.6-6.772-5.033a6.194,6.194,0,0,1,.348-3.653,27.879,27.879,0,0,1,2.619-4.744c.559-.864,1.158-1.7,1.741-2.549a3.166,3.166,0,0,1,.324-.42,1.8,1.8,0,0,1,2.726.069,1.262,1.262,0,0,1,.131.168,68.543,68.543,0,0,1,3.767,6.048c.251.507.484,1.026.69,1.553a5.846,5.846,0,0,1-.771,5.847A6.008,6.008,0,0,1,455.919,180.255Zm-.462-11.875a26.3,26.3,0,0,0-2.146,3.431,9.361,9.361,0,0,0-.54,1.156,2.674,2.674,0,0,0,1.511,3.427,2.791,2.791,0,0,0,3.654-1.221,2.689,2.689,0,0,0,.075-2.455A26.2,26.2,0,0,0,455.457,168.379Z" transform="translate(-412.377 -125.829)" fill="#fff"/>
  <path id="Caminho_2497" data-name="Caminho 2497" d="M438.762,173.612a6.483,6.483,0,0,1-6.606,6.626,6.355,6.355,0,0,1-6.147-5.064,6.285,6.285,0,0,1,.4-3.744,23.162,23.162,0,0,1,2.079-3.82c.744-1.162,1.541-2.291,2.314-3.436.041-.058.081-.117.124-.171a1.77,1.77,0,0,1,2.961.131c.725,1.134,1.495,2.239,2.2,3.385.63,1.024,1.234,2.068,1.782,3.138A6.676,6.676,0,0,1,438.762,173.612Zm-6.3-5.134c-.117.066-.2.085-.235.136a22.878,22.878,0,0,0-2.426,4.116,3.007,3.007,0,0,0-.253,1.024,2.818,2.818,0,1,0,5.5-.782A23.479,23.479,0,0,0,432.465,168.479Z" transform="translate(-418.625 -125.828)" fill="#fff"/>
</svg>
