<svg id="Chuva_Intensa" data-name="Chuva Intensa" xmlns="http://www.w3.org/2000/svg" width="59.422" height="59.412" viewBox="0 0 59.422 59.412">
  <path id="Caminho_2521" data-name="Caminho 2521" d="M313.334,167.559c-4.735,0-9.294-.015-13.855.032a1.51,1.51,0,0,0-1,.718c-1.255,2.084-2.445,4.207-3.671,6.309-.727,1.247-1.692,1.6-2.652,1.011-.925-.572-1.069-1.532-.385-2.737.969-1.708,1.955-3.408,3.061-5.333-.606,0-1.041.019-1.475,0-2.887-.14-5.847.074-8.643-.509a14.2,14.2,0,0,1-11.009-12.811,14.517,14.517,0,0,1,9.284-14.719,2.845,2.845,0,0,0,1.678-1.541c3.07-6.071,8.023-9.469,14.838-9.607,7.072-.145,12.239,3.218,15.5,9.47.38.729.709,1,1.562.867a14.488,14.488,0,1,1,2.019,28.831,1.674,1.674,0,0,0-1.72.981c-1.1,2.038-2.29,4.029-3.455,6.032-.747,1.285-1.649,1.663-2.62,1.119-1.017-.569-1.153-1.565-.384-2.91.786-1.376,1.585-2.742,2.371-4.116C312.963,168.325,313.114,167.992,313.334,167.559Zm-1.143-27.386a13.274,13.274,0,0,0-24.719.145,3.189,3.189,0,0,1-2.383,2.193,10.989,10.989,0,0,0,2.952,21.541q15.367.053,30.735,0a11,11,0,0,0,3.547-21.353,10.265,10.265,0,0,0-10.058,1.659,1.786,1.786,0,0,1-2.667-.155,1.736,1.736,0,0,1,.541-2.6C310.777,141.1,311.467,140.673,312.191,140.173Z" transform="translate(-273.67 -128.363)" fill="#fff"/>
  <path id="Caminho_2522" data-name="Caminho 2522" d="M315.085,163.244a11.04,11.04,0,0,1-.518,1.337q-2.665,4.662-5.365,9.306a1.762,1.762,0,1,1-3.049-1.7c1.795-3.143,3.617-6.27,5.423-9.408a1.628,1.628,0,0,1,2.118-.911C314.269,162.12,314.657,162.8,315.085,163.244Z" transform="translate(-264.988 -119.35)" fill="#fff"/>
  <path id="Caminho_2523" data-name="Caminho 2523" d="M279.211,174.847c-1.678-.023-2.564-1.32-1.925-2.475,1.829-3.311,3.737-6.579,5.679-9.825a1.546,1.546,0,0,1,2.239-.513,1.689,1.689,0,0,1,.624,2.409c-.883,1.628-1.831,3.221-2.756,4.826-.867,1.506-1.692,3.039-2.633,4.5A5.055,5.055,0,0,1,279.211,174.847Z" transform="translate(-272.75 -119.342)" fill="#fff"/>
  <path id="Caminho_2524" data-name="Caminho 2524" d="M293.37,174.945c-1.689.056-2.635-1.315-1.984-2.5,1.787-3.237,3.654-6.434,5.534-9.621a1.647,1.647,0,0,1,2.309-.631,1.7,1.7,0,0,1,.655,2.4c-.683,1.294-1.44,2.55-2.171,3.819-1.036,1.8-2.041,3.63-3.141,5.394A5.476,5.476,0,0,1,293.37,174.945Z" transform="translate(-268.941 -119.29)" fill="#fff"/>
  <path id="Caminho_2525" data-name="Caminho 2525" d="M303.6,169.536a11.28,11.28,0,0,1-.508,1.355c-.947,1.675-1.905,3.345-2.887,5-.671,1.132-1.575,1.445-2.492.92-.95-.545-1.156-1.562-.507-2.708.969-1.707,1.947-3.41,2.953-5.1a1.532,1.532,0,0,1,2.044-.812A6.111,6.111,0,0,1,303.6,169.536Z" transform="translate(-267.415 -117.647)" fill="#fff"/>
  <path id="Caminho_2526" data-name="Caminho 2526" d="M284.27,177.014c-1.616.029-2.507-1.32-1.87-2.53,1.007-1.91,2.1-3.773,3.234-5.615a1.653,1.653,0,0,1,2.342-.512,1.583,1.583,0,0,1,.64,2.211q-1.574,2.9-3.31,5.7C285.057,176.674,284.479,176.871,284.27,177.014Z" transform="translate(-271.368 -117.638)" fill="#fff"/>
</svg>
