<svg id="Chuva_com_Trovoada" data-name="Chuva com Trovoada" xmlns="http://www.w3.org/2000/svg" width="56.39" height="56.877" viewBox="0 0 56.39 56.877">
  <path id="Caminho_2498" data-name="Caminho 2498" d="M642.5,146.437c.4,0,.72,0,1.038,0a13.244,13.244,0,0,1,13.28,15.048,13.141,13.141,0,0,1-10.69,11.249,17.243,17.243,0,0,1-3.074.243c-3.159.03-6.319.011-9.479.011H632.39l-3.036,3.465q-3.123,3.563-6.246,7.125a6.735,6.735,0,0,1-.582.621,1.662,1.662,0,0,1-1.979.184,1.511,1.511,0,0,1-.685-1.656,5.881,5.881,0,0,1,.319-1.012q1.475-3.822,2.959-7.641c.112-.29.189-.593.29-.913a2.054,2.054,0,0,0-1.083-.13q-5.06-.01-10.117,0a11.317,11.317,0,0,1-5.422-1.334,11.717,11.717,0,0,1-6.178-11.884,11.864,11.864,0,0,1,9.59-9.988c.173-.03.344-.07.575-.117.105-.281.234-.566.324-.865a16.562,16.562,0,0,1,8.546-10.255,16.914,16.914,0,0,1,15.651.263,16.625,16.625,0,0,1,6.781,6.87C642.212,145.935,642.336,146.147,642.5,146.437Zm-3.6.806a4.547,4.547,0,0,0-.2-.461,9.641,9.641,0,0,0-.556-.907,13.492,13.492,0,0,0-20.329-2.058,12.976,12.976,0,0,0-3.919,7.046c-.342,1.708-.525,1.862-2.307,2.019a8.284,8.284,0,0,0-4.063,1.452,8.417,8.417,0,0,0-1.288,12.829,8.593,8.593,0,0,0,6.33,2.567c2.238,0,4.474,0,6.711,0,.243,0,.484-.047.759-.076.189-.358.377-.7.547-1.044q2.5-5.117,5-10.236.467-.956.946-1.906a1.687,1.687,0,0,1,1.536-.974c.178-.006.356-.013.532-.013q3.25,0,6.5,0a4.284,4.284,0,0,1,.847.061,1.6,1.6,0,0,1,1.189,2.279,6.456,6.456,0,0,1-.412.744q-1.488,2.522-2.977,5.042c-.156.264-.286.545-.471.9a3.846,3.846,0,0,0,.589.11c.6.013,1.207,0,1.81.013a4.954,4.954,0,0,1,.953.077,1.492,1.492,0,0,1,1.1,2.046,3.6,3.6,0,0,1-.573.887c-.426.523-.884,1.019-1.322,1.53-.107.124-.277.239-.142.5a2.328,2.328,0,0,0,.373.058c2.521,0,5.042.017,7.562,0A10,10,0,0,0,652.484,155a9.5,9.5,0,0,0-7.37-5.187,9.834,9.834,0,0,0-8.659,2.893,4.03,4.03,0,0,1-.733.608,1.586,1.586,0,0,1-2.122-2.246,3.4,3.4,0,0,1,.415-.484,13.166,13.166,0,0,1,3.1-2.411C637.666,147.869,638.238,147.586,638.893,147.243Zm-12.267,27.231c.588-.49,4.657-5,5.607-6.2a1.284,1.284,0,0,0,.121-.32,7.043,7.043,0,0,0-1.5-.081,5.767,5.767,0,0,1-1.052-.11,1.383,1.383,0,0,1-1.061-1.613,3.076,3.076,0,0,1,.3-.9c.187-.381.427-.737.643-1.1q1.379-2.338,2.751-4.679c.117-.2.32-.405.142-.677a12.029,12.029,0,0,0-3.556.085c-1.572,3.272-3.17,6.594-4.763,9.918a1.137,1.137,0,0,0-.034.343,8.661,8.661,0,0,0,1.584.083,4.024,4.024,0,0,1,1.039.164,1.555,1.555,0,0,1,.906,2.167c-.055.131-.135.251-.184.384A18.667,18.667,0,0,0,626.627,174.474Z" transform="translate(-600.534 -136.784)" fill="#fff"/>
  <path id="Caminho_2499" data-name="Caminho 2499" d="M639.047,175.62q0,3.564,0,7.13a7.486,7.486,0,0,1-.031.956,1.589,1.589,0,0,1-1.551,1.471,1.623,1.623,0,0,1-1.666-1.349,4.176,4.176,0,0,1-.056-.846q-.006-7.449,0-14.9a5.087,5.087,0,0,1,.024-.638,1.649,1.649,0,0,1,1.558-1.476,1.631,1.631,0,0,1,1.665,1.354,6,6,0,0,1,.057,1.059Q639.052,172,639.047,175.62Z" transform="translate(-591.025 -128.901)" fill="#fff"/>
  <path id="Caminho_2500" data-name="Caminho 2500" d="M610.443,175.483q0,3.675,0,7.349a6.845,6.845,0,0,1-.036.956,1.547,1.547,0,0,1-1.5,1.388,1.573,1.573,0,0,1-1.7-1.292,3.607,3.607,0,0,1-.056-.742q0-7.561,0-15.123a3.6,3.6,0,0,1,.055-.74,1.625,1.625,0,0,1,3.207.112,6.862,6.862,0,0,1,.034.956Q610.445,171.916,610.443,175.483Z" transform="translate(-598.749 -128.901)" fill="#fff"/>
  <path id="Caminho_2501" data-name="Caminho 2501" d="M629.943,175.551q0,3.564,0,7.129c0,.319.009.639-.018.956a1.547,1.547,0,0,1-1.464,1.538,1.611,1.611,0,0,1-1.718-1.279,3.606,3.606,0,0,1-.074-.845q-.006-7.5,0-15a4,4,0,0,1,.047-.742,1.629,1.629,0,0,1,1.678-1.335,1.6,1.6,0,0,1,1.514,1.388,7.252,7.252,0,0,1,.037.955Q629.946,171.934,629.943,175.551Z" transform="translate(-593.476 -128.901)" fill="#fff"/>
  <path id="Caminho_2502" data-name="Caminho 2502" d="M631.226,174c0-.744,0-1.489,0-2.233a1.636,1.636,0,0,1,3.208-.4,3.6,3.6,0,0,1,.079.845c.008,1.276,0,2.553,0,3.829a4.333,4.333,0,0,1-.024.53,1.605,1.605,0,0,1-1.624,1.508,1.651,1.651,0,0,1-1.626-1.523,7.544,7.544,0,0,1-.023-.85c0-.566,0-1.134,0-1.7Z" transform="translate(-592.247 -127.773)" fill="#fff"/>
  <path id="Caminho_2503" data-name="Caminho 2503" d="M614.98,174.188c0,.813.043,1.63-.011,2.439a1.546,1.546,0,0,1-1.655,1.449,1.582,1.582,0,0,1-1.557-1.327,4.5,4.5,0,0,1-.039-.74q0-1.909,0-3.819a4.91,4.91,0,0,1,.015-.53,1.632,1.632,0,0,1,1.616-1.515,1.661,1.661,0,0,1,1.636,1.5c0,.07.014.141.014.211,0,.779,0,1.556,0,2.334Z" transform="translate(-597.514 -127.774)" fill="#fff"/>
  <path id="Caminho_2504" data-name="Caminho 2504" d="M622.158,174.035c0-.746,0-1.49,0-2.235a1.585,1.585,0,0,1,.721-1.349,1.607,1.607,0,0,1,2.506.979,3.022,3.022,0,0,1,.061.634c0,1.383.011,2.768-.008,4.151a2.452,2.452,0,0,1-.177.928,1.556,1.556,0,0,1-1.646.922,1.631,1.631,0,0,1-1.4-1.269,3.593,3.593,0,0,1-.058-.74c-.008-.673,0-1.348,0-2.021Z" transform="translate(-594.696 -127.772)" fill="#fff"/>
  <path id="Caminho_2505" data-name="Caminho 2505" d="M620.371,178.95c0,.742,0,1.485,0,2.226a1.571,1.571,0,0,1-1.7,1.513,1.608,1.608,0,0,1-1.537-1.356,3.216,3.216,0,0,1-.028-.53q0-1.856,0-3.712a1.937,1.937,0,0,1,.254-1.119,1.642,1.642,0,0,1,1.738-.746,1.516,1.516,0,0,1,1.251,1.392c.049.773.011,1.553.011,2.332Z" transform="translate(-596.059 -126.41)" fill="#fff"/>
  <path id="Caminho_2506" data-name="Caminho 2506" d="M634.5,179.98c0,.389.023.78,0,1.167a1.611,1.611,0,0,1-1.533,1.591,1.651,1.651,0,0,1-1.693-1.561c-.047-.527-.019-1.062-.018-1.593a7.231,7.231,0,0,1,.025-.954,1.626,1.626,0,0,1,1.285-1.384,1.512,1.512,0,0,1,1.66.667,1.965,1.965,0,0,1,.255.794c.042.42.011.847.011,1.271Z" transform="translate(-592.24 -125.866)" fill="#fff"/>
  <path id="Caminho_2507" data-name="Caminho 2507" d="M625.421,180c0,.424.011.85,0,1.274a1.607,1.607,0,0,1-3.173.194,1.741,1.741,0,0,1-.057-.419c-.006-.744-.009-1.489,0-2.232a1.536,1.536,0,0,1,.564-1.213,1.6,1.6,0,0,1,1.694-.278,1.437,1.437,0,0,1,.958,1.293c.034.457.006.92.006,1.381Z" transform="translate(-594.687 -125.868)" fill="#fff"/>
  <path id="Caminho_2508" data-name="Caminho 2508" d="M614.976,180.009c0,.424,0,.847,0,1.271a1.685,1.685,0,0,1-1.675,1.459,1.53,1.53,0,0,1-1.522-1.466,21.239,21.239,0,0,1,0-2.543,1.6,1.6,0,0,1,3.194.006c.034.422.005.847.005,1.271Z" transform="translate(-597.507 -125.864)" fill="#fff"/>
</svg>
