<svg xmlns="http://www.w3.org/2000/svg" width="52.87" height="65.408" viewBox="0 0 52.87 65.408">
  <g id="Dia_-_Céu_Semi_-_Nublado_Chuva" data-name="Dia - Céu Semi - Nublado, Chuva" transform="translate(0 0)">
    <path id="Caminho_2545" data-name="Caminho 2545" d="M462.96,308.76c.568-.63,1.271-1.481,2.05-2.258a1.942,1.942,0,0,1,2.93-.2,1.993,1.993,0,0,1-.241,2.934c-.776.782-1.613,1.506-2.234,2.083l2.6,6.3c.89,0,2.03-.019,3.168.005a1.93,1.93,0,1,1,0,3.834c-1.1.02-2.206,0-3.375,0-.137.488-.236.931-.386,1.358a1.121,1.121,0,0,0,.494,1.476c4.553,3.452,6.376,8.07,5.007,13.6-1.343,5.412-5.03,8.6-10.538,9.66a1.936,1.936,0,0,0-1.141.815c-1.021,1.665-1.958,3.382-2.93,5.078-.9,1.57-1.933,2.035-3.037,1.378s-1.2-1.717-.278-3.338c.665-1.176,1.33-2.352,2.073-3.668-.46-.042-.772-.1-1.086-.1-4.6-.006-9.192.015-13.788-.023a1.542,1.542,0,0,0-1.6.917c-.706,1.355-1.5,2.667-2.253,4-1.336,2.347-2.221,2.921-3.453,2.243-1.289-.711-1.254-1.763.137-4.207.518-.911,1.026-1.828,1.594-2.839-1.421-.089-2.69-.1-3.939-.258a12.855,12.855,0,0,1-3.395-24.637,3.228,3.228,0,0,0,1.774-1.636,14.83,14.83,0,0,1,11-8.054c.709-.133,1.315-.815,1.967-1.245l.207-.659c-.853-.685-1.759-1.315-2.55-2.065-1.086-1.034-1.156-2.164-.307-3.006.866-.861,1.945-.775,3.019.306.747.751,1.431,1.561,1.986,2.172l6.353-2.638c0-.98-.025-2.127.008-3.272a1.916,1.916,0,0,1,1.816-2.056,1.955,1.955,0,0,1,2.017,2.016c.042.593.011,1.191.011,1.787,0,.55,0,1.1,0,1.561Zm-8.543,14.733a10.974,10.974,0,0,0-20.273.4,3.052,3.052,0,0,1-2.093,2.155,9.026,9.026,0,0,0,2.164,17.771c8.8.1,17.611.16,26.413-.014a9.008,9.008,0,0,0,7.754-13.482c-2.717-4.792-9.141-6.034-12.954-2.8a1.954,1.954,0,0,1-3.023-.117c-.7-.94-.417-2.052.744-2.95C453.55,324.14,453.958,323.84,454.418,323.493Zm9.212-1.514c1.525-4.078-.848-9.181-5.263-11.08-3.823-1.646-9.122-.381-10.58,2.539a15.137,15.137,0,0,1,10.016,8.008,1.162,1.162,0,0,0,.851.511C460.294,322,461.938,321.979,463.63,321.979Z" transform="translate(-420.547 -300.755)" fill="#fff"/>
    <path id="Caminho_2546" data-name="Caminho 2546" d="M460.839,341.435c-.323.746-.481,1.226-.726,1.657q-1.955,3.427-3.947,6.834c-.771,1.32-1.779,1.713-2.818,1.138-1.095-.606-1.287-1.722-.5-3.085q2.065-3.585,4.153-7.157a1.721,1.721,0,0,1,2.249-.927C459.882,340.182,460.319,340.91,460.839,341.435Z" transform="translate(-412.179 -290.225)" fill="#fff"/>
    <path id="Caminho_2547" data-name="Caminho 2547" d="M426.613,339.809c1.759-.024,2.755,1.5,2.042,2.812-1.393,2.572-2.887,5.091-4.4,7.6a1.9,1.9,0,0,1-3.295-1.9q2.136-3.833,4.424-7.58C425.682,340.254,426.348,340,426.613,339.809Z" transform="translate(-420.725 -290.208)" fill="#fff"/>
    <path id="Caminho_2548" data-name="Caminho 2548" d="M438.519,351.221c-1.751-.013-2.742-1.457-2.065-2.715,1.387-2.58,2.884-5.1,4.407-7.6a1.791,1.791,0,0,1,2.567-.6,1.864,1.864,0,0,1,.669,2.566c-1.4,2.522-2.848,5.026-4.361,7.483C439.446,350.821,438.766,351.052,438.519,351.221Z" transform="translate(-416.535 -290.157)" fill="#fff"/>
    <path id="Caminho_2549" data-name="Caminho 2549" d="M448.616,347.762a9.847,9.847,0,0,1-.464,1.344c-.671,1.228-1.351,2.453-2.077,3.649a1.889,1.889,0,0,1-2.693.88,1.918,1.918,0,0,1-.655-2.751c.685-1.269,1.406-2.52,2.146-3.757a1.726,1.726,0,0,1,2.3-.82C447.772,346.587,448.175,347.3,448.616,347.762Z" transform="translate(-414.867 -288.499)" fill="#fff"/>
    <path id="Caminho_2550" data-name="Caminho 2550" d="M428.6,353.885c-1.725-.025-2.7-1.377-2.127-2.588a38.566,38.566,0,0,1,2.43-4.306,1.746,1.746,0,0,1,2.468-.555,1.809,1.809,0,0,1,.757,2.508,42.045,42.045,0,0,1-2.271,3.959A4.267,4.267,0,0,1,428.6,353.885Z" transform="translate(-419.218 -288.494)" fill="#fff"/>
  </g>
</svg>
