<svg id="Eclipse" xmlns="http://www.w3.org/2000/svg" width="55.77" height="55.771" viewBox="0 0 55.77 55.771">
  <path id="Caminho_2544" data-name="Caminho 2544" d="M324.268,339.366l-3.241,2.188c.367.893.754,1.812,1.124,2.741.464,1.161.157,2.066-.812,2.451-.9.359-1.734-.074-2.214-1.174-.363-.829-.706-1.668-1.061-2.5a1.693,1.693,0,0,0-.145-.22c-1.039.189-2.108.335-3.145.607-.235.062-.5.56-.5.862-.044,2.177-.024,4.356-.025,6.535,0,.29.013.582-.013.87a1.653,1.653,0,0,1-1.642,1.683,1.607,1.607,0,0,1-1.627-1.688c-.048-1.887-.014-3.776-.025-5.663-.005-.8.25-1.814-.144-2.323-.368-.479-1.434-.418-2.193-.6-.422-.1-.842-.208-1.365-.338-.394.933-.775,1.865-1.177,2.785-.479,1.1-1.313,1.529-2.218,1.167-.965-.386-1.265-1.29-.806-2.456.345-.874.7-1.745,1.049-2.619a.509.509,0,0,0-.006-.152l-3.1-2.086c-1.843,1.848-3.654,3.725-5.546,5.517a2.5,2.5,0,0,1-1.693.672,1.664,1.664,0,0,1-1.184-1.045,2.232,2.232,0,0,1,.453-1.731c1.571-1.71,3.255-3.315,4.9-4.96.252-.254.493-.519.747-.787l-2.115-3.135c-.947.386-1.875.781-2.816,1.143a1.648,1.648,0,1,1-1.257-3.024c.922-.41,1.861-.781,2.778-1.163-.2-1.118-.328-2.162-.6-3.165a1.193,1.193,0,0,0-.93-.556c-2.032-.051-4.066-.025-6.1-.025-.291,0-.582.005-.871,0-1.285-.033-2.019-.625-2.031-1.632s.724-1.654,1.993-1.665c2.178-.02,4.358-.055,6.535.014,1.008.032,1.546-.15,1.551-1.313a12.582,12.582,0,0,1,.5-2.433c-.931-.389-1.867-.761-2.787-1.169a1.642,1.642,0,0,1-1.086-2.248,1.666,1.666,0,0,1,2.383-.768c.878.342,1.746.7,2.619,1.054a.658.658,0,0,0,.168,0l2.092-3.1-4.976-4.97c-.257-.257-.525-.5-.766-.775a1.606,1.606,0,0,1-.075-2.338,1.587,1.587,0,0,1,2.413.063c1.637,1.6,3.245,3.224,4.857,4.847.279.281.514.6.773.912l3.259-2.177c-.382-.933-.775-1.859-1.142-2.794a1.658,1.658,0,1,1,3.033-1.259c.207.462.391.936.587,1.4.182.434.365.866.572,1.354,1.1-.192,2.21-.338,3.281-.611.215-.055.431-.591.436-.908.037-2.359.006-4.72.028-7.079.013-1.252.686-1.985,1.706-1.946.968.037,1.571.749,1.583,1.965.022,2.287.032,4.575,0,6.862-.013.771.113,1.193,1.029,1.235a17.629,17.629,0,0,1,2.679.535c.38-.887.768-1.807,1.166-2.723.5-1.162,1.36-1.613,2.284-1.21s1.214,1.316.744,2.484c-.361.9-.739,1.793-1.114,2.7l3.156,2.144c1.265-1.269,2.563-2.572,3.862-3.874.616-.617,1.219-1.246,1.854-1.843a1.637,1.637,0,1,1,2.3,2.315c-1.778,1.815-3.587,3.6-5.381,5.4-.1.1-.182.218-.291.352l2.092,3.114,2.521-1.024c1.34-.544,2.242-.306,2.66.7.4.975-.094,1.786-1.448,2.356l-2.487,1.041a12.112,12.112,0,0,1,.474,2.305c.01,1.309.693,1.456,1.781,1.419,2.1-.074,4.21-.033,6.316-.016,1.3.01,2.026.6,2.049,1.61.024,1.047-.732,1.677-2.083,1.685-2.324.014-4.647.025-6.971-.006-.681-.01-.941.188-1,.9a26.115,26.115,0,0,1-.55,2.818c.942.4,1.878.772,2.8,1.18,1.095.484,1.5,1.33,1.106,2.239a1.645,1.645,0,0,1-2.372.787c-.909-.354-1.807-.74-2.779-1.141l-2.148,3.156,4.974,4.956a12.893,12.893,0,0,1,.912.935,1.627,1.627,0,0,1-2.412,2.185c-1.537-1.491-3.043-3.015-4.549-4.538C325,340.237,324.639,339.786,324.268,339.366Zm-7.126.127c-5.12-3.352-7.91-7.938-7.919-13.951-.009-6.044,2.812-10.65,7.867-13.965-5.141-2.191-12.207-.065-16.07,4.764a14.717,14.717,0,0,0,16.122,23.151Zm10.21-13.966a14.907,14.907,0,0,0-5.525-11.508,1.4,1.4,0,0,0-1.745-.268c-4.84,2.436-7.541,6.315-7.551,11.752s2.681,9.328,7.514,11.776a1.4,1.4,0,0,0,1.751-.221A14.9,14.9,0,0,0,327.352,325.527Z" transform="translate(-284.709 -297.638)" fill="#fff"/>
</svg>
