<svg id="Furacão" xmlns="http://www.w3.org/2000/svg" width="48.9" height="58.326" viewBox="0 0 48.9 58.326">
  <path id="Caminho_2531" data-name="Caminho 2531" d="M293.24,217.49c6.516,0,13.031.01,19.545-.011.959,0,1.774.18,2.082,1.175.287.923-.2,1.551-.937,2.106-3.033,2.27-3.578,4.036-2.169,7.568.992,2.491,2.346,4.847,3.22,7.373a53.632,53.632,0,0,1,1.958,7.769c.547,2.953-.606,5.491-2.451,7.754a35.776,35.776,0,0,1-8.172,6.988c-2.237,1.486-4.621,2.759-6.8,4.321a28.554,28.554,0,0,0-4.938,4.287c-1.919,2.2-1.812,3.749-.217,6.2a1.6,1.6,0,0,1-.207,2.173,1.49,1.49,0,0,1-2.158.179c-3.765-3.319-6.433-6.951-4.2-12.758.7-1.83,1.646-3.566,2.421-5.371a32.751,32.751,0,0,0,1.522-4.02,6.493,6.493,0,0,0-1.409-6.476,25.035,25.035,0,0,0-4.375-3.739c-2.483-1.656-5.132-3.061-7.689-4.608a27.889,27.889,0,0,1-7.166-5.708c-2.51-2.99-3.725-6.319-2.336-10.2a12.837,12.837,0,0,1,1.3-2.507,4.985,4.985,0,0,1,4.773-2.555C280.965,217.6,287.1,217.49,293.24,217.49Zm-3.006,48.943.389.145c1.771-3.344,4.638-5.529,7.768-7.435,1.358-.827,2.729-1.632,4.063-2.494a41.7,41.7,0,0,0,9.038-7.189c.307-.349.569-.739.97-1.266-4.37,0-8.493,0-12.616,0-1.411,0-2.218-.627-2.224-1.7s.8-1.716,2.206-1.717q6.249-.008,12.5,0h1.323l-.37-3.4c-1.724,0-3.345.006-4.967,0-1.392-.006-2.182-.663-2.149-1.764.03-1.052.8-1.647,2.143-1.655,1.263-.006,2.525,0,3.953,0l-4.5-10.219h-12.5c-3.3,0-6.592.01-9.888-.008a1.7,1.7,0,0,1-1.895-1.885c.091-.973.8-1.525,2.027-1.527q6.535-.013,13.069,0h8.945l1.215-3.334a2.087,2.087,0,0,0-.344-.06q-16.99-.006-33.98,0c-.283,0-.7.039-.827.221-.678.947-1.284,1.946-2.072,3.17,2.522,0,4.607-.069,6.679.044a2.346,2.346,0,0,1,1.609.963,1.759,1.759,0,0,1-.132,1.636,2.418,2.418,0,0,1-1.637.743c-1.943.089-3.892.034-5.994.034a10.559,10.559,0,0,0,3.8,4.792c2.467,1.746,5.046,3.335,7.617,4.927a3.636,3.636,0,0,0,1.8.48c5.075.037,10.152.019,15.228.023,1.421,0,2.23.61,2.252,1.675.023,1.106-.809,1.741-2.3,1.745-1.7,0-3.409,0-5.113,0h-5.591c3.434,2.754,5.8,5.781,5.72,10.219,1.694,0,3.316-.01,4.937,0,1.251.01,1.99.639,2.011,1.67.02,1.076-.739,1.735-2.051,1.745-1.59.013-3.183-.027-4.772.029a1.237,1.237,0,0,0-.913.551c-1.076,2.249-2.139,4.509-3.1,6.808C291.025,263.7,290.673,265.085,290.234,266.433Z" transform="translate(-268.176 -217.428)" fill="#fff"/>
  <path id="Caminho_2532" data-name="Caminho 2532" d="M284.8,231.637c-1.174,0-2.347.023-3.519-.006a1.7,1.7,0,1,1-.016-3.4q3.519-.038,7.039,0a1.705,1.705,0,1,1,.016,3.4C287.15,231.661,285.976,231.637,284.8,231.637Z" transform="translate(-265.124 -214.517)" fill="#fff"/>
</svg>
