<svg id="Granizo" xmlns="http://www.w3.org/2000/svg" width="62.347" height="66.777" viewBox="0 0 62.347 66.777">
  <path id="Caminho_2527" data-name="Caminho 2527" d="M233.733,162.756H216.459v18.626c1.871-1.934,4.6-1.589,6.4-3.437a3.723,3.723,0,0,1,5.281.348,3.91,3.91,0,0,1-.085,5.423,3.8,3.8,0,0,1-5.3.174,1.807,1.807,0,0,0-2.4-.345,7.116,7.116,0,0,0-4.066,5.107,1.83,1.83,0,0,1-2.074,1.569,1.9,1.9,0,0,1-1.786-1.913,9.517,9.517,0,0,1-.025-1.043q0-4.308,0-8.612V162.8h-4.834v1.509q0,11.549-.009,23.1c0,.514.074,1.193-.207,1.506a3.62,3.62,0,0,1-1.895,1.252c-.927.128-1.518-.6-1.806-1.547a32.981,32.981,0,0,0-1.608-4.649,6.27,6.27,0,0,0-4.325-3.486,1.646,1.646,0,0,0-1.3.382,4,4,0,0,1-5.808.243,3.919,3.919,0,1,1,5.7-5.372,2.307,2.307,0,0,0,.812.6,32.2,32.2,0,0,1,3.356.981,25.249,25.249,0,0,1,3.052,1.876,5.017,5.017,0,0,0,.1-.692c.006-4.96-.01-9.918.02-14.877.005-.775-.192-1.124-1-1.322a14.59,14.59,0,0,1-1.725-27.919,2.408,2.408,0,0,0,1.167-1.052c3.1-6.169,8.054-9.672,14.963-9.86,7.205-.2,12.427,3.249,15.771,9.592.119.226.253.445.368.648,9.324-.757,15.913,3.859,17.334,12.209,1.167,6.864-3.1,15.176-12.789,16.812v13.683c.751-.687,1.365-1.322,2.055-1.862a8.056,8.056,0,0,1,1.873-1.166,14.056,14.056,0,0,0,4.279-2.234c1.491-1.3,3.88-.679,5.088.916a3.933,3.933,0,0,1-.428,5.219,3.782,3.782,0,0,1-5.206.085,1.553,1.553,0,0,0-2.458-.159,13.1,13.1,0,0,0-3.13,3.714,43.387,43.387,0,0,0-2.065,7.086c-.373,1.522-1.053,2.333-2.207,2.216s-1.8-1.017-1.8-2.595q-.008-11.614,0-23.227Zm-4.3-27.469a12.91,12.91,0,0,0-11.769-7.939,12.778,12.778,0,0,0-12.129,8.089,3.807,3.807,0,0,1-2.778,2.552,10.613,10.613,0,0,0,3.323,20.751c7.786.046,15.571.018,23.358.009,2.609,0,5.226.088,7.825-.091,5.563-.384,9.759-5.452,9.481-11.27a10.626,10.626,0,0,0-10.4-9.889,10.5,10.5,0,0,0-6.408,2.216,1.984,1.984,0,0,1-2.983-.245,2.058,2.058,0,0,1,.691-2.936C228.193,136.111,228.78,135.738,229.433,135.287Z" transform="translate(-189.476 -123.461)" fill="#fff"/>
</svg>
