<svg xmlns="http://www.w3.org/2000/svg" width="50.767" height="50.527" viewBox="0 0 50.767 50.527">
  <path id="Luar" d="M591.5,234.016a25.679,25.679,0,0,1-24.125-17.079,24.9,24.9,0,0,1-1.236-12.056,25.767,25.767,0,0,1,15.289-20.1c1.069-.465,2.2-.793,3.3-1.18a1.786,1.786,0,0,1,1.349.044,1.6,1.6,0,0,1,.883,2.112,4.317,4.317,0,0,1-.56.9,18.187,18.187,0,0,0-3.6,8.756,18.975,18.975,0,0,0,30.274,17.76,10.3,10.3,0,0,1,1.031-.751,1.65,1.65,0,0,1,2.416.738,1.53,1.53,0,0,1,.058,1.039,28.446,28.446,0,0,1-2.532,6.532,24.931,24.931,0,0,1-4.711,6.14,25.546,25.546,0,0,1-7.594,5.022,26.526,26.526,0,0,1-5.378,1.665A24.346,24.346,0,0,1,591.5,234.016Zm-10.22-45.247A21.942,21.942,0,0,0,569.9,212.659,22.246,22.246,0,0,0,590.871,230.5a21.659,21.659,0,0,0,13.619-4.055c3.218-2.292,6.433-6.076,7.008-8.193a22.639,22.639,0,0,1-13.317,1.97,22.539,22.539,0,0,1-6.552-2.122A22.261,22.261,0,0,1,582,208.766a22.659,22.659,0,0,1-2.293-6.383,23.732,23.732,0,0,1-.259-6.889A24.069,24.069,0,0,1,581.279,188.77Z" transform="translate(-565.879 -183.491)" fill="#fff"/>
</svg>
