<svg xmlns="http://www.w3.org/2000/svg" width="67.468" height="67.51" viewBox="0 0 67.468 67.51">
  <g id="Nascer_Pôr_do_Sol" data-name="Nascer/Pôr do Sol" transform="translate(0 0)">
    <path id="Caminho_2533" data-name="Caminho 2533" d="M488.725,237.576c-1.241-.514-2.341-.949-3.422-1.426a2,2,0,1,1,1.487-3.677c.574.216,1.133.472,1.7.7s1.132.446,1.729.681l2.578-3.824-5.753-5.743c-.31-.31-.624-.619-.93-.934-1.11-1.142-1.227-2.209-.345-3.112s2-.826,3.11.274c1.937,1.915,3.853,3.848,5.78,5.773.307.307.627.6.964.922l3.81-2.548c-.465-1.134-.937-2.254-1.382-3.387a2.023,2.023,0,0,1,.963-2.869c1.083-.464,2.138.05,2.709,1.355.474,1.083.912,2.181,1.393,3.335,1.348-.235,2.684-.411,3.98-.742.259-.066.517-.716.523-1.1.044-2.854.008-5.709.036-8.564.014-1.514.831-2.4,2.064-2.355,1.168.046,1.9.909,1.914,2.376.027,2.723.052,5.447-.011,8.168-.024,1.052.152,1.612,1.378,1.649a18.427,18.427,0,0,1,3.112.634c.461-1.073.932-2.183,1.414-3.291.61-1.407,1.64-1.956,2.756-1.477,1.134.486,1.478,1.594.914,3-.408,1.017-.837,2.026-1.25,3.041a1.023,1.023,0,0,0,0,.306l4,2.715c.572-.719,1.165-1.586,1.882-2.337,1.547-1.619,3.142-3.193,4.748-4.755a1.98,1.98,0,1,1,2.807,2.77c-2.284,2.307-4.609,4.571-6.945,6.879l2.594,3.867c1.141-.465,2.261-.939,3.394-1.381,1.345-.526,2.38-.168,2.867.964.469,1.091-.034,2.115-1.349,2.708-.559.253-1.132.476-1.7.715s-1.119.474-1.661.7c.244,1.323.409,2.583.748,3.8a1.418,1.418,0,0,0,1.111.663c2.722.057,5.446.025,8.168.037a5.069,5.069,0,0,1,1.3.117c.955.26,1.64.967,1.415,1.91a3.908,3.908,0,0,1-1.406,1.81c-.3.251-.928.152-1.407.152q-30.9.01-61.795.005c-.263,0-.528.01-.79-.015a2,2,0,0,1-2.027-2,1.948,1.948,0,0,1,2.047-1.964c2.195-.058,4.392-.011,6.588-.03,1.048-.01,2.353.291,3.066-.217.6-.431.517-1.824.744-2.79C488.454,238.606,488.579,238.146,488.725,237.576Zm3.31,4.406h35.219c-.433-6.988-6.968-15.968-18.11-15.762C500.331,226.384,491.78,234.294,492.035,241.982Z" transform="translate(-475.9 -210.336)" fill="#fff"/>
    <path id="Caminho_2534" data-name="Caminho 2534" d="M505.55,247.869q5.664,0,11.327,0c1.536,0,2.459.739,2.478,1.932s-.946,2.031-2.421,2.033q-11.458.019-22.915,0c-1.5,0-2.453-.794-2.475-1.979-.024-1.247.907-1.986,2.549-1.989Q499.821,247.86,505.55,247.869Z" transform="translate(-471.675 -200.199)" fill="#fff"/>
    <path id="Caminho_2535" data-name="Caminho 2535" d="M511.706,245.592c-3.466,0-6.932.017-10.4-.006-1.457-.01-2.324-.753-2.374-1.924-.052-1.241.824-2.04,2.345-2.045,4.782-.017,9.565-.008,14.347-.008,2.193,0,4.388-.013,6.582.006,1.52.014,2.319.673,2.36,1.886.042,1.257-.817,2.07-2.331,2.082C518.725,245.61,515.216,245.592,511.706,245.592Z" transform="translate(-469.68 -201.89)" fill="#fff"/>
    <path id="Caminho_2536" data-name="Caminho 2536" d="M492.147,245.592c-1.358,0-2.718.029-4.076-.009-1.429-.041-2.262-.823-2.252-2.028s.822-1.925,2.305-1.937q4.01-.032,8.021,0c1.424.01,2.327.777,2.351,1.923.025,1.189-.923,2-2.4,2.052-.043,0-.088,0-.131,0Z" transform="translate(-473.221 -201.891)" fill="#fff"/>
    <path id="Caminho_2537" data-name="Caminho 2537" d="M503.256,264.32a19.933,19.933,0,0,1-2.1-.015,1.963,1.963,0,0,1-.014-3.914,36.213,36.213,0,0,1,4.33.013,1.844,1.844,0,0,1,1.769,1.937,1.942,1.942,0,0,1-1.886,1.971C504.659,264.361,503.955,264.32,503.256,264.32Z" transform="translate(-469.57 -196.832)" fill="#fff"/>
    <path id="Caminho_2538" data-name="Caminho 2538" d="M499.593,258.079c-.615,0-1.231.039-1.84-.008a1.973,1.973,0,0,1-1.937-2.064,1.932,1.932,0,0,1,1.972-1.876c1.269-.044,2.543-.047,3.812,0a1.89,1.89,0,0,1,1.928,1.908,1.939,1.939,0,0,1-1.833,2.021c-.695.065-1.4.013-2.1.013Z" transform="translate(-470.521 -198.516)" fill="#fff"/>
    <path id="Caminho_2539" data-name="Caminho 2539" d="M507.855,254.111c1.744.005,2.666.713,2.634,2.022s-.972,1.962-2.859,1.948c-1.613-.011-2.581-.749-2.594-1.978C505.022,254.794,506,254.106,507.855,254.111Z" transform="translate(-468.03 -198.512)" fill="#fff"/>
  </g>
</svg>
