<svg id="Neblina" xmlns="http://www.w3.org/2000/svg" width="57.245" height="35.785" viewBox="0 0 57.245 35.785">
  <path id="Caminho_2540" data-name="Caminho 2540" d="M213.43,299.9c-1.37-4.852-.765-9.279,2.2-13.253a13.95,13.95,0,0,1,8.685-5.468,14.558,14.558,0,0,1,17.107,12.014h11.7c1.688,0,2.5.561,2.477,1.71-.022,1.115-.809,1.655-2.426,1.656q-5.2,0-10.394,0H241.5l-.7,3.34h5.372c.41,0,.82-.009,1.229,0,1.175.034,1.946.728,1.918,1.718a1.719,1.719,0,0,1-1.887,1.638c-2.2.022-4.4.086-6.593-.023a2.769,2.769,0,0,0-2.789,1.3,15.9,15.9,0,0,1-2.005,2.072c1.218,0,2.172-.019,3.126.005a1.685,1.685,0,1,1,0,3.352q-13.745.017-27.494,0a1.69,1.69,0,1,1-.018-3.353c2.073-.02,4.146-.006,6.334-.006-.96-1.109-1.79-2.135-2.707-3.075a1.757,1.757,0,0,0-1.128-.255c-4.508-.017-9.015-.006-13.523-.015-1.179,0-1.905-.56-2.026-1.5-.135-1.055.7-1.856,1.991-1.859,3.837-.011,7.675-.005,11.512-.005Zm6.24,3.367a10.875,10.875,0,0,0,12.19,1.936c3.455-1.67,6.321-5.789,5.957-8.643H236.61q-7.043,0-14.084,0c-1.478,0-2.275-.607-2.262-1.707s.8-1.656,2.305-1.657q7.043,0,14.084,0h1.285c-1.139-4.375-3.646-7.272-7.83-8.455a10.963,10.963,0,0,0-13.248,14.451,1.367,1.367,0,0,0,1.033.68c2.158.064,4.321.024,6.481.036,1.285.006,2.056.663,2.041,1.7-.015,1.022-.8,1.652-2.091,1.66C222.839,303.274,221.353,303.267,219.67,303.267Z" transform="translate(-198.353 -280.905)" fill="#fff"/>
  <path id="Caminho_2541" data-name="Caminho 2541" d="M233.744,306.425h14.518a5.483,5.483,0,0,1,1,.027,1.589,1.589,0,0,1,1.453,1.58,1.61,1.61,0,0,1-1.417,1.727,4.067,4.067,0,0,1-.89.03H218.926a4.981,4.981,0,0,1-.78-.017,1.673,1.673,0,0,1,.075-3.338c.295-.028.594-.011.893-.011Z" transform="translate(-193.484 -274.015)" fill="#fff"/>
  <path id="Caminho_2542" data-name="Caminho 2542" d="M208.017,309.79c-2.493,0-4.986.005-7.478,0-1.378,0-2.153-.638-2.134-1.717.018-1.03.776-1.642,2.088-1.644q7.59-.01,15.179,0c1.367,0,2.176.655,2.152,1.71s-.832,1.651-2.218,1.654Q211.811,309.8,208.017,309.79Z" transform="translate(-198.405 -274.013)" fill="#fff"/>
</svg>
