<svg id="Neve" xmlns="http://www.w3.org/2000/svg" width="58.307" height="65.69" viewBox="0 0 58.307 65.69">
  <path id="Caminho_2551" data-name="Caminho 2551" d="M638.552,277.41a14.543,14.543,0,0,1,11.756,2.884,14.273,14.273,0,0,1,4.812,15.424,13.739,13.739,0,0,1-12.6,10.036c-10.638.236-21.289.259-31.926-.013-6.554-.168-11.936-5.447-12.963-11.852a14.3,14.3,0,0,1,8.647-15.567,3.885,3.885,0,0,0,2.11-1.985c2.991-5.614,7.7-8.783,14.052-9.048,6.737-.282,11.832,2.729,15.265,8.531C637.99,276.3,638.228,276.8,638.552,277.41Zm-3.726,1.444a12.5,12.5,0,0,0-11.111-7.722c-5.466-.091-9.6,2.29-11.969,7.241-.833,1.743-1.637,3.109-3.682,3.387a3.95,3.95,0,0,0-1.273.584,10.463,10.463,0,0,0-5.154,11.667,10.345,10.345,0,0,0,10.187,7.979c6.2.056,12.4.02,18.6.014,3.933-.005,7.873.1,11.8-.079a10.285,10.285,0,0,0,9.524-8.738,10.441,10.441,0,0,0-6.916-11.543,9.38,9.38,0,0,0-9.514,1.647,1.857,1.857,0,0,1-2.836-.2,1.888,1.888,0,0,1,.447-2.808C633.515,279.788,634.154,279.357,634.826,278.854Z" transform="translate(-597.447 -267.271)" fill="#fff"/>
  <path id="Caminho_2552" data-name="Caminho 2552" d="M612.039,304.65a1.923,1.923,0,1,1,.089-3.845,1.923,1.923,0,0,1-.089,3.845Z" transform="translate(-594.025 -258.214)" fill="#fff"/>
  <path id="Caminho_2553" data-name="Caminho 2553" d="M624.167,304.65a1.923,1.923,0,1,1,.09-3.845,1.923,1.923,0,0,1-.09,3.845Z" transform="translate(-590.749 -258.214)" fill="#fff"/>
  <path id="Caminho_2554" data-name="Caminho 2554" d="M636.347,304.649a1.923,1.923,0,1,1-.017-3.845,1.923,1.923,0,0,1,.017,3.845Z" transform="translate(-587.474 -258.214)" fill="#fff"/>
  <path id="Caminho_2555" data-name="Caminho 2555" d="M607.9,305.778a1.918,1.918,0,0,1-1.962,1.9,1.923,1.923,0,0,1,.041-3.846A1.92,1.92,0,0,1,607.9,305.778Z" transform="translate(-595.662 -257.395)" fill="#fff"/>
  <path id="Caminho_2556" data-name="Caminho 2556" d="M620.026,305.792a1.914,1.914,0,0,1-1.975,1.887,1.923,1.923,0,0,1,.068-3.845A1.918,1.918,0,0,1,620.026,305.792Z" transform="translate(-592.387 -257.395)" fill="#fff"/>
  <path id="Caminho_2557" data-name="Caminho 2557" d="M630.263,303.836a1.922,1.922,0,0,1,.025,3.843,1.922,1.922,0,1,1-.025-3.843Z" transform="translate(-589.112 -257.395)" fill="#fff"/>
  <path id="Caminho_2558" data-name="Caminho 2558" d="M612.039,310.713a1.923,1.923,0,1,1,.089-3.845,1.923,1.923,0,0,1-.089,3.845Z" transform="translate(-594.025 -256.576)" fill="#fff"/>
  <path id="Caminho_2559" data-name="Caminho 2559" d="M624.167,310.713a1.923,1.923,0,1,1,.09-3.845,1.923,1.923,0,0,1-.09,3.845Z" transform="translate(-590.749 -256.576)" fill="#fff"/>
  <path id="Caminho_2560" data-name="Caminho 2560" d="M636.294,310.713a1.923,1.923,0,1,1,.09-3.845,1.923,1.923,0,0,1-.09,3.845Z" transform="translate(-587.474 -256.576)" fill="#fff"/>
  <path id="Caminho_2561" data-name="Caminho 2561" d="M607.9,311.765a1.914,1.914,0,0,1-1.883,1.979,1.922,1.922,0,0,1-.113-3.842A1.912,1.912,0,0,1,607.9,311.765Z" transform="translate(-595.663 -255.757)" fill="#fff"/>
  <path id="Caminho_2562" data-name="Caminho 2562" d="M620.024,311.765a1.913,1.913,0,0,1-1.884,1.979,1.922,1.922,0,0,1-.112-3.842A1.911,1.911,0,0,1,620.024,311.765Z" transform="translate(-592.387 -255.757)" fill="#fff"/>
  <path id="Caminho_2563" data-name="Caminho 2563" d="M632.151,311.765a1.913,1.913,0,0,1-1.882,1.979,1.922,1.922,0,0,1-.114-3.842A1.912,1.912,0,0,1,632.151,311.765Z" transform="translate(-589.112 -255.757)" fill="#fff"/>
  <path id="Caminho_2564" data-name="Caminho 2564" d="M612.014,312.93a1.924,1.924,0,0,1,.141,3.845,1.924,1.924,0,1,1-.141-3.845Z" transform="translate(-594.025 -254.939)" fill="#fff"/>
  <path id="Caminho_2565" data-name="Caminho 2565" d="M626.091,314.872a1.92,1.92,0,0,1-1.961,1.9,1.923,1.923,0,0,1,.038-3.846A1.923,1.923,0,0,1,626.091,314.872Z" transform="translate(-590.749 -254.939)" fill="#fff"/>
  <path id="Caminho_2566" data-name="Caminho 2566" d="M638.218,314.859a1.924,1.924,0,0,1-1.948,1.918,1.924,1.924,0,0,1,.011-3.847A1.919,1.919,0,0,1,638.218,314.859Z" transform="translate(-587.474 -254.939)" fill="#fff"/>
  <path id="Caminho_2567" data-name="Caminho 2567" d="M607.9,317.939a1.915,1.915,0,0,1-1.994,1.868,1.923,1.923,0,0,1,.108-3.845A1.912,1.912,0,0,1,607.9,317.939Z" transform="translate(-595.663 -254.12)" fill="#fff"/>
  <path id="Caminho_2568" data-name="Caminho 2568" d="M618.085,319.809a1.924,1.924,0,1,1,.126-3.845,1.924,1.924,0,0,1-.126,3.845Z" transform="translate(-592.387 -254.12)" fill="#fff"/>
  <path id="Caminho_2569" data-name="Caminho 2569" d="M630.265,315.963a1.923,1.923,0,0,1,.02,3.845,1.923,1.923,0,1,1-.02-3.845Z" transform="translate(-589.112 -254.12)" fill="#fff"/>
</svg>
