<svg id="Noite_-_Céu_Limpo_com_Estrelas" data-name="Noite - Céu Limpo com Estrelas" xmlns="http://www.w3.org/2000/svg" width="51.007" height="50.991" viewBox="0 0 51.007 50.991">
  <path id="Caminho_2528" data-name="Caminho 2528" d="M230.147,252.675c1.3-.276,2.867-.551,4.4-.955.847-.224,1.632-.481,2.259.342.669.878.193,1.626-.358,2.334-5.173,6.655-11.99,9.678-20.295,8.323-8.586-1.4-14.363-6.536-16.868-14.9a20.95,20.95,0,0,1,17.977-26.733,22.1,22.1,0,0,1,7.317.511c.852.194,1.646.507,1.707,1.525s-.672,1.393-1.5,1.716a14.3,14.3,0,0,0,1.727,27.294C227.6,252.4,228.732,252.472,230.147,252.675Zm-10.439-28.652a17.995,17.995,0,0,0-8.32,34.092c7.741,3.9,16.1,1.186,19.7-2.511-8.153.009-14.355-3.375-17.333-11.135C210.664,236.409,213.157,229.6,219.708,224.023Z" transform="translate(-198.405 -212.045)" fill="#fff"/>
  <path id="Caminho_2529" data-name="Caminho 2529" d="M227.225,229.539c.191-1.106.366-2.323.622-3.523a1.453,1.453,0,0,0-.507-1.574,22.193,22.193,0,0,1-2.412-2.375,2.008,2.008,0,0,1-.5-1.566,2.13,2.13,0,0,1,1.335-1.095,19.287,19.287,0,0,1,3.438-.53,1.358,1.358,0,0,0,1.255-.925,22.071,22.071,0,0,1,1.472-2.929,2.28,2.28,0,0,1,1.453-1.078,2.226,2.226,0,0,1,1.472,1.043,22.567,22.567,0,0,1,1.516,3.018,1.3,1.3,0,0,0,1.191.861,21.371,21.371,0,0,1,3.438.53,2.1,2.1,0,0,1,1.362,1.066,2.148,2.148,0,0,1-.535,1.646c-.739.889-1.68,1.608-2.45,2.475a1.881,1.881,0,0,0-.415,1.29c.111,1.153.45,2.287.521,3.439a1.511,1.511,0,0,1-2.294,1.663c-1.312-.541-2.548-1.745-3.822-1.757-1.232-.01-2.468,1.149-3.712,1.773C228.35,231.644,227.156,230.973,227.225,229.539Zm1.906-7.605a3.672,3.672,0,0,1,1.5,5.038,8.534,8.534,0,0,1,2.727-1.063,7.988,7.988,0,0,1,2.613.949,7.54,7.54,0,0,1-.141-2.719c.273-.826,1.129-1.457,1.876-2.346-2.387.262-3.69-.82-4.292-3.009C232.755,220.911,231.519,222.09,229.131,221.934Z" transform="translate(-191.387 -213.945)" fill="#fff"/>
  <path id="Caminho_2530" data-name="Caminho 2530" d="M218.836,241.714c.151-.916.352-1.829.431-2.751a1.659,1.659,0,0,0-.357-1.1c-.533-.631-1.256-1.114-1.734-1.778a2.222,2.222,0,0,1-.475-1.66c.154-.462.851-.8,1.373-1.066a2.366,2.366,0,0,1,1.171-.174,2.624,2.624,0,0,0,2.855-2.152,2.469,2.469,0,0,1,.544-1.052c.4-.378.93-.871,1.4-.865a2.09,2.09,0,0,1,1.364.9c.494.693.759,1.546,1.2,2.284a1.526,1.526,0,0,0,.86.644c.8.19,1.666.166,2.447.411a2.774,2.774,0,0,1,1.447,1.008c.391.617.053,1.276-.49,1.767a2.767,2.767,0,0,1-.358.344c-1.816,1.116-2.042,2.7-1.423,4.588a1.656,1.656,0,0,1-.519,2.06,1.574,1.574,0,0,1-2.03-.161c-1.809-1.486-3.465-1.088-5.262.1A1.486,1.486,0,0,1,218.836,241.714Zm2.562-5.7c1.215.749,1.2,1.859,1,3a5.968,5.968,0,0,1,1.616-.489,6.984,6.984,0,0,1,1.732.5,2.5,2.5,0,0,1,.913-3.088,2.577,2.577,0,0,1-2.666-1.889A2.627,2.627,0,0,1,221.4,236.01Z" transform="translate(-193.474 -209.846)" fill="#fff"/>
</svg>
