<svg id="Noite_-_Semi-Nublado" data-name="Noite - Semi-Nublado" xmlns="http://www.w3.org/2000/svg" width="55.555" height="55.522" viewBox="0 0 55.555 55.522">
  <path id="Caminho_2509" data-name="Caminho 2509" d="M445.861,82.329A17.018,17.018,0,0,1,447.14,73a16.281,16.281,0,0,1,18.58-9.1c.939.22,1.781.559,1.843,1.666.058,1.041-.674,1.471-1.547,1.82a10.19,10.19,0,0,0,4.118,19.686,13.837,13.837,0,0,0,3.166-.634,1.722,1.722,0,0,1,2.042.516,1.473,1.473,0,0,1-.1,2.075c-1.49,1.5-3.039,2.947-4.583,4.4a7.567,7.567,0,0,1-1.026.681,13.738,13.738,0,0,1,5.879,9.192,13.538,13.538,0,0,1-11.075,15.475,14.806,14.806,0,0,1-2.369.2q-14.149.021-28.3.008a13.562,13.562,0,0,1-4.7-26.3,2.1,2.1,0,0,0,1.091-.88c3.069-6.253,8.045-9.441,15.025-9.467C445.363,82.328,445.539,82.329,445.861,82.329Zm10.294,11a12.427,12.427,0,0,0-23.093.183,3.092,3.092,0,0,1-2.32,2.091,10.264,10.264,0,0,0,2.705,20.1c9.646.055,19.294.077,28.942,0a10.274,10.274,0,0,0,9.09-14.582c-2.752-5.941-10.53-7.916-15.213-3.855a1.642,1.642,0,0,1-2.564-.127c-.586-.8-.4-1.665.564-2.43C454.856,94.234,455.484,93.815,456.155,93.331Zm13.175-2.882c-5.947-.672-10.138-3.405-12.178-8.772-2.106-5.544-.685-10.463,3.371-14.739a1.307,1.307,0,0,0-.335-.06,12.922,12.922,0,0,0-10.9,15.626,1.348,1.348,0,0,0,.777.748,15.738,15.738,0,0,1,8.831,8.177c.307.65.672.662,1.264.615a11.161,11.161,0,0,1,3.441-.057C465.743,92.518,467.354,91.563,469.329,90.449Z" transform="translate(-420.168 -63.461)" fill="#fff"/>
</svg>
