<svg id="Nublado_com_Vento" data-name="Nublado com Vento" xmlns="http://www.w3.org/2000/svg" width="56.869" height="52.968" viewBox="0 0 56.869 52.968">
  <path id="Caminho_2492" data-name="Caminho 2492" d="M514.452,148.242c2.378-7.4,7.193-11.832,14.913-12.884,7.758-.47,13.382,2.883,17.146,9.648.634,0,1.271-.028,1.906.005a13.482,13.482,0,0,1,3.869,26.066,14.8,14.8,0,0,1-5.32.9q-4.527,0-9.052,0-10.49,0-20.979-.008a17.212,17.212,0,0,1-2.756-.183,11.452,11.452,0,0,1-9.061-7.087,11.825,11.825,0,0,1,8.47-16.257C513.863,148.384,514.136,148.316,514.452,148.242Zm28.063-2.258a8.584,8.584,0,0,0-1.881-2.7c-3.665-3.624-8-5.014-13.053-3.753a12.888,12.888,0,0,0-7.923,5.7,13.471,13.471,0,0,0-1.887,4.712c-.312,1.551-.635,1.816-2.163,1.951a10.714,10.714,0,0,0-1.881.328,8.23,8.23,0,0,0,1.85,16.117c.461.023.922.023,1.384.023q14.688,0,29.378,0c.426,0,.851-.008,1.276-.014a9.168,9.168,0,0,0,3.215-.652,9.82,9.82,0,1,0-7.32-18.222,10.794,10.794,0,0,0-3.143,2.152,6.476,6.476,0,0,1-.8.7,1.8,1.8,0,0,1-2.092-.1,1.721,1.721,0,0,1-.534-1.923,2.338,2.338,0,0,1,.5-.8,13.529,13.529,0,0,1,3.613-2.769C541.526,146.5,541.992,146.256,542.515,145.984Z" transform="translate(-504.133 -135.315)" fill="#fff"/>
  <path id="Caminho_2493" data-name="Caminho 2493" d="M532.527,165.1c2.945,0,5.891-.013,8.836.009a9.638,9.638,0,0,1,2.218.2,7.546,7.546,0,0,1,2.994,13.326A7.514,7.514,0,0,1,534.7,174.7a7.667,7.667,0,0,1-.267-1.994,1.8,1.8,0,0,1,3.532-.5c.1.376.1.775.191,1.153a3.892,3.892,0,0,0,2.383,2.928,3.863,3.863,0,0,0,4.487-5.958,3.658,3.658,0,0,0-2.8-1.528c-.425-.02-.852-.025-1.278-.025l-17.671,0a8.986,8.986,0,0,1-1.063-.027,1.8,1.8,0,0,1-.112-3.574,6.03,6.03,0,0,1,1.06-.057Q527.843,165.1,532.527,165.1Z" transform="translate(-499.694 -127.27)" fill="#fff"/>
</svg>
