<svg id="Nublado_com_Trovoada" data-name="Nublado com Trovoada" xmlns="http://www.w3.org/2000/svg" width="56.9" height="48.275" viewBox="0 0 56.9 48.275">
  <path id="Caminho_2487" data-name="Caminho 2487" d="M716.884,177.439c-.544-.013-.93-.029-1.317-.029q-4.843,0-9.688,0a11.952,11.952,0,0,1-4.089-.6,11.778,11.778,0,0,1-1.468-21.835,10.444,10.444,0,0,1,2.93-.936c.241-.039.48-.1.784-.16a17.243,17.243,0,0,1,3.563-7.052,17.057,17.057,0,0,1,3.385-3.062,16.722,16.722,0,0,1,4.188-2.06,17.6,17.6,0,0,1,4.485-.846,17.051,17.051,0,0,1,16.239,9.662,2.429,2.429,0,0,0,1.139.074,13.359,13.359,0,0,1,8.055,2.634,13.414,13.414,0,0,1,4.05,16.582,13.129,13.129,0,0,1-9.226,7.214,15.213,15.213,0,0,1-3.493.3c-3.159.008-6.318,0-9.476.005-1.41,0-1.119-.107-1.988.887q-4.311,4.929-8.6,9.875c-.14.161-.273.328-.427.475a1.6,1.6,0,0,1-2.038.3,1.56,1.56,0,0,1-.593-1.957c.348-.968.731-1.923,1.1-2.882q1.116-2.877,2.233-5.752C716.721,178.051,716.773,177.813,716.884,177.439Zm11.822-3.329c.428.029.7.063.978.065,2.343,0,4.687.008,7.03,0a13.809,13.809,0,0,0,1.7-.1,9.751,9.751,0,0,0,7.77-5.445,10.313,10.313,0,0,0-10.4-14.722,10.186,10.186,0,0,0-5.915,2.9,7.041,7.041,0,0,1-.616.586,1.7,1.7,0,0,1-2.073-.061,1.626,1.626,0,0,1-.179-2.05,3.733,3.733,0,0,1,.413-.484,13.653,13.653,0,0,1,4.419-3.1c.219-.1.431-.215.64-.32a7.869,7.869,0,0,0-1.819-2.775c-4.1-4.179-8.954-5.562-14.589-3.8a13.529,13.529,0,0,0-9.094,10.247c-.051.279-.109.558-.179.833a1.4,1.4,0,0,1-1.176,1.088,3.678,3.678,0,0,1-.53.046A8.595,8.595,0,0,0,701.88,173.4a9.25,9.25,0,0,0,3.832.768c2.272.01,4.544.005,6.817,0,.244,0,.489-.037.781-.061.149-.281.3-.555.442-.838q2.871-5.944,5.737-11.887c.138-.287.282-.574.442-.848a1.506,1.506,0,0,1,1.212-.765c.246-.024.5-.029.744-.029q3.248,0,6.5,0a4.965,4.965,0,0,1,.848.046,1.558,1.558,0,0,1,1.237,2.158,5.723,5.723,0,0,1-.443.847c-1.039,1.776-2.086,3.549-3.122,5.327-.136.232-.227.49-.37.805.338.028.578.062.82.066.6.009,1.208-.015,1.81.013a3.791,3.791,0,0,1,1.042.175,1.323,1.323,0,0,1,.9,1.311,1.713,1.713,0,0,1-.41,1.18c-.325.376-.663.74-.977,1.125A6.7,6.7,0,0,0,728.706,174.11Zm-9.032,4.948.193.128q.7-.791,1.391-1.584,2.134-2.448,4.261-4.9c.146-.169.4-.321.257-.668-.16-.015-.33-.042-.5-.044-.569-.011-1.138.018-1.7-.024a1.593,1.593,0,0,1-1.377-2.371,7.878,7.878,0,0,1,.424-.738q1.608-2.7,3.216-5.4a5.909,5.909,0,0,0,.26-.575,1.8,1.8,0,0,0-.367-.1c-1.1-.005-2.195,0-3.249,0-.565.784-3.5,6.733-4.925,9.973-.1.215-.161.443-.273.754.408.025.715.052,1.022.061.461.015.927-.02,1.383.033a1.547,1.547,0,0,1,1.343,2.009,8.089,8.089,0,0,1-.311.791Z" transform="translate(-693.598 -140.831)" fill="#fff"/>
</svg>
