<svg id="Dia_-_Céu_Limpo" data-name="Dia - Céu Limpo" xmlns="http://www.w3.org/2000/svg" width="52.253" height="52.21" viewBox="0 0 52.253 52.21">
  <path id="Caminho_2543" data-name="Caminho 2543" d="M374.537,286.4l-2.924,1.98c.356.87.72,1.737,1.064,2.613a1.554,1.554,0,1,1-2.832,1.2c-.381-.865-.733-1.744-1.095-2.613-1.03.189-2.007.315-2.945.577a1.1,1.1,0,0,0-.523.86c-.047,2.041-.025,4.082-.027,6.124a7.924,7.924,0,0,1-.014.815,1.522,1.522,0,0,1-1.584,1.523,1.47,1.47,0,0,1-1.475-1.523c-.056-.983-.022-1.972-.023-2.959,0-1.36.027-2.723-.025-4.082a.992.992,0,0,0-.512-.759c-.945-.244-1.92-.375-2.963-.56-.359.859-.71,1.736-1.091,2.6a1.554,1.554,0,1,1-2.835-1.2c.171-.443.368-.876.549-1.316.166-.406.324-.817.508-1.281l-2.958-2.007c-1.482,1.486-2.99,2.995-4.5,4.5-.264.265-.522.537-.8.793a1.531,1.531,0,0,1-2.34.108,1.5,1.5,0,0,1,.161-2.262c1.477-1.506,2.976-2.991,4.472-4.478.264-.263.559-.5.861-.761l-2.026-3.024c-.856.347-1.721.711-2.595,1.052a1.545,1.545,0,0,1-2.224-.738c-.37-.851.013-1.646,1.038-2.1.836-.368,1.685-.707,2.555-1.072-.184-1.036-.316-2.041-.569-3.014-.057-.221-.526-.469-.812-.475-1.871-.043-3.742-.023-5.614-.023-.272,0-.544,0-.817,0-1.356-.017-2.079-.57-2.059-1.577.018-.972.718-1.509,2.016-1.516,1.8-.01,3.607,0,5.411,0,1.744,0,1.743,0,2.085-1.656.123-.592.254-1.182.4-1.84-.907-.377-1.787-.724-2.651-1.109a1.546,1.546,0,1,1,1.2-2.826c.879.34,1.748.709,2.624,1.066l2.116-3.132c-.688-.6-1.477-1.233-2.206-1.931-1.106-1.058-2.185-2.146-3.248-3.248A1.534,1.534,0,1,1,347.506,255c1.556,1.524,3.084,3.075,4.627,4.612.236.236.486.457.727.683l2.945-1.971c-.344-.833-.709-1.694-1.054-2.563a1.6,1.6,0,0,1,.763-2.3c.838-.333,1.626.081,2.074,1.109.34.777.663,1.562,1,2.343a1.339,1.339,0,0,0,.133.188c.982-.171,1.988-.3,2.962-.552.216-.055.456-.523.461-.805.038-2.21-.022-4.424.055-6.632a2.491,2.491,0,0,1,.7-1.572,1.422,1.422,0,0,1,1.376-.138,2.35,2.35,0,0,1,.942,1.514c.108,2.1.093,4.219.028,6.326-.029.944.145,1.439,1.222,1.454a12.021,12.021,0,0,1,2.27.474c.366-.866.724-1.739,1.1-2.6.445-1.024,1.237-1.444,2.074-1.115a1.6,1.6,0,0,1,.766,2.3c-.338.85-.695,1.692-1.06,2.578l2.955,2.014,4.664-4.674c.241-.241.474-.49.726-.718a1.5,1.5,0,0,1,2.191-.1,1.484,1.484,0,0,1-.033,2.261c-1.445,1.489-2.925,2.945-4.4,4.409-.312.312-.65.6-1.011.931l2.016,3.019c.823-.342,1.656-.7,2.5-1.033,1.142-.46,2.019-.173,2.376.763.329.86-.112,1.616-1.233,2.1-.808.347-1.621.685-2.444,1.031.188,1.008.316,1.981.578,2.917a1.08,1.08,0,0,0,.838.539c2.074.047,4.149.024,6.226.028a5.238,5.238,0,0,1,.916.037,1.452,1.452,0,0,1,1.354,1.523,1.411,1.411,0,0,1-1.379,1.491c-.843.085-1.7.042-2.549.044-1.532.005-3.063.02-4.594-.008-.587-.01-.826.163-.887.789-.086.873-.326,1.73-.52,2.688.838.356,1.708.715,2.571,1.094,1.045.46,1.448,1.221,1.113,2.068-.359.909-1.205,1.2-2.29.776-.848-.335-1.688-.695-2.568-1.059l-2.007,2.973c1.735,1.726,3.5,3.422,5.178,5.191a2.386,2.386,0,0,1,.655,1.583,1.56,1.56,0,0,1-.963,1.124,2.058,2.058,0,0,1-1.626-.4c-1.722-1.594-3.348-3.291-5.011-4.948C374.834,286.663,374.7,286.555,374.537,286.4Zm-24.7-13.083A13.847,13.847,0,1,0,363.7,259.512,13.906,13.906,0,0,0,349.842,273.32Z" transform="translate(-337.575 -247.28)" fill="#fbe287"/>
</svg>
