<svg id="Vento_Forte" data-name="Vento Forte" xmlns="http://www.w3.org/2000/svg" width="56.871" height="52.162" viewBox="0 0 56.871 52.162">
  <path id="Caminho_2490" data-name="Caminho 2490" d="M435.158,230.211H416.1c-.319,0-.64.011-.958-.01a1.822,1.822,0,0,1-1.835-1.717,1.966,1.966,0,0,1,1.485-2.167,3.562,3.562,0,0,1,.735-.093c.39-.015.781-.006,1.172-.006h36.417c.568,0,1.137,0,1.7-.025a9.394,9.394,0,1,0-2.775-18.5A9.272,9.272,0,0,0,445,215.517c-.062.456-.1.917-.124,1.378a1.992,1.992,0,0,1-.465,1.166,1.942,1.942,0,0,1-2.091.69,2,2,0,0,1-1.458-1.779,10.4,10.4,0,0,1,.316-3.168,13.394,13.394,0,0,1,26.18.432,13.445,13.445,0,0,1-13.355,15.976c-.071,0-.142,0-.213,0Z" transform="translate(-410.762 -203.382)" fill="#fff"/>
  <path id="Caminho_2491" data-name="Caminho 2491" d="M429.085,227.358c4.65,0,9.3-.008,13.951.008a15.463,15.463,0,0,1,2.437.161,10.332,10.332,0,0,1,7.628,5.393,10.853,10.853,0,0,1-17.851,12.2,10.665,10.665,0,0,1-2.446-6.56,4.647,4.647,0,0,1,0-.532,1.925,1.925,0,0,1,1.773-1.812,1.993,1.993,0,0,1,2.1,1.577,8.408,8.408,0,0,1,.122,1.058,6.807,6.807,0,0,0,8.67,5.971,6.5,6.5,0,0,0,4.8-4.937,6.8,6.8,0,0,0-6.067-8.518c-.564-.053-1.135-.053-1.7-.053q-14.058-.006-28.115,0a11.254,11.254,0,0,1-1.276-.036,1.96,1.96,0,0,1-1.819-1.993,1.991,1.991,0,0,1,1.917-1.91c.354-.008.71-.011,1.064-.011Z" transform="translate(-411.301 -196.906)" fill="#fff"/>
</svg>
